font.ufo
<glyph name="space" format="1">
  <advance width="309"/>
  <unicode hex="0020"/>
  <outline>
    <contour>
      <point x="167" y="670" type="move" name="top"/>
    </contour>
    <contour>
      <point x="179" y="-59" type="move" name="bottom"/>
    </contour>
  </outline>
</glyph>
<glyph name="percent" format="1">
  <advance width="878"/>
  <unicode hex="0025"/>
  <outline>
    <contour>
      <point x="277" y="-93" type="line"/>
      <point x="649" y="757" type="line"/>
      <point x="621" y="757" type="line"/>
      <point x="250" y="-93" type="line"/>
    </contour>
    <contour>
      <point x="65" y="556" type="curve"/>
      <point x="65" y="661"/>
      <point x="95" y="742"/>
      <point x="191" y="742" type="curve"/>
      <point x="286" y="743"/>
      <point x="317" y="662"/>
      <point x="317" y="557" type="curve"/>
      <point x="317" y="451"/>
      <point x="288" y="369"/>
      <point x="193" y="369" type="curve"/>
      <point x="96" y="369"/>
      <point x="65" y="449"/>
      <point x="65" y="556" type="curve"/>
      <point x="56" y="556"/>
      <point x="51" y="556"/>
      <point x="42" y="556" type="curve"/>
      <point x="42" y="437"/>
      <point x="83" y="348"/>
      <point x="192" y="348" type="curve"/>
      <point x="301" y="348"/>
      <point x="341" y="438"/>
      <point x="341" y="558" type="curve"/>
      <point x="341" y="675"/>
      <point x="300" y="764"/>
      <point x="192" y="764" type="curve"/>
      <point x="83" y="764"/>
      <point x="42" y="674"/>
      <point x="42" y="556" type="curve"/>
      <point x="51" y="556"/>
      <point x="56" y="556"/>
    </contour>
    <contour>
      <point x="559" y="109" type="curve"/>
      <point x="559" y="214"/>
      <point x="590" y="295"/>
      <point x="686" y="295" type="curve"/>
      <point x="781" y="296"/>
      <point x="812" y="215"/>
      <point x="812" y="110" type="curve"/>
      <point x="812" y="4"/>
      <point x="783" y="-78"/>
      <point x="688" y="-78" type="curve"/>
      <point x="591" y="-78"/>
      <point x="559" y="2"/>
      <point x="559" y="109" type="curve"/>
      <point x="550" y="109"/>
      <point x="545" y="109"/>
      <point x="536" y="109" type="curve"/>
      <point x="536" y="-10"/>
      <point x="578" y="-99"/>
      <point x="687" y="-99" type="curve"/>
      <point x="796" y="-99"/>
      <point x="836" y="-9"/>
      <point x="836" y="111" type="curve"/>
      <point x="836" y="228"/>
      <point x="795" y="317"/>
      <point x="687" y="317" type="curve"/>
      <point x="578" y="317"/>
      <point x="536" y="227"/>
      <point x="536" y="109" type="curve"/>
      <point x="545" y="109"/>
      <point x="550" y="109"/>
    </contour>
  </outline>
</glyph>
<glyph name="comma" format="1">
  <advance width="186"/>
  <unicode hex="002C"/>
  <outline>
    <contour>
      <point x="52" y="119" type="move" name="_bottom"/>
    </contour>
    <contour>
      <point x="47" y="-107" type="line"/>
      <point x="73" y="-83"/>
      <point x="95" y="-54"/>
      <point x="95" y="-5" type="curve"/>
      <point x="95" y="16"/>
      <point x="92" y="33"/>
      <point x="74" y="33" type="curve"/>
      <point x="61" y="33"/>
      <point x="54" y="27"/>
      <point x="54" y="15" type="curve"/>
      <point x="54" y="5"/>
      <point x="58" y="-1"/>
      <point x="69" y="-6" type="curve"/>
      <point x="69" y="-28"/>
      <point x="58" y="-65"/>
      <point x="32" y="-90" type="curve"/>
    </contour>
  </outline>
</glyph>
<glyph name="six" format="1">
  <advance width="515"/>
  <unicode hex="0036"/>
  <outline>
    <contour>
      <point x="83" y="230" type="curve"/>
      <point x="108" y="312"/>
      <point x="169" y="386"/>
      <point x="263" y="386" type="curve"/>
      <point x="368" y="386"/>
      <point x="420" y="314"/>
      <point x="420" y="202" type="curve"/>
      <point x="420" y="102"/>
      <point x="369" y="19"/>
      <point x="267" y="19" type="curve"/>
      <point x="144" y="19"/>
      <point x="87" y="111"/>
      <point x="87" y="242" type="curve"/>
      <point x="87" y="485"/>
      <point x="228" y="637"/>
      <point x="454" y="715" type="curve"/>
      <point x="446" y="735"/>
      <point x="454" y="715"/>
      <point x="446" y="735" type="curve"/>
      <point x="210" y="657"/>
      <point x="62" y="500"/>
      <point x="62" y="241" type="curve"/>
      <point x="62" y="96"/>
      <point x="129" y="-5"/>
      <point x="266" y="-5" type="curve"/>
      <point x="385" y="-5"/>
      <point x="446" y="79"/>
      <point x="446" y="203" type="curve"/>
      <point x="446" y="327"/>
      <point x="383" y="409"/>
      <point x="265" y="409" type="curve"/>
      <point x="158" y="409"/>
      <point x="93" y="337"/>
      <point x="65" y="241" type="curve"/>
      <point x="81" y="230"/>
      <point x="67" y="241"/>
    </contour>
  </outline>
</glyph>
<glyph name="less" format="1">
  <advance width="640"/>
  <unicode hex="003C"/>
  <outline>
    <contour>
      <point x="572" y="582" type="curve"/>
      <point x="395" y="492"/>
      <point x="219" y="402"/>
      <point x="42" y="312" type="curve"/>
      <point x="42" y="288"/>
      <point x="42" y="312"/>
      <point x="42" y="288" type="curve"/>
      <point x="219" y="378"/>
      <point x="395" y="468"/>
      <point x="572" y="558" type="curve"/>
      <point x="572" y="582"/>
      <point x="572" y="558"/>
    </contour>
    <contour>
      <point x="581" y="48" type="curve"/>
      <point x="401" y="136"/>
      <point x="221" y="224"/>
      <point x="42" y="312" type="curve"/>
      <point x="42" y="288"/>
      <point x="42" y="312"/>
      <point x="42" y="288" type="curve"/>
      <point x="221" y="200"/>
      <point x="401" y="112"/>
      <point x="581" y="24" type="curve"/>
      <point x="581" y="48"/>
      <point x="581" y="24"/>
    </contour>
  </outline>
</glyph>
<glyph name="B" format="1">
  <advance width="590"/>
  <unicode hex="0042"/>
  <outline>
    <contour>
      <point x="168" y="722" type="curve"/>
      <point x="120" y="722"/>
      <point x="88" y="722"/>
      <point x="41" y="722" type="curve"/>
      <point x="41" y="700"/>
      <point x="41" y="722"/>
      <point x="41" y="700" type="curve"/>
      <point x="183" y="700"/>
      <point x="26" y="700"/>
      <point x="168" y="700" type="curve"/>
      <point x="168" y="722"/>
      <point x="168" y="700"/>
    </contour>
    <contour>
      <point x="167" y="22" type="curve"/>
      <point x="25" y="22"/>
      <point x="181" y="22"/>
      <point x="40" y="22" type="curve"/>
      <point x="40" y="0"/>
      <point x="40" y="22"/>
      <point x="40" y="0" type="curve"/>
      <point x="87" y="0"/>
      <point x="119" y="0"/>
      <point x="167" y="0" type="curve"/>
      <point x="167" y="22"/>
      <point x="167" y="0"/>
    </contour>
    <contour>
      <point x="158" y="700" type="curve"/>
      <point x="216" y="700"/>
      <point x="263" y="700"/>
      <point x="321" y="700" type="curve"/>
      <point x="410" y="700"/>
      <point x="463" y="646"/>
      <point x="463" y="555" type="curve"/>
      <point x="463" y="467"/>
      <point x="400" y="421"/>
      <point x="311" y="421" type="curve"/>
      <point x="256" y="421"/>
      <point x="213" y="421"/>
      <point x="158" y="421" type="curve"/>
      <point x="158" y="409"/>
      <point x="158" y="411"/>
      <point x="158" y="399" type="curve"/>
      <point x="208" y="399"/>
      <point x="251" y="399"/>
      <point x="301" y="399" type="curve"/>
      <point x="410" y="399"/>
      <point x="487" y="451"/>
      <point x="487" y="555" type="curve"/>
      <point x="487" y="659"/>
      <point x="425" y="722"/>
      <point x="321" y="722" type="curve"/>
      <point x="263" y="722"/>
      <point x="216" y="722"/>
      <point x="158" y="722" type="curve"/>
      <point x="158" y="710"/>
      <point x="158" y="712"/>
    </contour>
    <contour>
      <point x="179" y="0" type="curve"/>
      <point x="179" y="241"/>
      <point x="179" y="481"/>
      <point x="179" y="722" type="curve"/>
      <point x="154" y="722"/>
      <point x="179" y="722"/>
      <point x="154" y="722" type="curve"/>
      <point x="154" y="481"/>
      <point x="154" y="241"/>
      <point x="154" y="0" type="curve"/>
      <point x="179" y="0"/>
      <point x="154" y="0"/>
    </contour>
    <contour>
      <point x="158" y="399" type="curve"/>
      <point x="213" y="399"/>
      <point x="256" y="399"/>
      <point x="311" y="399" type="curve"/>
      <point x="432" y="399"/>
      <point x="504" y="328"/>
      <point x="504" y="204" type="curve"/>
      <point x="504" y="89"/>
      <point x="436" y="22"/>
      <point x="321" y="22" type="curve"/>
      <point x="263" y="22"/>
      <point x="217" y="22"/>
      <point x="158" y="22" type="curve"/>
      <point x="158" y="10"/>
      <point x="158" y="12"/>
      <point x="158" y="0" type="curve"/>
      <point x="217" y="0"/>
      <point x="263" y="0"/>
      <point x="321" y="0" type="curve"/>
      <point x="451" y="0"/>
      <point x="528" y="75"/>
      <point x="528" y="204" type="curve"/>
      <point x="528" y="344"/>
      <point x="442" y="421"/>
      <point x="302" y="421" type="curve"/>
      <point x="251" y="421"/>
      <point x="208" y="421"/>
      <point x="158" y="421" type="curve"/>
      <point x="158" y="409"/>
      <point x="158" y="411"/>
    </contour>
  </outline>
</glyph>
<glyph name="E" format="1">
  <advance width="591"/>
  <unicode hex="0045"/>
  <outline>
    <contour>
      <point x="302" y="825" type="move" name="top"/>
    </contour>
    <contour>
      <point x="538" y="2" type="move" name="bottom"/>
    </contour>
    <contour>
      <point x="541" y="11" type="curve"/>
      <point x="541" y="131"/>
      <point x="541" y="4"/>
      <point x="541" y="124" type="curve"/>
      <point x="519" y="124"/>
      <point x="541" y="124"/>
      <point x="519" y="124" type="curve"/>
      <point x="519" y="4"/>
      <point x="519" y="131"/>
      <point x="519" y="11" type="curve"/>
      <point x="541" y="11"/>
      <point x="519" y="11"/>
    </contour>
    <contour>
      <point x="489" y="711" type="curve"/>
      <point x="489" y="591"/>
      <point x="489" y="718"/>
      <point x="489" y="598" type="curve"/>
      <point x="511" y="598"/>
      <point x="489" y="598"/>
      <point x="511" y="598" type="curve"/>
      <point x="511" y="718"/>
      <point x="511" y="591"/>
      <point x="511" y="711" type="curve"/>
      <point x="489" y="711"/>
      <point x="511" y="711"/>
    </contour>
    <contour>
      <point x="168" y="22" type="curve"/>
      <point x="26" y="22"/>
      <point x="182" y="22"/>
      <point x="41" y="22" type="curve"/>
      <point x="41" y="0"/>
      <point x="41" y="22"/>
      <point x="41" y="0" type="curve"/>
      <point x="88" y="0"/>
      <point x="120" y="0"/>
      <point x="168" y="0" type="curve"/>
      <point x="168" y="22"/>
      <point x="168" y="0"/>
    </contour>
    <contour>
      <point x="168" y="722" type="curve"/>
      <point x="120" y="722"/>
      <point x="88" y="722"/>
      <point x="41" y="722" type="curve"/>
      <point x="41" y="700"/>
      <point x="41" y="722"/>
      <point x="41" y="700" type="curve"/>
      <point x="182" y="700"/>
      <point x="26" y="700"/>
      <point x="168" y="700" type="curve"/>
      <point x="168" y="722"/>
      <point x="168" y="700"/>
    </contour>
    <contour>
      <point x="170" y="363" type="curve"/>
      <point x="266" y="363"/>
      <point x="361" y="363"/>
      <point x="457" y="363" type="curve"/>
      <point x="457" y="385"/>
      <point x="457" y="363"/>
      <point x="457" y="385" type="curve"/>
      <point x="361" y="385"/>
      <point x="266" y="385"/>
      <point x="170" y="385" type="curve"/>
      <point x="170" y="363"/>
      <point x="170" y="385"/>
    </contour>
    <contour>
      <point x="157" y="700" type="curve"/>
      <point x="276" y="700"/>
      <point x="393" y="700"/>
      <point x="511" y="700" type="curve"/>
      <point x="511" y="722"/>
      <point x="511" y="700"/>
      <point x="511" y="722" type="curve"/>
      <point x="393" y="722"/>
      <point x="276" y="722"/>
      <point x="157" y="722" type="curve"/>
      <point x="157" y="700"/>
      <point x="157" y="722"/>
    </contour>
    <contour>
      <point x="179" y="0" type="curve"/>
      <point x="179" y="722" type="line"/>
      <point x="155" y="722"/>
      <point x="179" y="722"/>
      <point x="155" y="722" type="curve"/>
      <point x="155" y="481"/>
      <point x="155" y="241"/>
      <point x="155" y="0" type="curve"/>
      <point x="179" y="0"/>
      <point x="155" y="0"/>
    </contour>
    <contour>
      <point x="157" y="0" type="curve"/>
      <point x="285" y="0"/>
      <point x="413" y="0"/>
      <point x="541" y="0" type="curve"/>
      <point x="541" y="22"/>
      <point x="541" y="0"/>
      <point x="541" y="22" type="curve"/>
      <point x="413" y="22"/>
      <point x="285" y="22"/>
      <point x="157" y="22" type="curve"/>
      <point x="157" y="0"/>
      <point x="157" y="22"/>
    </contour>
  </outline>
</glyph>
<glyph name="G" format="1">
  <advance width="682"/>
  <unicode hex="0047"/>
  <outline>
    <contour>
      <point x="353" y="825" type="move" name="top"/>
    </contour>
    <contour>
      <point x="366" y="-57" type="move" name="bottom"/>
    </contour>
    <contour>
      <point x="574" y="642" type="curve"/>
      <point x="574" y="522"/>
      <point x="574" y="649"/>
      <point x="574" y="529" type="curve"/>
      <point x="596" y="529"/>
      <point x="574" y="529"/>
      <point x="596" y="529" type="curve"/>
      <point x="596" y="649"/>
      <point x="596" y="522"/>
      <point x="596" y="642" type="curve"/>
      <point x="574" y="642"/>
      <point x="596" y="642"/>
    </contour>
    <contour>
      <point x="603" y="319" type="curve"/>
      <point x="539" y="319"/>
      <point x="475" y="319"/>
      <point x="411" y="319" type="curve"/>
      <point x="411" y="297"/>
      <point x="411" y="319"/>
      <point x="411" y="297" type="curve"/>
      <point x="475" y="297"/>
      <point x="539" y="297"/>
      <point x="603" y="297" type="curve"/>
      <point x="603" y="319"/>
      <point x="603" y="297"/>
    </contour>
    <contour>
      <point x="611" y="77" type="curve"/>
      <point x="611" y="158"/>
      <point x="611" y="238"/>
      <point x="611" y="319" type="curve"/>
      <point x="589" y="319"/>
      <point x="611" y="319"/>
      <point x="589" y="319" type="curve"/>
      <point x="589" y="238"/>
      <point x="589" y="158"/>
      <point x="589" y="77" type="curve"/>
      <point x="611" y="77"/>
      <point x="589" y="77"/>
    </contour>
    <contour>
      <point x="596" y="642" type="curve"/>
      <point x="521" y="698"/>
      <point x="448" y="727"/>
      <point x="354" y="727" type="curve"/>
      <point x="153" y="727"/>
      <point x="65" y="581"/>
      <point x="65" y="365" type="curve"/>
      <point x="65" y="143"/>
      <point x="157" y="-5"/>
      <point x="364" y="-5" type="curve"/>
      <point x="464" y="-5"/>
      <point x="527" y="23"/>
      <point x="611" y="77" type="curve"/>
      <point x="597" y="96"/>
      <point x="611" y="77"/>
      <point x="597" y="96" type="curve"/>
      <point x="530" y="50"/>
      <point x="457" y="19"/>
      <point x="364" y="19" type="curve"/>
      <point x="171" y="19"/>
      <point x="90" y="160"/>
      <point x="90" y="367" type="curve"/>
      <point x="90" y="565"/>
      <point x="169" y="703"/>
      <point x="354" y="703" type="curve"/>
      <point x="444" y="703"/>
      <point x="512" y="676"/>
      <point x="584" y="624" type="curve"/>
      <point x="596" y="642"/>
      <point x="584" y="624"/>
    </contour>
  </outline>
</glyph>
<glyph name="J" format="1">
  <advance width="436"/>
  <unicode hex="004A"/>
  <outline>
    <contour>
      <point x="288" y="722" type="curve"/>
      <point x="242" y="722"/>
      <point x="210" y="722"/>
      <point x="164" y="722" type="curve"/>
      <point x="164" y="700"/>
      <point x="164" y="722"/>
      <point x="164" y="700" type="curve"/>
      <point x="303" y="700"/>
      <point x="149" y="700"/>
      <point x="288" y="700" type="curve"/>
      <point x="288" y="722"/>
      <point x="288" y="700"/>
    </contour>
    <contour>
      <point x="288" y="700" type="curve"/>
      <point x="425" y="700"/>
      <point x="274" y="700"/>
      <point x="411" y="700" type="curve"/>
      <point x="411" y="722"/>
      <point x="411" y="700"/>
      <point x="411" y="722" type="curve"/>
      <point x="365" y="722"/>
      <point x="334" y="722"/>
      <point x="288" y="722" type="curve"/>
      <point x="288" y="700"/>
      <point x="288" y="722"/>
    </contour>
    <contour>
      <point x="32" y="39" type="curve"/>
      <point x="60" y="16"/>
      <point x="94" y="-4"/>
      <point x="140" y="-4" type="curve"/>
      <point x="258" y="-4"/>
      <point x="299" y="81"/>
      <point x="299" y="215" type="curve"/>
      <point x="299" y="401"/>
      <point x="299" y="536"/>
      <point x="299" y="722" type="curve"/>
      <point x="286" y="722"/>
      <point x="288" y="722"/>
      <point x="275" y="722" type="curve"/>
      <point x="275" y="536"/>
      <point x="275" y="401"/>
      <point x="275" y="215" type="curve"/>
      <point x="275" y="102"/>
      <point x="244" y="18"/>
      <point x="140" y="18" type="curve"/>
      <point x="100" y="18"/>
      <point x="72" y="37"/>
      <point x="44" y="56" type="curve"/>
      <point x="37" y="47"/>
      <point x="38" y="48"/>
    </contour>
  </outline>
</glyph>
<glyph name="P" format="1">
  <advance width="554"/>
  <unicode hex="0050"/>
  <outline>
    <contour>
      <point x="169" y="722" type="curve"/>
      <point x="121" y="722"/>
      <point x="89" y="722"/>
      <point x="42" y="722" type="curve"/>
      <point x="42" y="700"/>
      <point x="42" y="722"/>
      <point x="42" y="700" type="curve"/>
      <point x="183" y="700"/>
      <point x="27" y="700"/>
      <point x="169" y="700" type="curve"/>
      <point x="169" y="722"/>
      <point x="169" y="700"/>
    </contour>
    <contour>
      <point x="169" y="22" type="curve"/>
      <point x="27" y="22"/>
      <point x="183" y="22"/>
      <point x="42" y="22" type="curve"/>
      <point x="42" y="0"/>
      <point x="42" y="22"/>
      <point x="42" y="0" type="curve"/>
      <point x="89" y="0"/>
      <point x="121" y="0"/>
      <point x="169" y="0" type="curve"/>
      <point x="169" y="22"/>
      <point x="169" y="0"/>
    </contour>
    <contour>
      <point x="169" y="0" type="curve"/>
      <point x="216" y="0"/>
      <point x="154" y="0"/>
      <point x="295" y="0" type="curve"/>
      <point x="295" y="22"/>
      <point x="295" y="0"/>
      <point x="295" y="22" type="curve"/>
      <point x="154" y="22"/>
      <point x="310" y="22"/>
      <point x="169" y="22" type="curve"/>
      <point x="169" y="0"/>
      <point x="169" y="22"/>
    </contour>
    <contour>
      <point x="166" y="325" type="curve"/>
      <point x="208" y="300"/>
      <point x="252" y="280"/>
      <point x="303" y="280" type="curve"/>
      <point x="426" y="282"/>
      <point x="496" y="363"/>
      <point x="496" y="494" type="curve"/>
      <point x="496" y="630"/>
      <point x="416" y="722"/>
      <point x="283" y="722" type="curve"/>
      <point x="246" y="722"/>
      <point x="208" y="722"/>
      <point x="171" y="722" type="curve"/>
      <point x="171" y="700"/>
      <point x="171" y="722"/>
      <point x="171" y="700" type="curve"/>
      <point x="207" y="700"/>
      <point x="244" y="700"/>
      <point x="280" y="700" type="curve"/>
      <point x="401" y="700"/>
      <point x="472" y="617"/>
      <point x="472" y="493" type="curve"/>
      <point x="472" y="381"/>
      <point x="412" y="303"/>
      <point x="305" y="303" type="curve"/>
      <point x="253" y="303"/>
      <point x="218" y="319"/>
      <point x="174" y="346" type="curve"/>
      <point x="166" y="326"/>
      <point x="174" y="345"/>
    </contour>
    <contour>
      <point x="180" y="0" type="curve"/>
      <point x="180" y="241"/>
      <point x="180" y="481"/>
      <point x="180" y="722" type="curve"/>
      <point x="155" y="722"/>
      <point x="180" y="722"/>
      <point x="155" y="722" type="curve"/>
      <point x="155" y="481"/>
      <point x="155" y="241"/>
      <point x="155" y="0" type="curve"/>
      <point x="180" y="0"/>
      <point x="155" y="0"/>
    </contour>
  </outline>
</glyph>
<glyph name="T" format="1">
  <advance width="638"/>
  <unicode hex="0054"/>
  <outline>
    <contour>
      <point x="319" y="825" type="move" name="top"/>
    </contour>
    <contour>
      <point x="323" y="-59" type="move" name="bottom"/>
    </contour>
    <contour>
      <point x="49" y="710" type="curve"/>
      <point x="49" y="590"/>
      <point x="49" y="718"/>
      <point x="49" y="598" type="curve"/>
      <point x="71" y="598"/>
      <point x="49" y="598"/>
      <point x="71" y="598" type="curve"/>
      <point x="71" y="718"/>
      <point x="71" y="590"/>
      <point x="71" y="710" type="curve"/>
      <point x="49" y="710"/>
      <point x="71" y="710"/>
    </contour>
    <contour>
      <point x="568" y="710" type="curve"/>
      <point x="568" y="590"/>
      <point x="568" y="718"/>
      <point x="568" y="598" type="curve"/>
      <point x="590" y="598"/>
      <point x="568" y="598"/>
      <point x="590" y="598" type="curve"/>
      <point x="590" y="718"/>
      <point x="590" y="590"/>
      <point x="590" y="710" type="curve"/>
      <point x="568" y="710"/>
      <point x="590" y="710"/>
    </contour>
    <contour>
      <point x="319" y="0" type="curve"/>
      <point x="364" y="0"/>
      <point x="402" y="0"/>
      <point x="446" y="0" type="curve"/>
      <point x="446" y="22"/>
      <point x="446" y="0"/>
      <point x="446" y="22" type="curve"/>
      <point x="312" y="22"/>
      <point x="453" y="22"/>
      <point x="319" y="22" type="curve"/>
      <point x="319" y="0"/>
      <point x="319" y="22"/>
    </contour>
    <contour>
      <point x="319" y="22" type="curve"/>
      <point x="184" y="22"/>
      <point x="325" y="22"/>
      <point x="191" y="22" type="curve"/>
      <point x="191" y="0"/>
      <point x="191" y="22"/>
      <point x="191" y="0" type="curve"/>
      <point x="236" y="0"/>
      <point x="274" y="0"/>
      <point x="319" y="0" type="curve"/>
      <point x="319" y="22"/>
      <point x="319" y="0"/>
    </contour>
    <contour>
      <point x="331" y="0" type="curve"/>
      <point x="331" y="237"/>
      <point x="331" y="473"/>
      <point x="331" y="710" type="curve"/>
      <point x="307" y="710"/>
      <point x="331" y="710"/>
      <point x="307" y="710" type="curve"/>
      <point x="307" y="473"/>
      <point x="307" y="237"/>
      <point x="307" y="0" type="curve"/>
      <point x="331" y="0"/>
      <point x="307" y="0"/>
    </contour>
    <contour>
      <point x="49" y="698" type="curve"/>
      <point x="229" y="698"/>
      <point x="410" y="698"/>
      <point x="590" y="698" type="curve"/>
      <point x="590" y="722"/>
      <point x="590" y="698"/>
      <point x="590" y="722" type="curve"/>
      <point x="410" y="722"/>
      <point x="229" y="722"/>
      <point x="49" y="722" type="curve"/>
      <point x="49" y="698"/>
      <point x="49" y="722"/>
    </contour>
  </outline>
</glyph>
<glyph name="X" format="1">
  <advance width="683"/>
  <unicode hex="0058"/>
  <outline>
    <contour>
      <point x="125" y="0" type="curve"/>
      <point x="170" y="0"/>
      <point x="118" y="0"/>
      <point x="252" y="0" type="curve"/>
      <point x="252" y="22"/>
      <point x="252" y="0"/>
      <point x="252" y="22" type="curve"/>
      <point x="118" y="22"/>
      <point x="259" y="22"/>
      <point x="125" y="22" type="curve"/>
      <point x="125" y="0"/>
      <point x="125" y="22"/>
    </contour>
    <contour>
      <point x="125" y="22" type="curve"/>
      <point x="-9" y="22"/>
      <point x="132" y="22"/>
      <point x="-2" y="22" type="curve"/>
      <point x="-2" y="0"/>
      <point x="-2" y="22"/>
      <point x="-2" y="0" type="curve"/>
      <point x="43" y="0"/>
      <point x="81" y="0"/>
      <point x="125" y="0" type="curve"/>
      <point x="125" y="22"/>
      <point x="125" y="0"/>
    </contour>
    <contour>
      <point x="555" y="0" type="curve"/>
      <point x="599" y="0"/>
      <point x="638" y="0"/>
      <point x="682" y="0" type="curve"/>
      <point x="682" y="22"/>
      <point x="682" y="0"/>
      <point x="682" y="22" type="curve"/>
      <point x="548" y="22"/>
      <point x="689" y="22"/>
      <point x="555" y="22" type="curve"/>
      <point x="555" y="0"/>
      <point x="555" y="22"/>
    </contour>
    <contour>
      <point x="555" y="22" type="curve"/>
      <point x="421" y="22"/>
      <point x="562" y="22"/>
      <point x="428" y="22" type="curve"/>
      <point x="428" y="0"/>
      <point x="428" y="22"/>
      <point x="428" y="0" type="curve"/>
      <point x="472" y="0"/>
      <point x="511" y="0"/>
      <point x="555" y="0" type="curve"/>
      <point x="555" y="22"/>
      <point x="555" y="0"/>
    </contour>
    <contour>
      <point x="532" y="700" type="curve"/>
      <point x="666" y="700"/>
      <point x="526" y="700"/>
      <point x="660" y="700" type="curve"/>
      <point x="660" y="722"/>
      <point x="660" y="700"/>
      <point x="660" y="722" type="curve"/>
      <point x="615" y="722"/>
      <point x="577" y="722"/>
      <point x="532" y="722" type="curve"/>
      <point x="532" y="700"/>
      <point x="532" y="722"/>
    </contour>
    <contour>
      <point x="532" y="722" type="curve"/>
      <point x="488" y="722"/>
      <point x="450" y="722"/>
      <point x="405" y="722" type="curve"/>
      <point x="405" y="700"/>
      <point x="405" y="722"/>
      <point x="405" y="700" type="curve"/>
      <point x="539" y="700"/>
      <point x="399" y="700"/>
      <point x="532" y="700" type="curve"/>
      <point x="532" y="722"/>
      <point x="532" y="700"/>
    </contour>
    <contour>
      <point x="151" y="722" type="curve"/>
      <point x="107" y="722"/>
      <point x="69" y="722"/>
      <point x="24" y="722" type="curve"/>
      <point x="24" y="700"/>
      <point x="24" y="722"/>
      <point x="24" y="700" type="curve"/>
      <point x="158" y="700"/>
      <point x="18" y="700"/>
      <point x="151" y="700" type="curve"/>
      <point x="151" y="722"/>
      <point x="151" y="700"/>
    </contour>
    <contour>
      <point x="151" y="700" type="curve"/>
      <point x="285" y="700"/>
      <point x="145" y="700"/>
      <point x="279" y="700" type="curve"/>
      <point x="279" y="722"/>
      <point x="279" y="700"/>
      <point x="279" y="722" type="curve"/>
      <point x="234" y="722"/>
      <point x="196" y="722"/>
      <point x="151" y="722" type="curve"/>
      <point x="151" y="700"/>
      <point x="151" y="722"/>
    </contour>
    <contour>
      <point x="532" y="722" type="curve"/>
      <point x="387" y="481"/>
      <point x="242" y="241"/>
      <point x="97" y="0" type="curve"/>
      <point x="128" y="0"/>
      <point x="97" y="0"/>
      <point x="128" y="0" type="curve"/>
      <point x="272" y="241"/>
      <point x="416" y="481"/>
      <point x="560" y="722" type="curve"/>
      <point x="532" y="722"/>
      <point x="560" y="722"/>
    </contour>
    <contour>
      <point x="126" y="722" type="curve"/>
      <point x="269" y="481"/>
      <point x="412" y="241"/>
      <point x="555" y="0" type="curve"/>
      <point x="585" y="0"/>
      <point x="555" y="0"/>
      <point x="585" y="0" type="curve"/>
      <point x="442" y="241"/>
      <point x="298" y="481"/>
      <point x="154" y="722" type="curve"/>
      <point x="126" y="722"/>
      <point x="154" y="722"/>
    </contour>
  </outline>
</glyph>
<glyph name="Z" format="1">
  <advance width="590"/>
  <unicode hex="005A"/>
  <outline>
    <contour>
      <point x="300" y="825" type="move" name="top"/>
    </contour>
    <contour>
      <point x="79" y="711" type="curve"/>
      <point x="79" y="591"/>
      <point x="79" y="718"/>
      <point x="79" y="598" type="curve"/>
      <point x="100" y="598"/>
      <point x="79" y="598"/>
      <point x="100" y="598" type="curve"/>
      <point x="100" y="718"/>
      <point x="100" y="591"/>
      <point x="100" y="711" type="curve"/>
      <point x="79" y="711"/>
      <point x="100" y="711"/>
    </contour>
    <contour>
      <point x="547" y="11" type="curve"/>
      <point x="547" y="131"/>
      <point x="547" y="4"/>
      <point x="547" y="124" type="curve"/>
      <point x="526" y="124"/>
      <point x="547" y="124"/>
      <point x="526" y="124" type="curve"/>
      <point x="526" y="4"/>
      <point x="526" y="131"/>
      <point x="526" y="11" type="curve"/>
      <point x="547" y="11"/>
      <point x="526" y="11"/>
    </contour>
    <contour>
      <point x="79" y="700" type="curve"/>
      <point x="220" y="700"/>
      <point x="360" y="700"/>
      <point x="502" y="700" type="curve"/>
      <point x="500" y="703"/>
      <point x="497" y="705"/>
      <point x="495" y="707" type="curve"/>
      <point x="493" y="708"/>
      <point x="492" y="711"/>
      <point x="490" y="712" type="curve"/>
      <point x="487" y="708"/>
      <point x="485" y="705"/>
      <point x="482" y="701" type="curve"/>
      <point x="42" y="22" type="line"/>
      <point x="42" y="10"/>
      <point x="42" y="22"/>
      <point x="42" y="10" type="curve"/>
      <point x="42" y="0"/>
      <point x="42" y="10"/>
      <point x="42" y="0" type="curve"/>
      <point x="48" y="0"/>
      <point x="42" y="0"/>
      <point x="48" y="0" type="curve"/>
      <point x="553" y="0"/>
      <point x="379" y="0"/>
      <point x="547" y="0" type="curve"/>
      <point x="547" y="22"/>
      <point x="547" y="0"/>
      <point x="547" y="22" type="curve"/>
      <point x="379" y="22"/>
      <point x="216" y="22"/>
      <point x="48" y="22" type="curve"/>
      <point x="50" y="20"/>
      <point x="52" y="18"/>
      <point x="54" y="16" type="curve"/>
      <point x="57" y="15"/>
      <point x="58" y="11"/>
      <point x="61" y="10" type="curve"/>
      <point x="63" y="14"/>
      <point x="66" y="17"/>
      <point x="69" y="21" type="curve"/>
      <point x="510" y="700" type="line"/>
      <point x="510" y="712"/>
      <point x="510" y="700"/>
      <point x="510" y="712" type="curve"/>
      <point x="510" y="722"/>
      <point x="510" y="712"/>
      <point x="510" y="722" type="curve"/>
      <point x="502" y="722"/>
      <point x="510" y="722"/>
      <point x="502" y="722" type="curve"/>
      <point x="360" y="722"/>
      <point x="220" y="722"/>
      <point x="79" y="722" type="curve"/>
      <point x="79" y="700"/>
      <point x="79" y="722"/>
    </contour>
  </outline>
</glyph>
<glyph name="i" format="1">
  <advance width="289"/>
  <unicode hex="0069"/>
  <outline>
    <contour>
      <point x="161" y="670" type="move" name="top"/>
    </contour>
    <contour>
      <point x="175" y="0" type="move" name="bottom"/>
    </contour>
    <contour>
      <point x="162" y="22" type="curve"/>
      <point x="28" y="22"/>
      <point x="168" y="22"/>
      <point x="35" y="22" type="curve"/>
      <point x="35" y="0"/>
      <point x="35" y="22"/>
      <point x="35" y="0" type="curve"/>
      <point x="79" y="0"/>
      <point x="117" y="0"/>
      <point x="162" y="0" type="curve"/>
      <point x="162" y="22"/>
      <point x="162" y="0"/>
    </contour>
    <contour>
      <point x="162" y="0" type="curve"/>
      <point x="203" y="0"/>
      <point x="238" y="0"/>
      <point x="280" y="0" type="curve"/>
      <point x="280" y="22"/>
      <point x="280" y="0"/>
      <point x="280" y="22" type="curve"/>
      <point x="155" y="22"/>
      <point x="287" y="22"/>
      <point x="162" y="22" type="curve"/>
      <point x="162" y="0"/>
      <point x="162" y="22"/>
    </contour>
    <contour>
      <point x="162" y="533" type="curve"/>
      <point x="117" y="533"/>
      <point x="79" y="533"/>
      <point x="35" y="533" type="curve"/>
      <point x="35" y="511"/>
      <point x="35" y="533"/>
      <point x="35" y="511" type="curve"/>
      <point x="168" y="511"/>
      <point x="28" y="511"/>
      <point x="162" y="511" type="curve"/>
      <point x="162" y="533"/>
      <point x="162" y="511"/>
    </contour>
    <contour>
      <point x="175" y="0" type="curve"/>
      <point x="175" y="178"/>
      <point x="175" y="355"/>
      <point x="175" y="533" type="curve"/>
      <point x="149" y="533"/>
      <point x="175" y="533"/>
      <point x="149" y="533" type="curve"/>
      <point x="149" y="355"/>
      <point x="149" y="178"/>
      <point x="149" y="0" type="curve"/>
      <point x="175" y="0"/>
      <point x="149" y="0"/>
    </contour>
    <contour>
      <point x="178" y="685" type="curve"/>
      <point x="178" y="696"/>
      <point x="171" y="702"/>
      <point x="160" y="702" type="curve"/>
      <point x="149" y="702"/>
      <point x="143" y="695"/>
      <point x="143" y="685" type="curve"/>
      <point x="172" y="685"/>
      <point x="149" y="685"/>
      <point x="178" y="685" type="curve"/>
      <point x="178" y="674"/>
      <point x="171" y="667"/>
      <point x="160" y="667" type="curve"/>
      <point x="149" y="667"/>
      <point x="143" y="674"/>
      <point x="143" y="685" type="curve"/>
      <point x="172" y="685"/>
      <point x="149" y="685"/>
    </contour>
  </outline>
</glyph>
<glyph name="x" format="1">
  <advance width="625"/>
  <unicode hex="0078"/>
  <outline>
    <contour>
      <point x="132" y="22" type="curve"/>
      <point x="-2" y="22"/>
      <point x="139" y="22"/>
      <point x="5" y="22" type="curve"/>
      <point x="5" y="0"/>
      <point x="5" y="22"/>
      <point x="5" y="0" type="curve"/>
      <point x="49" y="0"/>
      <point x="88" y="0"/>
      <point x="132" y="0" type="curve"/>
      <point x="132" y="22"/>
      <point x="132" y="0"/>
    </contour>
    <contour>
      <point x="492" y="22" type="curve"/>
      <point x="367" y="22"/>
      <point x="504" y="22"/>
      <point x="379" y="22" type="curve"/>
      <point x="379" y="0"/>
      <point x="379" y="22"/>
      <point x="379" y="0" type="curve"/>
      <point x="421" y="0"/>
      <point x="450" y="0"/>
      <point x="492" y="0" type="curve"/>
      <point x="492" y="22"/>
      <point x="492" y="0"/>
    </contour>
    <contour>
      <point x="492" y="0" type="curve"/>
      <point x="536" y="0"/>
      <point x="575" y="0"/>
      <point x="619" y="0" type="curve"/>
      <point x="619" y="22"/>
      <point x="619" y="0"/>
      <point x="619" y="22" type="curve"/>
      <point x="485" y="22"/>
      <point x="626" y="22"/>
      <point x="492" y="22" type="curve"/>
      <point x="492" y="0"/>
      <point x="492" y="22"/>
    </contour>
    <contour>
      <point x="132" y="0" type="curve"/>
      <point x="173" y="0"/>
      <point x="120" y="0"/>
      <point x="245" y="0" type="curve"/>
      <point x="245" y="22"/>
      <point x="245" y="0"/>
      <point x="245" y="22" type="curve"/>
      <point x="120" y="22"/>
      <point x="257" y="22"/>
      <point x="132" y="22" type="curve"/>
      <point x="132" y="0"/>
      <point x="132" y="22"/>
    </contour>
    <contour>
      <point x="477" y="511" type="curve"/>
      <point x="612" y="511"/>
      <point x="471" y="511"/>
      <point x="605" y="511" type="curve"/>
      <point x="605" y="533"/>
      <point x="605" y="511"/>
      <point x="605" y="533" type="curve"/>
      <point x="560" y="533"/>
      <point x="522" y="533"/>
      <point x="477" y="533" type="curve"/>
      <point x="477" y="511"/>
      <point x="477" y="533"/>
    </contour>
    <contour>
      <point x="150" y="533" type="curve"/>
      <point x="105" y="533"/>
      <point x="67" y="533"/>
      <point x="22" y="533" type="curve"/>
      <point x="22" y="511"/>
      <point x="22" y="533"/>
      <point x="22" y="511" type="curve"/>
      <point x="156" y="511"/>
      <point x="16" y="511"/>
      <point x="150" y="511" type="curve"/>
      <point x="150" y="533"/>
      <point x="150" y="511"/>
    </contour>
    <contour>
      <point x="150" y="511" type="curve"/>
      <point x="273" y="511"/>
      <point x="131" y="511"/>
      <point x="255" y="511" type="curve"/>
      <point x="255" y="533"/>
      <point x="255" y="511"/>
      <point x="255" y="533" type="curve"/>
      <point x="213" y="533"/>
      <point x="191" y="533"/>
      <point x="150" y="533" type="curve"/>
      <point x="150" y="511"/>
      <point x="150" y="533"/>
    </contour>
    <contour>
      <point x="477" y="533" type="curve"/>
      <point x="436" y="533"/>
      <point x="413" y="533"/>
      <point x="372" y="533" type="curve"/>
      <point x="372" y="511"/>
      <point x="372" y="533"/>
      <point x="372" y="511" type="curve"/>
      <point x="496" y="511"/>
      <point x="354" y="511"/>
      <point x="477" y="511" type="curve"/>
      <point x="477" y="533"/>
      <point x="477" y="511"/>
    </contour>
    <contour>
      <point x="518" y="0" type="curve"/>
      <point x="396" y="178"/>
      <point x="276" y="355"/>
      <point x="154" y="533" type="curve"/>
      <point x="126" y="533"/>
      <point x="154" y="533"/>
      <point x="126" y="533" type="curve"/>
      <point x="247" y="355"/>
      <point x="368" y="178"/>
      <point x="487" y="0" type="curve"/>
      <point x="518" y="0"/>
      <point x="487" y="0"/>
    </contour>
    <contour>
      <point x="475" y="533" type="curve"/>
      <point x="352" y="355"/>
      <point x="229" y="178"/>
      <point x="107" y="0" type="curve"/>
      <point x="138" y="0"/>
      <point x="107" y="0"/>
      <point x="138" y="0" type="curve"/>
      <point x="259" y="178"/>
      <point x="381" y="355"/>
      <point x="503" y="533" type="curve"/>
      <point x="475" y="533"/>
      <point x="503" y="533"/>
    </contour>
  </outline>
</glyph>
<glyph name="braceleft" format="1">
  <advance width="289"/>
  <unicode hex="007B"/>
  <outline>
    <contour>
      <point x="241" y="-102" type="curve"/>
      <point x="174" y="-102"/>
      <point x="151" y="-47"/>
      <point x="151" y="26" type="curve"/>
      <point x="151" y="85"/>
      <point x="151" y="144"/>
      <point x="151" y="203" type="curve"/>
      <point x="151" y="287"/>
      <point x="118" y="350"/>
      <point x="40" y="350" type="curve"/>
      <point x="40" y="327"/>
      <point x="40" y="350"/>
      <point x="40" y="327" type="curve"/>
      <point x="104" y="327"/>
      <point x="129" y="275"/>
      <point x="129" y="205" type="curve"/>
      <point x="129" y="146"/>
      <point x="129" y="86"/>
      <point x="129" y="27" type="curve"/>
      <point x="129" y="-59"/>
      <point x="162" y="-124"/>
      <point x="241" y="-124" type="curve"/>
      <point x="241" y="-102"/>
      <point x="241" y="-124"/>
    </contour>
    <contour>
      <point x="241" y="800" type="curve"/>
      <point x="162" y="800"/>
      <point x="129" y="737"/>
      <point x="129" y="650" type="curve"/>
      <point x="129" y="590"/>
      <point x="129" y="530"/>
      <point x="129" y="470" type="curve"/>
      <point x="129" y="400"/>
      <point x="104" y="350"/>
      <point x="40" y="350" type="curve"/>
      <point x="40" y="327"/>
      <point x="40" y="350"/>
      <point x="40" y="327" type="curve"/>
      <point x="117" y="327"/>
      <point x="151" y="389"/>
      <point x="151" y="473" type="curve"/>
      <point x="151" y="532"/>
      <point x="151" y="591"/>
      <point x="151" y="650" type="curve"/>
      <point x="151" y="723"/>
      <point x="174" y="778"/>
      <point x="241" y="778" type="curve"/>
      <point x="241" y="800"/>
      <point x="241" y="778"/>
    </contour>
  </outline>
</glyph>
<glyph name="yen" format="1">
  <advance width="739"/>
  <unicode hex="00A5"/>
  <outline>
    <contour>
      <point x="564" y="371" type="curve"/>
      <point x="502" y="371"/>
      <point x="441" y="371"/>
      <point x="380" y="371" type="curve"/>
      <point x="380" y="347"/>
      <point x="380" y="371"/>
      <point x="380" y="347" type="curve"/>
      <point x="441" y="347"/>
      <point x="502" y="347"/>
      <point x="564" y="347" type="curve"/>
      <point x="564" y="371"/>
      <point x="564" y="347"/>
    </contour>
    <contour>
      <point x="355" y="371" type="curve"/>
      <point x="294" y="371"/>
      <point x="234" y="371"/>
      <point x="174" y="371" type="curve"/>
      <point x="174" y="347"/>
      <point x="174" y="371"/>
      <point x="174" y="347" type="curve"/>
      <point x="234" y="347"/>
      <point x="294" y="347"/>
      <point x="355" y="347" type="curve"/>
      <point x="355" y="371"/>
      <point x="355" y="347"/>
    </contour>
    <contour>
      <point x="564" y="252" type="curve"/>
      <point x="434" y="252"/>
      <point x="304" y="252"/>
      <point x="174" y="252" type="curve"/>
      <point x="174" y="228"/>
      <point x="174" y="252"/>
      <point x="174" y="228" type="curve"/>
      <point x="304" y="228"/>
      <point x="434" y="228"/>
      <point x="564" y="228" type="curve"/>
      <point x="564" y="252"/>
      <point x="564" y="228"/>
    </contour>
    <contour>
      <point x="364" y="22" type="curve"/>
      <point x="222" y="22"/>
      <point x="371" y="22"/>
      <point x="229" y="22" type="curve"/>
      <point x="229" y="0"/>
      <point x="229" y="22"/>
      <point x="229" y="0" type="curve"/>
      <point x="276" y="0"/>
      <point x="317" y="0"/>
      <point x="364" y="0" type="curve"/>
      <point x="364" y="22"/>
      <point x="364" y="0"/>
    </contour>
    <contour>
      <point x="364" y="0" type="curve"/>
      <point x="411" y="0"/>
      <point x="452" y="0"/>
      <point x="499" y="0" type="curve"/>
      <point x="499" y="22"/>
      <point x="499" y="0"/>
      <point x="499" y="22" type="curve"/>
      <point x="357" y="22"/>
      <point x="506" y="22"/>
      <point x="364" y="22" type="curve"/>
      <point x="364" y="0"/>
      <point x="364" y="22"/>
    </contour>
    <contour>
      <point x="570" y="722" type="curve"/>
      <point x="523" y="722"/>
      <point x="482" y="722"/>
      <point x="435" y="722" type="curve"/>
      <point x="435" y="700"/>
      <point x="435" y="722"/>
      <point x="435" y="700" type="curve"/>
      <point x="576" y="700"/>
      <point x="428" y="700"/>
      <point x="570" y="700" type="curve"/>
      <point x="570" y="722"/>
      <point x="570" y="700"/>
    </contour>
    <contour>
      <point x="170" y="722" type="curve"/>
      <point x="123" y="722"/>
      <point x="81" y="722"/>
      <point x="35" y="722" type="curve"/>
      <point x="35" y="700"/>
      <point x="35" y="722"/>
      <point x="35" y="700" type="curve"/>
      <point x="176" y="700"/>
      <point x="28" y="700"/>
      <point x="170" y="700" type="curve"/>
      <point x="170" y="722"/>
      <point x="170" y="700"/>
    </contour>
    <contour>
      <point x="170" y="700" type="curve"/>
      <point x="311" y="700"/>
      <point x="163" y="700"/>
      <point x="305" y="700" type="curve"/>
      <point x="305" y="722"/>
      <point x="305" y="700"/>
      <point x="305" y="722" type="curve"/>
      <point x="258" y="722"/>
      <point x="216" y="722"/>
      <point x="170" y="722" type="curve"/>
      <point x="170" y="700"/>
      <point x="170" y="722"/>
    </contour>
    <contour>
      <point x="570" y="700" type="curve"/>
      <point x="711" y="700"/>
      <point x="563" y="700"/>
      <point x="705" y="700" type="curve"/>
      <point x="705" y="722"/>
      <point x="705" y="700"/>
      <point x="705" y="722" type="curve"/>
      <point x="658" y="722"/>
      <point x="617" y="722"/>
      <point x="570" y="722" type="curve"/>
      <point x="570" y="700"/>
      <point x="570" y="722"/>
    </contour>
    <contour>
      <point x="146" y="722" type="curve"/>
      <point x="214" y="594"/>
      <point x="283" y="465"/>
      <point x="351" y="336" type="curve"/>
      <point x="376" y="336"/>
      <point x="351" y="336"/>
      <point x="376" y="336" type="curve"/>
      <point x="308" y="465"/>
      <point x="240" y="594"/>
      <point x="172" y="722" type="curve"/>
      <point x="146" y="722"/>
      <point x="172" y="722"/>
    </contour>
    <contour>
      <point x="567" y="722" type="curve"/>
      <point x="495" y="593"/>
      <point x="423" y="465"/>
      <point x="351" y="336" type="curve"/>
      <point x="376" y="336"/>
      <point x="351" y="336"/>
      <point x="376" y="336" type="curve"/>
      <point x="449" y="465"/>
      <point x="521" y="594"/>
      <point x="593" y="722" type="curve"/>
      <point x="567" y="722"/>
      <point x="593" y="722"/>
    </contour>
    <contour>
      <point x="376" y="0" type="curve"/>
      <point x="376" y="114"/>
      <point x="376" y="229"/>
      <point x="376" y="343" type="curve"/>
      <point x="351" y="343"/>
      <point x="376" y="343"/>
      <point x="351" y="343" type="curve"/>
      <point x="351" y="229"/>
      <point x="351" y="114"/>
      <point x="351" y="0" type="curve"/>
      <point x="376" y="0"/>
      <point x="351" y="0"/>
    </contour>
  </outline>
</glyph>
<glyph name="brokenbar" format="1">
  <advance width="212"/>
  <unicode hex="00A6"/>
  <outline>
    <contour>
      <point x="118" y="-300" type="curve"/>
      <point x="118" y="-176"/>
      <point x="118" y="-52"/>
      <point x="118" y="72" type="curve"/>
      <point x="94" y="72"/>
      <point x="118" y="72"/>
      <point x="94" y="72" type="curve"/>
      <point x="94" y="-52"/>
      <point x="94" y="-176"/>
      <point x="94" y="-300" type="curve"/>
      <point x="118" y="-300"/>
      <point x="94" y="-300"/>
    </contour>
    <contour>
      <point x="118" y="428" type="curve"/>
      <point x="118" y="552"/>
      <point x="118" y="676"/>
      <point x="118" y="800" type="curve"/>
      <point x="94" y="800"/>
      <point x="118" y="800"/>
      <point x="94" y="800" type="curve"/>
      <point x="94" y="676"/>
      <point x="94" y="552"/>
      <point x="94" y="428" type="curve"/>
      <point x="118" y="428"/>
      <point x="94" y="428"/>
    </contour>
  </outline>
</glyph>
<glyph name="dieresis" format="1">
  <advance width="348"/>
  <unicode hex="00A8"/>
  <outline>
    <contour>
      <point x="125" y="654" type="move" name="_top"/>
    </contour>
    <contour>
      <point x="90" y="669" type="curve"/>
      <point x="90" y="680"/>
      <point x="82" y="686"/>
      <point x="71" y="686" type="curve"/>
      <point x="60" y="686"/>
      <point x="54" y="679"/>
      <point x="54" y="669" type="curve"/>
      <point x="83" y="669"/>
      <point x="60" y="669"/>
      <point x="90" y="669" type="curve"/>
      <point x="90" y="658"/>
      <point x="82" y="652"/>
      <point x="71" y="652" type="curve"/>
      <point x="60" y="652"/>
      <point x="54" y="658"/>
      <point x="54" y="669" type="curve"/>
      <point x="83" y="669"/>
      <point x="60" y="669"/>
    </contour>
    <contour>
      <point x="194" y="669" type="curve"/>
      <point x="194" y="680"/>
      <point x="187" y="686"/>
      <point x="176" y="686" type="curve"/>
      <point x="165" y="686"/>
      <point x="158" y="679"/>
      <point x="158" y="669" type="curve"/>
      <point x="188" y="669"/>
      <point x="165" y="669"/>
      <point x="194" y="669" type="curve"/>
      <point x="194" y="658"/>
      <point x="187" y="652"/>
      <point x="176" y="652" type="curve"/>
      <point x="165" y="652"/>
      <point x="158" y="658"/>
      <point x="158" y="669" type="curve"/>
      <point x="188" y="669"/>
      <point x="165" y="669"/>
    </contour>
  </outline>
</glyph>
<glyph name="guillemotleft" format="1">
  <advance width="585"/>
  <unicode hex="00AB"/>
  <outline>
    <contour>
      <point x="290" y="399" type="curve"/>
      <point x="76" y="288" type="line"/>
      <point x="76" y="264"/>
      <point x="76" y="288"/>
      <point x="76" y="264" type="curve"/>
      <point x="290" y="375" type="line"/>
      <point x="290" y="399"/>
      <point x="290" y="375"/>
    </contour>
    <contour>
      <point x="290" y="177" type="curve"/>
      <point x="76" y="288" type="line"/>
      <point x="76" y="264"/>
      <point x="76" y="288"/>
      <point x="76" y="264" type="curve"/>
      <point x="290" y="154" type="line"/>
      <point x="290" y="177"/>
      <point x="290" y="154"/>
    </contour>
    <contour>
      <point x="487" y="399" type="curve"/>
      <point x="274" y="288" type="line"/>
      <point x="274" y="264"/>
      <point x="274" y="288"/>
      <point x="274" y="264" type="curve"/>
      <point x="487" y="375" type="line"/>
      <point x="487" y="399"/>
      <point x="487" y="375"/>
    </contour>
    <contour>
      <point x="488" y="177" type="curve"/>
      <point x="274" y="288" type="line"/>
      <point x="274" y="264"/>
      <point x="274" y="288"/>
      <point x="274" y="264" type="curve"/>
      <point x="488" y="154" type="line"/>
      <point x="488" y="177"/>
      <point x="488" y="154"/>
    </contour>
  </outline>
</glyph>
<glyph name="degree" format="1">
  <advance width="434"/>
  <unicode hex="00B0"/>
  <outline>
    <contour>
      <point x="361" y="431" type="curve"/>
      <point x="361" y="548"/>
      <point x="323" y="638"/>
      <point x="217" y="638" type="curve"/>
      <point x="111" y="638"/>
      <point x="73" y="548"/>
      <point x="73" y="433" type="curve"/>
      <point x="96" y="433"/>
      <point x="73" y="433"/>
      <point x="96" y="433" type="curve"/>
      <point x="96" y="535"/>
      <point x="121" y="617"/>
      <point x="214" y="617" type="curve"/>
      <point x="308" y="617"/>
      <point x="338" y="535"/>
      <point x="338" y="431" type="curve"/>
      <point x="338" y="324"/>
      <point x="312" y="238"/>
      <point x="217" y="238" type="curve"/>
      <point x="121" y="238"/>
      <point x="96" y="326"/>
      <point x="96" y="433" type="curve"/>
      <point x="73" y="433"/>
      <point x="96" y="433"/>
      <point x="73" y="433" type="curve"/>
      <point x="73" y="312"/>
      <point x="107" y="217"/>
      <point x="216" y="217" type="curve"/>
      <point x="325" y="217"/>
      <point x="361" y="311"/>
    </contour>
  </outline>
</glyph>
<glyph name="Aring" format="1">
  <advance width="717"/>
  <unicode hex="00C5"/>
  <outline>
    <contour>
      <point x="101" y="22" type="curve"/>
      <point x="-38" y="22"/>
      <point x="116" y="22"/>
      <point x="-23" y="22" type="curve"/>
      <point x="-23" y="0"/>
      <point x="-23" y="22"/>
      <point x="-23" y="0" type="curve"/>
      <point x="23" y="0"/>
      <point x="55" y="0"/>
      <point x="101" y="0" type="curve"/>
      <point x="101" y="22"/>
      <point x="101" y="0"/>
    </contour>
    <contour>
      <point x="101" y="0" type="curve"/>
      <point x="150" y="0"/>
      <point x="86" y="0"/>
      <point x="231" y="0" type="curve"/>
      <point x="231" y="22"/>
      <point x="231" y="0"/>
      <point x="231" y="22" type="curve"/>
      <point x="86" y="22"/>
      <point x="245" y="22"/>
      <point x="101" y="22" type="curve"/>
      <point x="101" y="0"/>
      <point x="101" y="22"/>
    </contour>
    <contour>
      <point x="578" y="0" type="curve"/>
      <point x="625" y="0"/>
      <point x="656" y="0"/>
      <point x="703" y="0" type="curve"/>
      <point x="703" y="22"/>
      <point x="703" y="0"/>
      <point x="703" y="22" type="curve"/>
      <point x="564" y="22"/>
      <point x="717" y="22"/>
      <point x="578" y="22" type="curve"/>
      <point x="578" y="0"/>
      <point x="578" y="22"/>
    </contour>
    <contour>
      <point x="578" y="22" type="curve"/>
      <point x="433" y="22"/>
      <point x="593" y="22"/>
      <point x="448" y="22" type="curve"/>
      <point x="448" y="0"/>
      <point x="448" y="22"/>
      <point x="448" y="0" type="curve"/>
      <point x="496" y="0"/>
      <point x="530" y="0"/>
      <point x="578" y="0" type="curve"/>
      <point x="578" y="22"/>
      <point x="578" y="0"/>
    </contour>
    <contour>
      <point x="499" y="277" type="curve"/>
      <point x="397" y="277"/>
      <point x="296" y="277"/>
      <point x="195" y="277" type="curve"/>
      <point x="185" y="254"/>
      <point x="195" y="277"/>
      <point x="185" y="254" type="curve"/>
      <point x="292" y="254"/>
      <point x="399" y="254"/>
      <point x="506" y="254" type="curve"/>
      <point x="499" y="277"/>
      <point x="506" y="254"/>
    </contour>
    <contour>
      <point x="601" y="0" type="curve"/>
      <point x="522" y="241"/>
      <point x="444" y="481"/>
      <point x="365" y="722" type="curve"/>
      <point x="343" y="722"/>
      <point x="365" y="722"/>
      <point x="343" y="722" type="curve"/>
      <point x="421" y="481"/>
      <point x="498" y="241"/>
      <point x="575" y="0" type="curve"/>
      <point x="601" y="0"/>
      <point x="575" y="0"/>
    </contour>
    <contour>
      <point x="104" y="0" type="curve"/>
      <point x="190" y="241"/>
      <point x="277" y="481"/>
      <point x="363" y="722" type="curve"/>
      <point x="341" y="722"/>
      <point x="363" y="722"/>
      <point x="341" y="722" type="curve"/>
      <point x="254" y="481"/>
      <point x="165" y="241"/>
      <point x="77" y="0" type="curve"/>
      <point x="104" y="0"/>
      <point x="77" y="0"/>
    </contour>
    <contour>
      <point x="252" y="940" type="curve"/>
      <point x="252" y="872"/>
      <point x="287" y="824"/>
      <point x="353" y="824" type="curve"/>
      <point x="420" y="824"/>
      <point x="456" y="870"/>
      <point x="456" y="940" type="curve"/>
      <point x="456" y="1010"/>
      <point x="419" y="1057"/>
      <point x="350" y="1057" type="curve"/>
      <point x="286" y="1057"/>
      <point x="252" y="1009"/>
      <point x="252" y="940" type="curve"/>
      <point x="275" y="940"/>
      <point x="252" y="940"/>
      <point x="275" y="940" type="curve"/>
      <point x="275" y="995"/>
      <point x="299" y="1035"/>
      <point x="350" y="1035" type="curve"/>
      <point x="405" y="1035"/>
      <point x="432" y="997"/>
      <point x="432" y="940" type="curve"/>
      <point x="432" y="884"/>
      <point x="406" y="845"/>
      <point x="353" y="845" type="curve"/>
      <point x="300" y="845"/>
      <point x="275" y="884"/>
      <point x="275" y="940" type="curve"/>
      <point x="252" y="940"/>
      <point x="275" y="940"/>
    </contour>
  </outline>
</glyph>
<glyph name="Idieresis" format="1">
  <advance width="335"/>
  <unicode hex="00CF"/>
  <outline>
    <contour>
      <point x="168" y="722" type="curve"/>
      <point x="120" y="722"/>
      <point x="88" y="722"/>
      <point x="41" y="722" type="curve"/>
      <point x="41" y="700"/>
      <point x="41" y="722"/>
      <point x="41" y="700" type="curve"/>
      <point x="182" y="700"/>
      <point x="26" y="700"/>
      <point x="168" y="700" type="curve"/>
      <point x="168" y="722"/>
      <point x="168" y="700"/>
    </contour>
    <contour>
      <point x="168" y="700" type="curve"/>
      <point x="310" y="700"/>
      <point x="153" y="700"/>
      <point x="295" y="700" type="curve"/>
      <point x="295" y="722"/>
      <point x="295" y="700"/>
      <point x="295" y="722" type="curve"/>
      <point x="247" y="722"/>
      <point x="215" y="722"/>
      <point x="168" y="722" type="curve"/>
      <point x="168" y="700"/>
      <point x="168" y="722"/>
    </contour>
    <contour>
      <point x="168" y="0" type="curve"/>
      <point x="215" y="0"/>
      <point x="247" y="0"/>
      <point x="295" y="0" type="curve"/>
      <point x="295" y="22"/>
      <point x="295" y="0"/>
      <point x="295" y="22" type="curve"/>
      <point x="153" y="22"/>
      <point x="310" y="22"/>
      <point x="168" y="22" type="curve"/>
      <point x="168" y="0"/>
      <point x="168" y="22"/>
    </contour>
    <contour>
      <point x="168" y="22" type="curve"/>
      <point x="26" y="22"/>
      <point x="182" y="22"/>
      <point x="41" y="22" type="curve"/>
      <point x="41" y="0"/>
      <point x="41" y="22"/>
      <point x="41" y="0" type="curve"/>
      <point x="88" y="0"/>
      <point x="120" y="0"/>
      <point x="168" y="0" type="curve"/>
      <point x="168" y="22"/>
      <point x="168" y="0"/>
    </contour>
    <contour>
      <point x="179" y="0" type="curve"/>
      <point x="179" y="241"/>
      <point x="179" y="481"/>
      <point x="179" y="722" type="curve"/>
      <point x="155" y="722"/>
      <point x="179" y="722"/>
      <point x="155" y="722" type="curve"/>
      <point x="155" y="481"/>
      <point x="155" y="241"/>
      <point x="155" y="0" type="curve"/>
      <point x="179" y="0"/>
      <point x="155" y="0"/>
    </contour>
    <contour>
      <point x="133" y="840" type="curve"/>
      <point x="133" y="851"/>
      <point x="126" y="857"/>
      <point x="115" y="857" type="curve"/>
      <point x="104" y="857"/>
      <point x="97" y="850"/>
      <point x="97" y="840" type="curve"/>
      <point x="127" y="840"/>
      <point x="104" y="840"/>
      <point x="133" y="840" type="curve"/>
      <point x="133" y="829"/>
      <point x="126" y="823"/>
      <point x="115" y="823" type="curve"/>
      <point x="104" y="823"/>
      <point x="97" y="829"/>
      <point x="97" y="840" type="curve"/>
      <point x="127" y="840"/>
      <point x="104" y="840"/>
    </contour>
    <contour>
      <point x="238" y="840" type="curve"/>
      <point x="238" y="851"/>
      <point x="230" y="857"/>
      <point x="219" y="857" type="curve"/>
      <point x="208" y="857"/>
      <point x="202" y="850"/>
      <point x="202" y="840" type="curve"/>
      <point x="231" y="840"/>
      <point x="208" y="840"/>
      <point x="238" y="840" type="curve"/>
      <point x="238" y="829"/>
      <point x="230" y="823"/>
      <point x="219" y="823" type="curve"/>
      <point x="208" y="823"/>
      <point x="202" y="829"/>
      <point x="202" y="840" type="curve"/>
      <point x="231" y="840"/>
      <point x="208" y="840"/>
    </contour>
  </outline>
</glyph>
<glyph name="Ntilde" format="1">
  <advance width="790"/>
  <unicode hex="00D1"/>
  <outline>
    <contour>
      <point x="169" y="722" type="curve"/>
      <point x="122" y="722"/>
      <point x="89" y="722"/>
      <point x="42" y="722" type="curve"/>
      <point x="42" y="700"/>
      <point x="42" y="722"/>
      <point x="42" y="700" type="curve"/>
      <point x="184" y="700"/>
      <point x="27" y="700"/>
      <point x="169" y="700" type="curve"/>
      <point x="169" y="722"/>
      <point x="169" y="700"/>
    </contour>
    <contour>
      <point x="640" y="700" type="curve"/>
      <point x="782" y="700"/>
      <point x="625" y="700"/>
      <point x="767" y="700" type="curve"/>
      <point x="767" y="722"/>
      <point x="767" y="700"/>
      <point x="767" y="722" type="curve"/>
      <point x="720" y="722"/>
      <point x="687" y="722"/>
      <point x="640" y="722" type="curve"/>
      <point x="640" y="700"/>
      <point x="640" y="722"/>
    </contour>
    <contour>
      <point x="640" y="722" type="curve"/>
      <point x="593" y="722"/>
      <point x="560" y="722"/>
      <point x="513" y="722" type="curve"/>
      <point x="513" y="700"/>
      <point x="513" y="722"/>
      <point x="513" y="700" type="curve"/>
      <point x="655" y="700"/>
      <point x="498" y="700"/>
      <point x="640" y="700" type="curve"/>
      <point x="640" y="722"/>
      <point x="640" y="700"/>
    </contour>
    <contour>
      <point x="168" y="22" type="curve"/>
      <point x="26" y="22"/>
      <point x="183" y="22"/>
      <point x="41" y="22" type="curve"/>
      <point x="41" y="0"/>
      <point x="41" y="22"/>
      <point x="41" y="0" type="curve"/>
      <point x="88" y="0"/>
      <point x="120" y="0"/>
      <point x="168" y="0" type="curve"/>
      <point x="168" y="22"/>
      <point x="168" y="0"/>
    </contour>
    <contour>
      <point x="168" y="0" type="curve"/>
      <point x="215" y="0"/>
      <point x="153" y="0"/>
      <point x="295" y="0" type="curve"/>
      <point x="295" y="22"/>
      <point x="295" y="0"/>
      <point x="295" y="22" type="curve"/>
      <point x="153" y="22"/>
      <point x="310" y="22"/>
      <point x="168" y="22" type="curve"/>
      <point x="168" y="0"/>
      <point x="168" y="22"/>
    </contour>
    <contour>
      <point x="651" y="0" type="curve"/>
      <point x="495" y="241"/>
      <point x="339" y="481"/>
      <point x="184" y="722" type="curve"/>
      <point x="154" y="722"/>
      <point x="183" y="722"/>
      <point x="154" y="722" type="curve"/>
      <point x="310" y="481"/>
      <point x="466" y="241"/>
      <point x="621" y="0" type="curve"/>
      <point x="650" y="0"/>
      <point x="622" y="0"/>
    </contour>
    <contour>
      <point x="627" y="722" type="curve"/>
      <point x="627" y="481"/>
      <point x="627" y="241"/>
      <point x="627" y="0" type="curve"/>
      <point x="651" y="0"/>
      <point x="627" y="0"/>
      <point x="651" y="0" type="curve"/>
      <point x="651" y="241"/>
      <point x="651" y="481"/>
      <point x="651" y="722" type="curve"/>
      <point x="627" y="722"/>
      <point x="651" y="722"/>
    </contour>
    <contour>
      <point x="180" y="0" type="curve"/>
      <point x="180" y="241"/>
      <point x="180" y="481"/>
      <point x="180" y="722" type="curve"/>
      <point x="156" y="722"/>
      <point x="180" y="722"/>
      <point x="156" y="722" type="curve"/>
      <point x="156" y="481"/>
      <point x="156" y="241"/>
      <point x="156" y="0" type="curve"/>
      <point x="180" y="0"/>
      <point x="156" y="0"/>
    </contour>
    <contour>
      <point x="554" y="949" type="curve"/>
      <point x="542" y="897"/>
      <point x="532" y="846"/>
      <point x="491" y="846" type="curve"/>
      <point x="456" y="846"/>
      <point x="437" y="866"/>
      <point x="416" y="895" type="curve"/>
      <point x="391" y="926"/>
      <point x="371" y="950"/>
      <point x="332" y="950" type="curve"/>
      <point x="271" y="950"/>
      <point x="254" y="896"/>
      <point x="242" y="831" type="curve"/>
      <point x="262" y="825"/>
      <point x="242" y="831"/>
      <point x="262" y="825" type="curve"/>
      <point x="272" y="880"/>
      <point x="284" y="928"/>
      <point x="332" y="928" type="curve"/>
      <point x="364" y="928"/>
      <point x="378" y="906"/>
      <point x="398" y="881" type="curve"/>
      <point x="424" y="848"/>
      <point x="447" y="825"/>
      <point x="489" y="825" type="curve"/>
      <point x="549" y="825"/>
      <point x="560" y="882"/>
      <point x="574" y="945" type="curve"/>
      <point x="554" y="949"/>
      <point x="574" y="945"/>
    </contour>
  </outline>
</glyph>
<glyph name="Otilde" format="1">
  <advance width="664"/>
  <unicode hex="00D5"/>
  <outline>
    <contour>
      <point x="93" y="360" type="curve"/>
      <point x="93" y="552"/>
      <point x="155" y="704"/>
      <point x="331" y="704" type="curve"/>
      <point x="506" y="704"/>
      <point x="572" y="554"/>
      <point x="572" y="363" type="curve"/>
      <point x="572" y="173"/>
      <point x="509" y="18"/>
      <point x="334" y="18" type="curve"/>
      <point x="157" y="18"/>
      <point x="93" y="168"/>
      <point x="93" y="360" type="curve"/>
      <point x="68" y="360"/>
      <point x="93" y="360"/>
      <point x="68" y="360" type="curve"/>
      <point x="68" y="153"/>
      <point x="143" y="-5"/>
      <point x="333" y="-5" type="curve"/>
      <point x="522" y="-5"/>
      <point x="596" y="155"/>
      <point x="596" y="363" type="curve"/>
      <point x="596" y="569"/>
      <point x="522" y="727"/>
      <point x="332" y="727" type="curve"/>
      <point x="142" y="727"/>
      <point x="68" y="567"/>
      <point x="68" y="360" type="curve"/>
      <point x="93" y="360"/>
      <point x="68" y="360"/>
    </contour>
    <contour>
      <point x="477" y="949" type="curve"/>
      <point x="465" y="897"/>
      <point x="455" y="846"/>
      <point x="415" y="846" type="curve"/>
      <point x="379" y="846"/>
      <point x="361" y="866"/>
      <point x="339" y="895" type="curve"/>
      <point x="314" y="926"/>
      <point x="295" y="950"/>
      <point x="255" y="950" type="curve"/>
      <point x="194" y="950"/>
      <point x="177" y="896"/>
      <point x="166" y="831" type="curve"/>
      <point x="185" y="825"/>
      <point x="166" y="831"/>
      <point x="185" y="825" type="curve"/>
      <point x="196" y="880"/>
      <point x="208" y="928"/>
      <point x="255" y="928" type="curve"/>
      <point x="288" y="928"/>
      <point x="302" y="906"/>
      <point x="321" y="881" type="curve"/>
      <point x="347" y="848"/>
      <point x="371" y="825"/>
      <point x="413" y="825" type="curve"/>
      <point x="473" y="825"/>
      <point x="484" y="882"/>
      <point x="498" y="945" type="curve"/>
      <point x="477" y="949"/>
      <point x="498" y="945"/>
    </contour>
  </outline>
</glyph>
<glyph name="multiply" format="1">
  <advance width="532"/>
  <unicode hex="00D7"/>
  <outline>
    <contour>
      <point x="97" y="123" type="line"/>
      <point x="450" y="477" type="line"/>
      <point x="433" y="494" type="line"/>
      <point x="80" y="140" type="line"/>
    </contour>
    <contour>
      <point x="452" y="140" type="line"/>
      <point x="97" y="494" type="line"/>
      <point x="80" y="477" type="line"/>
      <point x="435" y="123" type="line"/>
    </contour>
  </outline>
</glyph>
<glyph name="Udieresis" format="1">
  <advance width="742"/>
  <unicode hex="00DC"/>
  <outline>
    <contour>
      <point x="589" y="700" type="curve"/>
      <point x="723" y="700"/>
      <point x="583" y="700"/>
      <point x="717" y="700" type="curve"/>
      <point x="717" y="722"/>
      <point x="717" y="700"/>
      <point x="717" y="722" type="curve"/>
      <point x="672" y="722"/>
      <point x="634" y="722"/>
      <point x="589" y="722" type="curve"/>
      <point x="589" y="700"/>
      <point x="589" y="722"/>
    </contour>
    <contour>
      <point x="589" y="722" type="curve"/>
      <point x="545" y="722"/>
      <point x="507" y="722"/>
      <point x="462" y="722" type="curve"/>
      <point x="462" y="700"/>
      <point x="462" y="722"/>
      <point x="462" y="700" type="curve"/>
      <point x="596" y="700"/>
      <point x="456" y="700"/>
      <point x="589" y="700" type="curve"/>
      <point x="589" y="722"/>
      <point x="589" y="700"/>
    </contour>
    <contour>
      <point x="153" y="722" type="curve"/>
      <point x="109" y="722"/>
      <point x="71" y="722"/>
      <point x="26" y="722" type="curve"/>
      <point x="26" y="700"/>
      <point x="26" y="722"/>
      <point x="26" y="700" type="curve"/>
      <point x="160" y="700"/>
      <point x="20" y="700"/>
      <point x="153" y="700" type="curve"/>
      <point x="153" y="722"/>
      <point x="153" y="700"/>
    </contour>
    <contour>
      <point x="153" y="700" type="curve"/>
      <point x="287" y="700"/>
      <point x="147" y="700"/>
      <point x="280" y="700" type="curve"/>
      <point x="280" y="722"/>
      <point x="280" y="700"/>
      <point x="280" y="722" type="curve"/>
      <point x="236" y="722"/>
      <point x="198" y="722"/>
      <point x="153" y="722" type="curve"/>
      <point x="153" y="700"/>
      <point x="153" y="722"/>
    </contour>
    <contour>
      <point x="139" y="721" type="curve"/>
      <point x="139" y="563"/>
      <point x="139" y="429"/>
      <point x="139" y="271" type="curve"/>
      <point x="139" y="96"/>
      <point x="205" y="-5"/>
      <point x="372" y="-5" type="curve"/>
      <point x="535" y="-5"/>
      <point x="601" y="93"/>
      <point x="601" y="263" type="curve"/>
      <point x="601" y="424"/>
      <point x="601" y="561"/>
      <point x="601" y="721" type="curve"/>
      <point x="583" y="721"/>
      <point x="597" y="721"/>
      <point x="578" y="721" type="curve"/>
      <point x="578" y="559"/>
      <point x="578" y="421"/>
      <point x="578" y="259" type="curve"/>
      <point x="578" y="108"/>
      <point x="517" y="19"/>
      <point x="374" y="19" type="curve"/>
      <point x="220" y="19"/>
      <point x="162" y="114"/>
      <point x="162" y="275" type="curve"/>
      <point x="162" y="432"/>
      <point x="162" y="565"/>
      <point x="162" y="721" type="curve"/>
      <point x="144" y="721"/>
      <point x="158" y="721"/>
    </contour>
    <contour>
      <point x="340" y="840" type="curve"/>
      <point x="340" y="851"/>
      <point x="332" y="857"/>
      <point x="321" y="857" type="curve"/>
      <point x="310" y="857"/>
      <point x="304" y="850"/>
      <point x="304" y="840" type="curve"/>
      <point x="333" y="840"/>
      <point x="310" y="840"/>
      <point x="340" y="840" type="curve"/>
      <point x="340" y="829"/>
      <point x="332" y="823"/>
      <point x="321" y="823" type="curve"/>
      <point x="310" y="823"/>
      <point x="304" y="829"/>
      <point x="304" y="840" type="curve"/>
      <point x="333" y="840"/>
      <point x="310" y="840"/>
    </contour>
    <contour>
      <point x="444" y="840" type="curve"/>
      <point x="444" y="851"/>
      <point x="437" y="857"/>
      <point x="426" y="857" type="curve"/>
      <point x="415" y="857"/>
      <point x="408" y="850"/>
      <point x="408" y="840" type="curve"/>
      <point x="438" y="840"/>
      <point x="415" y="840"/>
      <point x="444" y="840" type="curve"/>
      <point x="444" y="829"/>
      <point x="437" y="823"/>
      <point x="426" y="823" type="curve"/>
      <point x="415" y="823"/>
      <point x="408" y="829"/>
      <point x="408" y="840" type="curve"/>
      <point x="438" y="840"/>
      <point x="415" y="840"/>
    </contour>
  </outline>
</glyph>
<glyph name="germandbls" format="1">
  <advance width="531"/>
  <unicode hex="00DF"/>
  <outline>
    <contour>
      <point x="134" y="22" type="curve"/>
      <point x="0" y="22"/>
      <point x="141" y="22"/>
      <point x="7" y="22" type="curve"/>
      <point x="7" y="0"/>
      <point x="7" y="22"/>
      <point x="7" y="0" type="curve"/>
      <point x="52" y="0"/>
      <point x="90" y="0"/>
      <point x="134" y="0" type="curve"/>
      <point x="134" y="22"/>
      <point x="134" y="0"/>
    </contour>
    <contour>
      <point x="134" y="0" type="curve"/>
      <point x="179" y="0"/>
      <point x="202" y="0"/>
      <point x="247" y="0" type="curve"/>
      <point x="247" y="22"/>
      <point x="247" y="0"/>
      <point x="247" y="22" type="curve"/>
      <point x="114" y="22"/>
      <point x="267" y="22"/>
      <point x="134" y="22" type="curve"/>
      <point x="134" y="0"/>
      <point x="134" y="22"/>
    </contour>
    <contour>
      <point x="145" y="0" type="curve"/>
      <point x="145" y="207"/>
      <point x="145" y="412"/>
      <point x="145" y="619" type="curve"/>
      <point x="121" y="619"/>
      <point x="145" y="619"/>
      <point x="121" y="619" type="curve"/>
      <point x="121" y="412"/>
      <point x="121" y="207"/>
      <point x="121" y="0" type="curve"/>
      <point x="145" y="0"/>
      <point x="121" y="0"/>
    </contour>
    <contour>
      <point x="145" y="619" type="curve"/>
      <point x="145" y="715"/>
      <point x="191" y="783"/>
      <point x="281" y="783" type="curve"/>
      <point x="372" y="783"/>
      <point x="428" y="723"/>
      <point x="428" y="627" type="curve"/>
      <point x="428" y="532"/>
      <point x="364" y="471"/>
      <point x="269" y="471" type="curve"/>
      <point x="269" y="453"/>
      <point x="269" y="471"/>
      <point x="269" y="453" type="curve"/>
      <point x="379" y="453"/>
      <point x="450" y="518"/>
      <point x="450" y="628" type="curve"/>
      <point x="450" y="737"/>
      <point x="389" y="805"/>
      <point x="283" y="805" type="curve"/>
      <point x="177" y="805"/>
      <point x="121" y="729"/>
      <point x="121" y="619" type="curve"/>
      <point x="145" y="619"/>
      <point x="121" y="619"/>
    </contour>
    <contour>
      <point x="353" y="87" type="curve"/>
      <point x="437" y="111"/>
      <point x="479" y="173"/>
      <point x="479" y="273" type="curve"/>
      <point x="479" y="396"/>
      <point x="403" y="471"/>
      <point x="269" y="471" type="curve"/>
      <point x="269" y="453"/>
      <point x="269" y="471"/>
      <point x="269" y="453" type="curve"/>
      <point x="372" y="453"/>
      <point x="456" y="388"/>
      <point x="456" y="272" type="curve"/>
      <point x="456" y="186"/>
      <point x="414" y="131"/>
      <point x="346" y="108" type="curve"/>
      <point x="353" y="87"/>
      <point x="346" y="108"/>
    </contour>
  </outline>
</glyph>
<glyph name="adieresis" format="1">
  <advance width="502"/>
  <unicode hex="00E4"/>
  <outline>
    <contour>
      <point x="78" y="464" type="curve"/>
      <point x="78" y="344"/>
      <point x="78" y="471"/>
      <point x="78" y="351" type="curve"/>
      <point x="99" y="351"/>
      <point x="78" y="351"/>
      <point x="99" y="351" type="curve"/>
      <point x="99" y="471"/>
      <point x="99" y="344"/>
      <point x="99" y="464" type="curve"/>
      <point x="78" y="464"/>
      <point x="99" y="464"/>
    </contour>
    <contour>
      <point x="393" y="0" type="curve"/>
      <point x="393" y="130"/>
      <point x="393" y="260"/>
      <point x="393" y="390" type="curve"/>
      <point x="393" y="492"/>
      <point x="343" y="538"/>
      <point x="246" y="538" type="curve"/>
      <point x="169" y="538"/>
      <point x="117" y="503"/>
      <point x="78" y="464" type="curve"/>
      <point x="92" y="447"/>
      <point x="78" y="464"/>
      <point x="92" y="447" type="curve"/>
      <point x="124" y="478"/>
      <point x="175" y="516"/>
      <point x="243" y="516" type="curve"/>
      <point x="328" y="516"/>
      <point x="368" y="475"/>
      <point x="368" y="383" type="curve"/>
      <point x="368" y="255"/>
      <point x="368" y="128"/>
      <point x="368" y="0" type="curve"/>
      <point x="393" y="0"/>
      <point x="368" y="0"/>
    </contour>
    <contour>
      <point x="382" y="0" type="curve"/>
      <point x="424" y="0"/>
      <point x="459" y="0"/>
      <point x="501" y="0" type="curve"/>
      <point x="501" y="22"/>
      <point x="501" y="0"/>
      <point x="501" y="22" type="curve"/>
      <point x="375" y="22"/>
      <point x="508" y="22"/>
      <point x="382" y="22" type="curve"/>
      <point x="382" y="0"/>
      <point x="382" y="22"/>
    </contour>
    <contour>
      <point x="378" y="321" type="curve"/>
      <point x="311" y="310"/>
      <point x="275" y="305"/>
      <point x="206" y="294" type="curve"/>
      <point x="120" y="279"/>
      <point x="65" y="233"/>
      <point x="65" y="141" type="curve"/>
      <point x="65" y="51"/>
      <point x="105" y="-5"/>
      <point x="196" y="-5" type="curve"/>
      <point x="298" y="-5"/>
      <point x="343" y="66"/>
      <point x="389" y="150" type="curve"/>
      <point x="374" y="164"/>
      <point x="389" y="151"/>
      <point x="374" y="165" type="curve"/>
      <point x="336" y="90"/>
      <point x="288" y="17"/>
      <point x="201" y="17" type="curve"/>
      <point x="121" y="17"/>
      <point x="89" y="65"/>
      <point x="89" y="143" type="curve"/>
      <point x="89" y="221"/>
      <point x="134" y="262"/>
      <point x="205" y="274" type="curve"/>
      <point x="275" y="285"/>
      <point x="311" y="290"/>
      <point x="380" y="301" type="curve"/>
      <point x="378" y="321"/>
      <point x="380" y="301"/>
    </contour>
    <contour>
      <point x="210" y="686" type="curve"/>
      <point x="210" y="697"/>
      <point x="203" y="703"/>
      <point x="192" y="703" type="curve"/>
      <point x="181" y="703"/>
      <point x="174" y="696"/>
      <point x="174" y="686" type="curve"/>
      <point x="204" y="686"/>
      <point x="181" y="686"/>
      <point x="210" y="686" type="curve"/>
      <point x="210" y="675"/>
      <point x="203" y="669"/>
      <point x="192" y="669" type="curve"/>
      <point x="181" y="669"/>
      <point x="174" y="675"/>
      <point x="174" y="686" type="curve"/>
      <point x="204" y="686"/>
      <point x="181" y="686"/>
    </contour>
    <contour>
      <point x="315" y="686" type="curve"/>
      <point x="315" y="697"/>
      <point x="308" y="703"/>
      <point x="296" y="703" type="curve"/>
      <point x="285" y="703"/>
      <point x="279" y="696"/>
      <point x="279" y="686" type="curve"/>
      <point x="309" y="686"/>
      <point x="285" y="686"/>
      <point x="315" y="686" type="curve"/>
      <point x="315" y="675"/>
      <point x="308" y="669"/>
      <point x="296" y="669" type="curve"/>
      <point x="285" y="669"/>
      <point x="279" y="675"/>
      <point x="279" y="686" type="curve"/>
      <point x="309" y="686"/>
      <point x="285" y="686"/>
    </contour>
  </outline>
</glyph>
<glyph name="egrave" format="1">
  <advance width="493"/>
  <unicode hex="00E8"/>
  <outline>
    <contour>
      <point x="81" y="273" type="curve"/>
      <point x="195" y="273"/>
      <point x="309" y="273"/>
      <point x="422" y="273" type="curve"/>
      <point x="426" y="273"/>
      <point x="422" y="273"/>
      <point x="426" y="273" type="curve"/>
      <point x="426" y="276"/>
      <point x="426" y="273"/>
      <point x="426" y="276" type="curve"/>
      <point x="426" y="285"/>
      <point x="426" y="294"/>
      <point x="426" y="303" type="curve"/>
      <point x="426" y="442"/>
      <point x="378" y="538"/>
      <point x="253" y="538" type="curve"/>
      <point x="116" y="538"/>
      <point x="68" y="432"/>
      <point x="68" y="281" type="curve"/>
      <point x="68" y="114"/>
      <point x="121" y="-5"/>
      <point x="270" y="-5" type="curve"/>
      <point x="337" y="-5"/>
      <point x="380" y="24"/>
      <point x="426" y="75" type="curve"/>
      <point x="408" y="90"/>
      <point x="426" y="75"/>
      <point x="408" y="90" type="curve"/>
      <point x="368" y="45"/>
      <point x="328" y="17"/>
      <point x="270" y="17" type="curve"/>
      <point x="139" y="17"/>
      <point x="93" y="128"/>
      <point x="93" y="281" type="curve"/>
      <point x="93" y="417"/>
      <point x="133" y="516"/>
      <point x="251" y="516" type="curve"/>
      <point x="362" y="516"/>
      <point x="403" y="429"/>
      <point x="403" y="305" type="curve"/>
      <point x="403" y="295"/>
      <point x="403" y="286"/>
      <point x="403" y="276" type="curve"/>
      <point x="406" y="279"/>
      <point x="410" y="282"/>
      <point x="413" y="285" type="curve"/>
      <point x="416" y="289"/>
      <point x="419" y="291"/>
      <point x="422" y="295" type="curve"/>
      <point x="309" y="295"/>
      <point x="195" y="295"/>
      <point x="81" y="295" type="curve"/>
      <point x="81" y="273"/>
      <point x="81" y="295"/>
    </contour>
    <contour>
      <point x="266" y="671" type="line"/>
      <point x="168" y="837" type="line"/>
      <point x="135" y="837" type="line"/>
      <point x="241" y="671" type="line"/>
    </contour>
  </outline>
</glyph>
<glyph name="ntilde" format="1">
  <advance width="616"/>
  <unicode hex="00F1"/>
  <outline>
    <contour>
      <point x="168" y="344" type="curve"/>
      <point x="187" y="442"/>
      <point x="262" y="516"/>
      <point x="344" y="516" type="curve"/>
      <point x="437" y="516"/>
      <point x="474" y="444"/>
      <point x="474" y="341" type="curve"/>
      <point x="474" y="228"/>
      <point x="474" y="114"/>
      <point x="474" y="0" type="curve"/>
      <point x="498" y="0"/>
      <point x="474" y="0"/>
      <point x="498" y="0" type="curve"/>
      <point x="498" y="115"/>
      <point x="498" y="229"/>
      <point x="498" y="344" type="curve"/>
      <point x="498" y="459"/>
      <point x="456" y="538"/>
      <point x="348" y="538" type="curve"/>
      <point x="253" y="538"/>
      <point x="173" y="467"/>
      <point x="156" y="359" type="curve"/>
      <point x="169" y="347"/>
      <point x="154" y="356"/>
    </contour>
    <contour>
      <point x="485" y="0" type="curve"/>
      <point x="529" y="0"/>
      <point x="568" y="0"/>
      <point x="612" y="0" type="curve"/>
      <point x="612" y="22"/>
      <point x="612" y="0"/>
      <point x="612" y="22" type="curve"/>
      <point x="478" y="22"/>
      <point x="618" y="22"/>
      <point x="485" y="22" type="curve"/>
      <point x="485" y="0"/>
      <point x="485" y="22"/>
    </contour>
    <contour>
      <point x="162" y="22" type="curve"/>
      <point x="28" y="22"/>
      <point x="168" y="22"/>
      <point x="35" y="22" type="curve"/>
      <point x="35" y="0"/>
      <point x="35" y="22"/>
      <point x="35" y="0" type="curve"/>
      <point x="79" y="0"/>
      <point x="117" y="0"/>
      <point x="162" y="0" type="curve"/>
      <point x="162" y="22"/>
      <point x="162" y="0"/>
    </contour>
    <contour>
      <point x="162" y="0" type="curve"/>
      <point x="200" y="0"/>
      <point x="150" y="0"/>
      <point x="268" y="0" type="curve"/>
      <point x="268" y="22"/>
      <point x="268" y="0"/>
      <point x="268" y="22" type="curve"/>
      <point x="150" y="22"/>
      <point x="279" y="22"/>
      <point x="162" y="22" type="curve"/>
      <point x="162" y="0"/>
      <point x="162" y="22"/>
    </contour>
    <contour>
      <point x="174" y="0" type="curve"/>
      <point x="174" y="178"/>
      <point x="174" y="355"/>
      <point x="174" y="533" type="curve"/>
      <point x="150" y="533"/>
      <point x="174" y="533"/>
      <point x="150" y="533" type="curve"/>
      <point x="150" y="355"/>
      <point x="150" y="178"/>
      <point x="150" y="0" type="curve"/>
      <point x="174" y="0"/>
      <point x="150" y="0"/>
    </contour>
    <contour>
      <point x="162" y="533" type="curve"/>
      <point x="117" y="533"/>
      <point x="79" y="533"/>
      <point x="35" y="533" type="curve"/>
      <point x="35" y="511"/>
      <point x="35" y="533"/>
      <point x="35" y="511" type="curve"/>
      <point x="168" y="511"/>
      <point x="28" y="511"/>
      <point x="162" y="511" type="curve"/>
      <point x="162" y="533"/>
      <point x="162" y="511"/>
    </contour>
    <contour>
      <point x="481" y="794" type="curve"/>
      <point x="469" y="742"/>
      <point x="459" y="691"/>
      <point x="418" y="691" type="curve"/>
      <point x="383" y="691"/>
      <point x="365" y="712"/>
      <point x="343" y="740" type="curve"/>
      <point x="318" y="771"/>
      <point x="299" y="795"/>
      <point x="259" y="795" type="curve"/>
      <point x="198" y="795"/>
      <point x="181" y="742"/>
      <point x="169" y="676" type="curve"/>
      <point x="189" y="670"/>
      <point x="169" y="676"/>
      <point x="189" y="670" type="curve"/>
      <point x="200" y="726"/>
      <point x="212" y="773"/>
      <point x="259" y="773" type="curve"/>
      <point x="292" y="773"/>
      <point x="306" y="752"/>
      <point x="325" y="726" type="curve"/>
      <point x="351" y="693"/>
      <point x="374" y="670"/>
      <point x="416" y="670" type="curve"/>
      <point x="477" y="670"/>
      <point x="487" y="727"/>
      <point x="501" y="790" type="curve"/>
      <point x="481" y="794"/>
      <point x="501" y="790"/>
    </contour>
  </outline>
</glyph>
<glyph name="Ccaron" format="1">
  <advance width="612"/>
  <unicode hex="010C"/>
  <outline>
    <contour>
      <point x="526" y="655" type="curve"/>
      <point x="526" y="535"/>
      <point x="526" y="655"/>
      <point x="526" y="535" type="curve"/>
      <point x="548" y="535"/>
      <point x="526" y="535"/>
      <point x="548" y="535" type="curve"/>
      <point x="548" y="655"/>
      <point x="548" y="535"/>
      <point x="548" y="655" type="curve"/>
      <point x="526" y="655"/>
      <point x="548" y="655"/>
    </contour>
    <contour>
      <point x="548" y="655" type="curve"/>
      <point x="491" y="695"/>
      <point x="427" y="727"/>
      <point x="350" y="727" type="curve"/>
      <point x="147" y="727"/>
      <point x="68" y="568"/>
      <point x="68" y="344" type="curve"/>
      <point x="68" y="139"/>
      <point x="143" y="-5"/>
      <point x="332" y="-5" type="curve"/>
      <point x="432" y="-5"/>
      <point x="494" y="32"/>
      <point x="565" y="96" type="curve"/>
      <point x="549" y="113"/>
      <point x="564" y="96"/>
      <point x="548" y="113" type="curve"/>
      <point x="484" y="53"/>
      <point x="425" y="20"/>
      <point x="333" y="20" type="curve"/>
      <point x="159" y="20"/>
      <point x="92" y="156"/>
      <point x="92" y="345" type="curve"/>
      <point x="92" y="552"/>
      <point x="164" y="703"/>
      <point x="349" y="703" type="curve"/>
      <point x="421" y="703"/>
      <point x="482" y="676"/>
      <point x="535" y="638" type="curve"/>
      <point x="548" y="655"/>
      <point x="535" y="638"/>
    </contour>
    <contour>
      <point x="442" y="991" type="line"/>
      <point x="335" y="825" type="line"/>
      <point x="369" y="825" type="line"/>
      <point x="467" y="991" type="line"/>
    </contour>
    <contour>
      <point x="228" y="991" type="line"/>
      <point x="326" y="825" type="line"/>
      <point x="359" y="825" type="line"/>
      <point x="253" y="991" type="line"/>
    </contour>
  </outline>
</glyph>
<glyph name="Dcroat" format="1">
  <advance width="683"/>
  <unicode hex="0110"/>
  <outline>
    <contour>
      <point x="169" y="22" type="curve"/>
      <point x="27" y="22"/>
      <point x="183" y="22"/>
      <point x="42" y="22" type="curve"/>
      <point x="42" y="0"/>
      <point x="42" y="22"/>
      <point x="42" y="0" type="curve"/>
      <point x="89" y="0"/>
      <point x="121" y="0"/>
      <point x="169" y="0" type="curve"/>
      <point x="169" y="22"/>
      <point x="169" y="0"/>
    </contour>
    <contour>
      <point x="169" y="722" type="curve"/>
      <point x="121" y="722"/>
      <point x="89" y="722"/>
      <point x="42" y="722" type="curve"/>
      <point x="42" y="700"/>
      <point x="42" y="722"/>
      <point x="42" y="700" type="curve"/>
      <point x="183" y="700"/>
      <point x="27" y="700"/>
      <point x="169" y="700" type="curve"/>
      <point x="169" y="722"/>
      <point x="169" y="700"/>
    </contour>
    <contour>
      <point x="155" y="722" type="curve"/>
      <point x="155" y="481"/>
      <point x="155" y="241"/>
      <point x="155" y="0" type="curve"/>
      <point x="179" y="0"/>
      <point x="155" y="0"/>
      <point x="179" y="0" type="curve"/>
      <point x="179" y="241"/>
      <point x="179" y="481"/>
      <point x="179" y="722" type="curve"/>
      <point x="155" y="722"/>
      <point x="179" y="722"/>
    </contour>
    <contour>
      <point x="169" y="0" type="curve"/>
      <point x="226" y="0"/>
      <point x="270" y="0"/>
      <point x="327" y="0" type="curve"/>
      <point x="530" y="0"/>
      <point x="619" y="141"/>
      <point x="619" y="354" type="curve"/>
      <point x="619" y="576"/>
      <point x="525" y="722"/>
      <point x="316" y="722" type="curve"/>
      <point x="263" y="722"/>
      <point x="221" y="722"/>
      <point x="169" y="722" type="curve"/>
      <point x="169" y="710"/>
      <point x="169" y="712"/>
      <point x="169" y="700" type="curve"/>
      <point x="221" y="700"/>
      <point x="262" y="700"/>
      <point x="315" y="700" type="curve"/>
      <point x="511" y="700"/>
      <point x="596" y="562"/>
      <point x="596" y="354" type="curve"/>
      <point x="596" y="155"/>
      <point x="517" y="22"/>
      <point x="329" y="22" type="curve"/>
      <point x="272" y="22"/>
      <point x="226" y="22"/>
      <point x="169" y="22" type="curve"/>
      <point x="169" y="10"/>
      <point x="169" y="12"/>
    </contour>
    <contour>
      <point x="77" y="387" type="curve"/>
      <point x="163" y="387"/>
      <point x="248" y="387"/>
      <point x="333" y="387" type="curve"/>
      <point x="333" y="411"/>
      <point x="333" y="387"/>
      <point x="333" y="411" type="curve"/>
      <point x="248" y="411"/>
      <point x="163" y="411"/>
      <point x="77" y="411" type="curve"/>
      <point x="77" y="387"/>
      <point x="77" y="411"/>
    </contour>
  </outline>
</glyph>
<glyph name="dcroat" format="1">
  <advance width="579"/>
  <unicode hex="0111"/>
  <outline>
    <contour>
      <point x="444" y="800" type="curve"/>
      <point x="397" y="800"/>
      <point x="364" y="800"/>
      <point x="317" y="800" type="curve"/>
      <point x="317" y="778"/>
      <point x="317" y="800"/>
      <point x="317" y="778" type="curve"/>
      <point x="459" y="778"/>
      <point x="302" y="778"/>
      <point x="444" y="778" type="curve"/>
      <point x="444" y="800"/>
      <point x="444" y="778"/>
    </contour>
    <contour>
      <point x="445" y="0" type="curve"/>
      <point x="493" y="0"/>
      <point x="525" y="0"/>
      <point x="573" y="0" type="curve"/>
      <point x="573" y="22"/>
      <point x="573" y="0"/>
      <point x="573" y="22" type="curve"/>
      <point x="431" y="22"/>
      <point x="587" y="22"/>
      <point x="445" y="22" type="curve"/>
      <point x="445" y="0"/>
      <point x="445" y="22"/>
    </contour>
    <contour>
      <point x="452" y="441" type="curve"/>
      <point x="416" y="499"/>
      <point x="354" y="538"/>
      <point x="276" y="538" type="curve"/>
      <point x="132" y="538"/>
      <point x="62" y="418"/>
      <point x="62" y="264" type="curve"/>
      <point x="62" y="112"/>
      <point x="135" y="-5"/>
      <point x="279" y="-5" type="curve"/>
      <point x="362" y="-5"/>
      <point x="415" y="46"/>
      <point x="452" y="126" type="curve"/>
      <point x="437" y="141"/>
      <point x="452" y="126"/>
      <point x="437" y="141" type="curve"/>
      <point x="401" y="66"/>
      <point x="350" y="17"/>
      <point x="278" y="17" type="curve"/>
      <point x="150" y="17"/>
      <point x="86" y="126"/>
      <point x="86" y="265" type="curve"/>
      <point x="86" y="405"/>
      <point x="149" y="516"/>
      <point x="277" y="516" type="curve"/>
      <point x="344" y="516"/>
      <point x="404" y="481"/>
      <point x="437" y="425" type="curve"/>
      <point x="452" y="441"/>
      <point x="437" y="425"/>
    </contour>
    <contour>
      <point x="457" y="0" type="curve"/>
      <point x="457" y="267"/>
      <point x="457" y="533"/>
      <point x="457" y="800" type="curve"/>
      <point x="432" y="800"/>
      <point x="457" y="800"/>
      <point x="432" y="800" type="curve"/>
      <point x="432" y="533"/>
      <point x="432" y="267"/>
      <point x="432" y="0" type="curve"/>
      <point x="457" y="0"/>
      <point x="432" y="0"/>
    </contour>
    <contour>
      <point x="268" y="657" type="curve"/>
      <point x="359" y="657"/>
      <point x="450" y="657"/>
      <point x="539" y="657" type="curve"/>
      <point x="539" y="681"/>
      <point x="539" y="657"/>
      <point x="539" y="681" type="curve"/>
      <point x="450" y="681"/>
      <point x="359" y="681"/>
      <point x="268" y="681" type="curve"/>
      <point x="268" y="657"/>
      <point x="268" y="681"/>
    </contour>
  </outline>
</glyph>
<glyph name="Ecaron" format="1">
  <advance width="591"/>
  <unicode hex="011A"/>
  <outline>
    <contour>
      <point x="541" y="11" type="curve"/>
      <point x="541" y="131"/>
      <point x="541" y="4"/>
      <point x="541" y="124" type="curve"/>
      <point x="519" y="124"/>
      <point x="541" y="124"/>
      <point x="519" y="124" type="curve"/>
      <point x="519" y="4"/>
      <point x="519" y="131"/>
      <point x="519" y="11" type="curve"/>
      <point x="541" y="11"/>
      <point x="519" y="11"/>
    </contour>
    <contour>
      <point x="489" y="711" type="curve"/>
      <point x="489" y="591"/>
      <point x="489" y="718"/>
      <point x="489" y="598" type="curve"/>
      <point x="511" y="598"/>
      <point x="489" y="598"/>
      <point x="511" y="598" type="curve"/>
      <point x="511" y="718"/>
      <point x="511" y="591"/>
      <point x="511" y="711" type="curve"/>
      <point x="489" y="711"/>
      <point x="511" y="711"/>
    </contour>
    <contour>
      <point x="168" y="22" type="curve"/>
      <point x="26" y="22"/>
      <point x="182" y="22"/>
      <point x="41" y="22" type="curve"/>
      <point x="41" y="0"/>
      <point x="41" y="22"/>
      <point x="41" y="0" type="curve"/>
      <point x="88" y="0"/>
      <point x="120" y="0"/>
      <point x="168" y="0" type="curve"/>
      <point x="168" y="22"/>
      <point x="168" y="0"/>
    </contour>
    <contour>
      <point x="168" y="722" type="curve"/>
      <point x="120" y="722"/>
      <point x="88" y="722"/>
      <point x="41" y="722" type="curve"/>
      <point x="41" y="700"/>
      <point x="41" y="722"/>
      <point x="41" y="700" type="curve"/>
      <point x="182" y="700"/>
      <point x="26" y="700"/>
      <point x="168" y="700" type="curve"/>
      <point x="168" y="722"/>
      <point x="168" y="700"/>
    </contour>
    <contour>
      <point x="170" y="363" type="curve"/>
      <point x="266" y="363"/>
      <point x="361" y="363"/>
      <point x="457" y="363" type="curve"/>
      <point x="457" y="385"/>
      <point x="457" y="363"/>
      <point x="457" y="385" type="curve"/>
      <point x="361" y="385"/>
      <point x="266" y="385"/>
      <point x="170" y="385" type="curve"/>
      <point x="170" y="363"/>
      <point x="170" y="385"/>
    </contour>
    <contour>
      <point x="157" y="700" type="curve"/>
      <point x="276" y="700"/>
      <point x="393" y="700"/>
      <point x="511" y="700" type="curve"/>
      <point x="511" y="722"/>
      <point x="511" y="700"/>
      <point x="511" y="722" type="curve"/>
      <point x="393" y="722"/>
      <point x="276" y="722"/>
      <point x="157" y="722" type="curve"/>
      <point x="157" y="700"/>
      <point x="157" y="722"/>
    </contour>
    <contour>
      <point x="179" y="0" type="curve"/>
      <point x="179" y="722" type="line"/>
      <point x="155" y="722"/>
      <point x="179" y="722"/>
      <point x="155" y="722" type="curve"/>
      <point x="155" y="481"/>
      <point x="155" y="241"/>
      <point x="155" y="0" type="curve"/>
      <point x="179" y="0"/>
      <point x="155" y="0"/>
    </contour>
    <contour>
      <point x="157" y="0" type="curve"/>
      <point x="285" y="0"/>
      <point x="413" y="0"/>
      <point x="541" y="0" type="curve"/>
      <point x="541" y="22"/>
      <point x="541" y="0"/>
      <point x="541" y="22" type="curve"/>
      <point x="413" y="22"/>
      <point x="285" y="22"/>
      <point x="157" y="22" type="curve"/>
      <point x="157" y="0"/>
      <point x="157" y="22"/>
    </contour>
    <contour>
      <point x="397" y="991" type="line"/>
      <point x="290" y="825" type="line"/>
      <point x="324" y="825" type="line"/>
      <point x="422" y="991" type="line"/>
    </contour>
    <contour>
      <point x="183" y="991" type="line"/>
      <point x="281" y="825" type="line"/>
      <point x="314" y="825" type="line"/>
      <point x="208" y="991" type="line"/>
    </contour>
  </outline>
</glyph>
<glyph name="Idotaccent" format="1">
  <advance width="335"/>
  <unicode hex="0130"/>
  <outline>
    <contour>
      <point x="168" y="722" type="curve"/>
      <point x="120" y="722"/>
      <point x="88" y="722"/>
      <point x="41" y="722" type="curve"/>
      <point x="41" y="700"/>
      <point x="41" y="722"/>
      <point x="41" y="700" type="curve"/>
      <point x="182" y="700"/>
      <point x="26" y="700"/>
      <point x="168" y="700" type="curve"/>
      <point x="168" y="722"/>
      <point x="168" y="700"/>
    </contour>
    <contour>
      <point x="168" y="700" type="curve"/>
      <point x="310" y="700"/>
      <point x="153" y="700"/>
      <point x="295" y="700" type="curve"/>
      <point x="295" y="722"/>
      <point x="295" y="700"/>
      <point x="295" y="722" type="curve"/>
      <point x="247" y="722"/>
      <point x="215" y="722"/>
      <point x="168" y="722" type="curve"/>
      <point x="168" y="700"/>
      <point x="168" y="722"/>
    </contour>
    <contour>
      <point x="168" y="0" type="curve"/>
      <point x="215" y="0"/>
      <point x="247" y="0"/>
      <point x="295" y="0" type="curve"/>
      <point x="295" y="22"/>
      <point x="295" y="0"/>
      <point x="295" y="22" type="curve"/>
      <point x="153" y="22"/>
      <point x="310" y="22"/>
      <point x="168" y="22" type="curve"/>
      <point x="168" y="0"/>
      <point x="168" y="22"/>
    </contour>
    <contour>
      <point x="168" y="22" type="curve"/>
      <point x="26" y="22"/>
      <point x="182" y="22"/>
      <point x="41" y="22" type="curve"/>
      <point x="41" y="0"/>
      <point x="41" y="22"/>
      <point x="41" y="0" type="curve"/>
      <point x="88" y="0"/>
      <point x="120" y="0"/>
      <point x="168" y="0" type="curve"/>
      <point x="168" y="22"/>
      <point x="168" y="0"/>
    </contour>
    <contour>
      <point x="179" y="0" type="curve"/>
      <point x="179" y="241"/>
      <point x="179" y="481"/>
      <point x="179" y="722" type="curve"/>
      <point x="155" y="722"/>
      <point x="179" y="722"/>
      <point x="155" y="722" type="curve"/>
      <point x="155" y="481"/>
      <point x="155" y="241"/>
      <point x="155" y="0" type="curve"/>
      <point x="179" y="0"/>
      <point x="155" y="0"/>
    </contour>
    <contour>
      <point x="185" y="840" type="curve"/>
      <point x="185" y="851"/>
      <point x="178" y="857"/>
      <point x="167" y="857" type="curve"/>
      <point x="156" y="857"/>
      <point x="150" y="850"/>
      <point x="150" y="840" type="curve"/>
      <point x="179" y="840"/>
      <point x="156" y="840"/>
      <point x="185" y="840" type="curve"/>
      <point x="185" y="829"/>
      <point x="178" y="823"/>
      <point x="167" y="823" type="curve"/>
      <point x="156" y="823"/>
      <point x="150" y="829"/>
      <point x="150" y="840" type="curve"/>
      <point x="179" y="840"/>
      <point x="156" y="840"/>
    </contour>
  </outline>
</glyph>
<glyph name="dotlessi" format="1">
  <advance width="289"/>
  <unicode hex="0131"/>
  <outline>
    <contour>
      <point x="160" y="671" type="move" name="top"/>
    </contour>
    <contour>
      <point x="162" y="22" type="curve"/>
      <point x="28" y="22"/>
      <point x="168" y="22"/>
      <point x="35" y="22" type="curve"/>
      <point x="35" y="0"/>
      <point x="35" y="22"/>
      <point x="35" y="0" type="curve"/>
      <point x="79" y="0"/>
      <point x="117" y="0"/>
      <point x="162" y="0" type="curve"/>
      <point x="162" y="22"/>
      <point x="162" y="0"/>
    </contour>
    <contour>
      <point x="162" y="0" type="curve"/>
      <point x="203" y="0"/>
      <point x="238" y="0"/>
      <point x="280" y="0" type="curve"/>
      <point x="280" y="22"/>
      <point x="280" y="0"/>
      <point x="280" y="22" type="curve"/>
      <point x="155" y="22"/>
      <point x="287" y="22"/>
      <point x="162" y="22" type="curve"/>
      <point x="162" y="0"/>
      <point x="162" y="22"/>
    </contour>
    <contour>
      <point x="162" y="533" type="curve"/>
      <point x="117" y="533"/>
      <point x="79" y="533"/>
      <point x="35" y="533" type="curve"/>
      <point x="35" y="511"/>
      <point x="35" y="533"/>
      <point x="35" y="511" type="curve"/>
      <point x="168" y="511"/>
      <point x="28" y="511"/>
      <point x="162" y="511" type="curve"/>
      <point x="162" y="533"/>
      <point x="162" y="511"/>
    </contour>
    <contour>
      <point x="175" y="0" type="curve"/>
      <point x="175" y="178"/>
      <point x="175" y="355"/>
      <point x="175" y="533" type="curve"/>
      <point x="149" y="533"/>
      <point x="175" y="533"/>
      <point x="149" y="533" type="curve"/>
      <point x="149" y="355"/>
      <point x="149" y="178"/>
      <point x="149" y="0" type="curve"/>
      <point x="175" y="0"/>
      <point x="149" y="0"/>
    </contour>
  </outline>
</glyph>
<glyph name="Kcommaaccent" format="1">
  <advance width="638"/>
  <unicode hex="0136"/>
  <outline>
    <contour>
      <point x="489" y="722" type="curve"/>
      <point x="442" y="722"/>
      <point x="424" y="722"/>
      <point x="377" y="722" type="curve"/>
      <point x="377" y="700"/>
      <point x="377" y="722"/>
      <point x="377" y="700" type="curve"/>
      <point x="518" y="700"/>
      <point x="347" y="700"/>
      <point x="489" y="700" type="curve"/>
      <point x="489" y="722"/>
      <point x="489" y="700"/>
    </contour>
    <contour>
      <point x="510" y="0" type="curve"/>
      <point x="557" y="0"/>
      <point x="581" y="0"/>
      <point x="627" y="0" type="curve"/>
      <point x="627" y="22"/>
      <point x="627" y="0"/>
      <point x="627" y="22" type="curve"/>
      <point x="488" y="22"/>
      <point x="650" y="22"/>
      <point x="510" y="22" type="curve"/>
      <point x="510" y="0"/>
      <point x="510" y="22"/>
    </contour>
    <contour>
      <point x="489" y="700" type="curve"/>
      <point x="628" y="700"/>
      <point x="467" y="700"/>
      <point x="606" y="700" type="curve"/>
      <point x="606" y="722"/>
      <point x="606" y="700"/>
      <point x="606" y="722" type="curve"/>
      <point x="560" y="722"/>
      <point x="535" y="722"/>
      <point x="489" y="722" type="curve"/>
      <point x="489" y="700"/>
      <point x="489" y="722"/>
    </contour>
    <contour>
      <point x="168" y="722" type="curve"/>
      <point x="120" y="722"/>
      <point x="88" y="722"/>
      <point x="41" y="722" type="curve"/>
      <point x="41" y="700"/>
      <point x="41" y="722"/>
      <point x="41" y="700" type="curve"/>
      <point x="182" y="700"/>
      <point x="26" y="700"/>
      <point x="168" y="700" type="curve"/>
      <point x="168" y="722"/>
      <point x="168" y="700"/>
    </contour>
    <contour>
      <point x="168" y="700" type="curve"/>
      <point x="310" y="700"/>
      <point x="146" y="700"/>
      <point x="288" y="700" type="curve"/>
      <point x="288" y="722"/>
      <point x="288" y="700"/>
      <point x="288" y="722" type="curve"/>
      <point x="240" y="722"/>
      <point x="215" y="722"/>
      <point x="168" y="722" type="curve"/>
      <point x="168" y="700"/>
      <point x="168" y="722"/>
    </contour>
    <contour>
      <point x="168" y="0" type="curve"/>
      <point x="215" y="0"/>
      <point x="146" y="0"/>
      <point x="288" y="0" type="curve"/>
      <point x="288" y="22"/>
      <point x="288" y="0"/>
      <point x="288" y="22" type="curve"/>
      <point x="146" y="22"/>
      <point x="310" y="22"/>
      <point x="168" y="22" type="curve"/>
      <point x="168" y="0"/>
      <point x="168" y="22"/>
    </contour>
    <contour>
      <point x="168" y="22" type="curve"/>
      <point x="26" y="22"/>
      <point x="182" y="22"/>
      <point x="41" y="22" type="curve"/>
      <point x="41" y="0"/>
      <point x="41" y="22"/>
      <point x="41" y="0" type="curve"/>
      <point x="88" y="0"/>
      <point x="120" y="0"/>
      <point x="168" y="0" type="curve"/>
      <point x="168" y="22"/>
      <point x="168" y="0"/>
    </contour>
    <contour>
      <point x="485" y="722" type="curve"/>
      <point x="165" y="380" type="line"/>
      <point x="200" y="380"/>
      <point x="164" y="380"/>
      <point x="199" y="380" type="curve"/>
      <point x="522" y="722" type="line"/>
      <point x="482" y="722"/>
      <point x="524" y="722"/>
    </contour>
    <contour>
      <point x="180" y="0" type="curve"/>
      <point x="180" y="722" type="line"/>
      <point x="156" y="722"/>
      <point x="180" y="722"/>
      <point x="156" y="722" type="curve"/>
      <point x="156" y="481"/>
      <point x="156" y="241"/>
      <point x="156" y="0" type="curve"/>
      <point x="180" y="0"/>
      <point x="156" y="0"/>
    </contour>
    <contour>
      <point x="543" y="0" type="curve"/>
      <point x="199" y="380" type="line"/>
      <point x="164" y="380"/>
      <point x="200" y="380"/>
      <point x="165" y="380" type="curve"/>
      <point x="505" y="0" type="line"/>
      <point x="546" y="0"/>
      <point x="502" y="0"/>
    </contour>
    <contour>
      <point x="313" y="-220" type="line"/>
      <point x="339" y="-195"/>
      <point x="361" y="-166"/>
      <point x="361" y="-117" type="curve"/>
      <point x="361" y="-97"/>
      <point x="357" y="-79"/>
      <point x="339" y="-79" type="curve"/>
      <point x="326" y="-79"/>
      <point x="319" y="-85"/>
      <point x="319" y="-97" type="curve"/>
      <point x="319" y="-107"/>
      <point x="323" y="-113"/>
      <point x="334" y="-118" type="curve"/>
      <point x="334" y="-141"/>
      <point x="323" y="-178"/>
      <point x="297" y="-202" type="curve"/>
    </contour>
  </outline>
</glyph>
<glyph name="kcommaaccent" format="1">
  <advance width="536"/>
  <unicode hex="0137"/>
  <outline>
    <contour>
      <point x="134" y="22" type="curve"/>
      <point x="0" y="22"/>
      <point x="141" y="22"/>
      <point x="7" y="22" type="curve"/>
      <point x="7" y="0"/>
      <point x="7" y="22"/>
      <point x="7" y="0" type="curve"/>
      <point x="51" y="0"/>
      <point x="90" y="0"/>
      <point x="134" y="0" type="curve"/>
      <point x="134" y="22"/>
      <point x="134" y="0"/>
    </contour>
    <contour>
      <point x="402" y="0" type="curve"/>
      <point x="443" y="0"/>
      <point x="479" y="0"/>
      <point x="521" y="0" type="curve"/>
      <point x="521" y="22"/>
      <point x="521" y="0"/>
      <point x="521" y="22" type="curve"/>
      <point x="396" y="22"/>
      <point x="527" y="22"/>
      <point x="402" y="22" type="curve"/>
      <point x="402" y="0"/>
      <point x="402" y="22"/>
    </contour>
    <contour>
      <point x="380" y="511" type="curve"/>
      <point x="494" y="511"/>
      <point x="374" y="511"/>
      <point x="488" y="511" type="curve"/>
      <point x="488" y="533"/>
      <point x="488" y="511"/>
      <point x="488" y="533" type="curve"/>
      <point x="450" y="533"/>
      <point x="417" y="533"/>
      <point x="380" y="533" type="curve"/>
      <point x="380" y="511"/>
      <point x="380" y="533"/>
    </contour>
    <contour>
      <point x="134" y="0" type="curve"/>
      <point x="173" y="0"/>
      <point x="128" y="0"/>
      <point x="243" y="0" type="curve"/>
      <point x="243" y="22"/>
      <point x="243" y="0"/>
      <point x="243" y="22" type="curve"/>
      <point x="128" y="22"/>
      <point x="249" y="22"/>
      <point x="134" y="22" type="curve"/>
      <point x="134" y="0"/>
      <point x="134" y="22"/>
    </contour>
    <contour>
      <point x="380" y="533" type="curve"/>
      <point x="338" y="533"/>
      <point x="302" y="533"/>
      <point x="260" y="533" type="curve"/>
      <point x="260" y="511"/>
      <point x="260" y="533"/>
      <point x="260" y="511" type="curve"/>
      <point x="386" y="511"/>
      <point x="254" y="511"/>
      <point x="380" y="511" type="curve"/>
      <point x="380" y="533"/>
      <point x="380" y="511"/>
    </contour>
    <contour>
      <point x="136" y="800" type="curve"/>
      <point x="91" y="800"/>
      <point x="53" y="800"/>
      <point x="8" y="800" type="curve"/>
      <point x="8" y="778"/>
      <point x="8" y="800"/>
      <point x="8" y="778" type="curve"/>
      <point x="142" y="778"/>
      <point x="2" y="778"/>
      <point x="136" y="778" type="curve"/>
      <point x="136" y="800"/>
      <point x="136" y="778"/>
    </contour>
    <contour>
      <point x="146" y="0" type="curve"/>
      <point x="146" y="800" type="line"/>
      <point x="122" y="800"/>
      <point x="146" y="800"/>
      <point x="122" y="800" type="curve"/>
      <point x="122" y="533"/>
      <point x="122" y="267"/>
      <point x="122" y="0" type="curve"/>
      <point x="146" y="0"/>
      <point x="122" y="0"/>
    </contour>
    <contour>
      <point x="376" y="533" type="curve"/>
      <point x="133" y="275" type="line"/>
      <point x="171" y="275"/>
      <point x="130" y="275"/>
      <point x="168" y="275" type="curve"/>
      <point x="411" y="533" type="line"/>
      <point x="373" y="533"/>
      <point x="414" y="533"/>
    </contour>
    <contour>
      <point x="434" y="0" type="curve"/>
      <point x="168" y="275" type="line"/>
      <point x="130" y="275"/>
      <point x="171" y="275"/>
      <point x="133" y="275" type="curve"/>
      <point x="397" y="0" type="line"/>
      <point x="437" y="0"/>
      <point x="394" y="0"/>
    </contour>
    <contour>
      <point x="269" y="-219" type="line"/>
      <point x="295" y="-195"/>
      <point x="317" y="-166"/>
      <point x="317" y="-117" type="curve"/>
      <point x="317" y="-96"/>
      <point x="313" y="-79"/>
      <point x="295" y="-79" type="curve"/>
      <point x="282" y="-79"/>
      <point x="275" y="-85"/>
      <point x="275" y="-97" type="curve"/>
      <point x="275" y="-107"/>
      <point x="279" y="-113"/>
      <point x="290" y="-118" type="curve"/>
      <point x="290" y="-141"/>
      <point x="279" y="-178"/>
      <point x="253" y="-202" type="curve"/>
    </contour>
  </outline>
</glyph>
<glyph name="Lcommaaccent" format="1">
  <advance width="576"/>
  <unicode hex="013B"/>
  <outline>
    <contour>
      <point x="535" y="11" type="curve"/>
      <point x="535" y="131"/>
      <point x="535" y="4"/>
      <point x="535" y="124" type="curve"/>
      <point x="513" y="124"/>
      <point x="535" y="124"/>
      <point x="513" y="124" type="curve"/>
      <point x="513" y="4"/>
      <point x="513" y="131"/>
      <point x="513" y="11" type="curve"/>
      <point x="535" y="11"/>
      <point x="513" y="11"/>
    </contour>
    <contour>
      <point x="167" y="22" type="curve"/>
      <point x="25" y="22"/>
      <point x="181" y="22"/>
      <point x="40" y="22" type="curve"/>
      <point x="40" y="0"/>
      <point x="40" y="22"/>
      <point x="40" y="0" type="curve"/>
      <point x="87" y="0"/>
      <point x="119" y="0"/>
      <point x="167" y="0" type="curve"/>
      <point x="167" y="22"/>
      <point x="167" y="0"/>
    </contour>
    <contour>
      <point x="167" y="722" type="curve"/>
      <point x="119" y="722"/>
      <point x="87" y="722"/>
      <point x="40" y="722" type="curve"/>
      <point x="40" y="700"/>
      <point x="40" y="722"/>
      <point x="40" y="700" type="curve"/>
      <point x="181" y="700"/>
      <point x="25" y="700"/>
      <point x="167" y="700" type="curve"/>
      <point x="167" y="722"/>
      <point x="167" y="700"/>
    </contour>
    <contour>
      <point x="167" y="700" type="curve"/>
      <point x="308" y="700"/>
      <point x="152" y="700"/>
      <point x="294" y="700" type="curve"/>
      <point x="294" y="722"/>
      <point x="294" y="700"/>
      <point x="294" y="722" type="curve"/>
      <point x="247" y="722"/>
      <point x="214" y="722"/>
      <point x="167" y="722" type="curve"/>
      <point x="167" y="700"/>
      <point x="167" y="722"/>
    </contour>
    <contour>
      <point x="180" y="0" type="curve"/>
      <point x="180" y="241"/>
      <point x="180" y="481"/>
      <point x="180" y="722" type="curve"/>
      <point x="156" y="722"/>
      <point x="180" y="722"/>
      <point x="156" y="722" type="curve"/>
      <point x="156" y="481"/>
      <point x="156" y="241"/>
      <point x="156" y="0" type="curve"/>
      <point x="180" y="0"/>
      <point x="156" y="0"/>
    </contour>
    <contour>
      <point x="167" y="0" type="curve"/>
      <point x="290" y="0"/>
      <point x="412" y="0"/>
      <point x="535" y="0" type="curve"/>
      <point x="535" y="22"/>
      <point x="535" y="0"/>
      <point x="535" y="22" type="curve"/>
      <point x="412" y="22"/>
      <point x="290" y="22"/>
      <point x="167" y="22" type="curve"/>
      <point x="167" y="0"/>
      <point x="167" y="22"/>
    </contour>
    <contour>
      <point x="283" y="-217" type="line"/>
      <point x="309" y="-193"/>
      <point x="331" y="-164"/>
      <point x="331" y="-114" type="curve"/>
      <point x="331" y="-94"/>
      <point x="327" y="-77"/>
      <point x="309" y="-77" type="curve"/>
      <point x="296" y="-77"/>
      <point x="289" y="-83"/>
      <point x="289" y="-95" type="curve"/>
      <point x="289" y="-105"/>
      <point x="293" y="-111"/>
      <point x="304" y="-116" type="curve"/>
      <point x="304" y="-138"/>
      <point x="293" y="-175"/>
      <point x="267" y="-200" type="curve"/>
    </contour>
  </outline>
</glyph>
<glyph name="Ncommaaccent" format="1">
  <advance width="790"/>
  <unicode hex="0145"/>
  <outline>
    <contour>
      <point x="169" y="722" type="curve"/>
      <point x="122" y="722"/>
      <point x="89" y="722"/>
      <point x="42" y="722" type="curve"/>
      <point x="42" y="700"/>
      <point x="42" y="722"/>
      <point x="42" y="700" type="curve"/>
      <point x="184" y="700"/>
      <point x="27" y="700"/>
      <point x="169" y="700" type="curve"/>
      <point x="169" y="722"/>
      <point x="169" y="700"/>
    </contour>
    <contour>
      <point x="640" y="700" type="curve"/>
      <point x="782" y="700"/>
      <point x="625" y="700"/>
      <point x="767" y="700" type="curve"/>
      <point x="767" y="722"/>
      <point x="767" y="700"/>
      <point x="767" y="722" type="curve"/>
      <point x="720" y="722"/>
      <point x="687" y="722"/>
      <point x="640" y="722" type="curve"/>
      <point x="640" y="700"/>
      <point x="640" y="722"/>
    </contour>
    <contour>
      <point x="640" y="722" type="curve"/>
      <point x="593" y="722"/>
      <point x="560" y="722"/>
      <point x="513" y="722" type="curve"/>
      <point x="513" y="700"/>
      <point x="513" y="722"/>
      <point x="513" y="700" type="curve"/>
      <point x="655" y="700"/>
      <point x="498" y="700"/>
      <point x="640" y="700" type="curve"/>
      <point x="640" y="722"/>
      <point x="640" y="700"/>
    </contour>
    <contour>
      <point x="168" y="22" type="curve"/>
      <point x="26" y="22"/>
      <point x="183" y="22"/>
      <point x="41" y="22" type="curve"/>
      <point x="41" y="0"/>
      <point x="41" y="22"/>
      <point x="41" y="0" type="curve"/>
      <point x="88" y="0"/>
      <point x="120" y="0"/>
      <point x="168" y="0" type="curve"/>
      <point x="168" y="22"/>
      <point x="168" y="0"/>
    </contour>
    <contour>
      <point x="168" y="0" type="curve"/>
      <point x="215" y="0"/>
      <point x="153" y="0"/>
      <point x="295" y="0" type="curve"/>
      <point x="295" y="22"/>
      <point x="295" y="0"/>
      <point x="295" y="22" type="curve"/>
      <point x="153" y="22"/>
      <point x="310" y="22"/>
      <point x="168" y="22" type="curve"/>
      <point x="168" y="0"/>
      <point x="168" y="22"/>
    </contour>
    <contour>
      <point x="651" y="0" type="curve"/>
      <point x="495" y="241"/>
      <point x="339" y="481"/>
      <point x="184" y="722" type="curve"/>
      <point x="154" y="722"/>
      <point x="183" y="722"/>
      <point x="154" y="722" type="curve"/>
      <point x="310" y="481"/>
      <point x="466" y="241"/>
      <point x="621" y="0" type="curve"/>
      <point x="650" y="0"/>
      <point x="622" y="0"/>
    </contour>
    <contour>
      <point x="627" y="722" type="curve"/>
      <point x="627" y="481"/>
      <point x="627" y="241"/>
      <point x="627" y="0" type="curve"/>
      <point x="651" y="0"/>
      <point x="627" y="0"/>
      <point x="651" y="0" type="curve"/>
      <point x="651" y="241"/>
      <point x="651" y="481"/>
      <point x="651" y="722" type="curve"/>
      <point x="627" y="722"/>
      <point x="651" y="722"/>
    </contour>
    <contour>
      <point x="180" y="0" type="curve"/>
      <point x="180" y="241"/>
      <point x="180" y="481"/>
      <point x="180" y="722" type="curve"/>
      <point x="156" y="722"/>
      <point x="180" y="722"/>
      <point x="156" y="722" type="curve"/>
      <point x="156" y="481"/>
      <point x="156" y="241"/>
      <point x="156" y="0" type="curve"/>
      <point x="180" y="0"/>
      <point x="156" y="0"/>
    </contour>
    <contour>
      <point x="357" y="-219" type="line"/>
      <point x="384" y="-194"/>
      <point x="405" y="-165"/>
      <point x="405" y="-116" type="curve"/>
      <point x="405" y="-96"/>
      <point x="402" y="-78"/>
      <point x="384" y="-78" type="curve"/>
      <point x="371" y="-78"/>
      <point x="364" y="-84"/>
      <point x="364" y="-96" type="curve"/>
      <point x="364" y="-106"/>
      <point x="368" y="-112"/>
      <point x="379" y="-117" type="curve"/>
      <point x="379" y="-140"/>
      <point x="368" y="-177"/>
      <point x="342" y="-201" type="curve"/>
    </contour>
  </outline>
</glyph>
<glyph name="oe" format="1">
  <advance width="867"/>
  <unicode hex="0153"/>
  <outline>
    <contour>
      <point x="89" y="268" type="curve"/>
      <point x="89" y="412"/>
      <point x="137" y="517"/>
      <point x="262" y="517" type="curve"/>
      <point x="392" y="517"/>
      <point x="441" y="411"/>
      <point x="441" y="266" type="curve"/>
      <point x="441" y="122"/>
      <point x="392" y="17"/>
      <point x="266" y="17" type="curve"/>
      <point x="133" y="17"/>
      <point x="89" y="124"/>
      <point x="89" y="268" type="curve"/>
      <point x="65" y="268"/>
      <point x="89" y="268"/>
      <point x="65" y="268" type="curve"/>
      <point x="65" y="110"/>
      <point x="119" y="-5"/>
      <point x="265" y="-5" type="curve"/>
      <point x="409" y="-5"/>
      <point x="465" y="108"/>
      <point x="465" y="266" type="curve"/>
      <point x="465" y="424"/>
      <point x="409" y="538"/>
      <point x="263" y="538" type="curve"/>
      <point x="120" y="538"/>
      <point x="65" y="423"/>
      <point x="65" y="268" type="curve"/>
      <point x="89" y="268"/>
      <point x="65" y="268"/>
    </contour>
    <contour>
      <point x="455" y="273" type="curve"/>
      <point x="569" y="273"/>
      <point x="683" y="273"/>
      <point x="797" y="273" type="curve"/>
      <point x="800" y="273"/>
      <point x="797" y="273"/>
      <point x="800" y="273" type="curve"/>
      <point x="800" y="276"/>
      <point x="800" y="273"/>
      <point x="800" y="276" type="curve"/>
      <point x="800" y="285"/>
      <point x="800" y="294"/>
      <point x="800" y="303" type="curve"/>
      <point x="800" y="442"/>
      <point x="752" y="538"/>
      <point x="627" y="538" type="curve"/>
      <point x="490" y="538"/>
      <point x="442" y="432"/>
      <point x="442" y="281" type="curve"/>
      <point x="442" y="114"/>
      <point x="496" y="-5"/>
      <point x="644" y="-5" type="curve"/>
      <point x="711" y="-5"/>
      <point x="754" y="24"/>
      <point x="800" y="75" type="curve"/>
      <point x="783" y="90"/>
      <point x="800" y="75"/>
      <point x="783" y="90" type="curve"/>
      <point x="742" y="45"/>
      <point x="702" y="17"/>
      <point x="644" y="17" type="curve"/>
      <point x="514" y="17"/>
      <point x="467" y="128"/>
      <point x="467" y="281" type="curve"/>
      <point x="467" y="417"/>
      <point x="507" y="516"/>
      <point x="625" y="516" type="curve"/>
      <point x="736" y="516"/>
      <point x="777" y="429"/>
      <point x="777" y="305" type="curve"/>
      <point x="777" y="295"/>
      <point x="777" y="286"/>
      <point x="777" y="276" type="curve"/>
      <point x="781" y="279"/>
      <point x="785" y="282"/>
      <point x="787" y="285" type="curve"/>
      <point x="790" y="289"/>
      <point x="793" y="291"/>
      <point x="797" y="295" type="curve"/>
      <point x="683" y="295"/>
      <point x="569" y="295"/>
      <point x="455" y="295" type="curve"/>
      <point x="455" y="273"/>
      <point x="455" y="295"/>
    </contour>
  </outline>
</glyph>
<glyph name="Rcaron" format="1">
  <advance width="694"/>
  <unicode hex="0158"/>
  <outline>
    <contour>
      <point x="546" y="0" type="curve"/>
      <point x="593" y="0"/>
      <point x="625" y="0"/>
      <point x="673" y="0" type="curve"/>
      <point x="673" y="22"/>
      <point x="673" y="0"/>
      <point x="673" y="22" type="curve"/>
      <point x="531" y="22"/>
      <point x="688" y="22"/>
      <point x="546" y="22" type="curve"/>
      <point x="546" y="0"/>
      <point x="546" y="22"/>
    </contour>
    <contour>
      <point x="167" y="722" type="curve"/>
      <point x="119" y="722"/>
      <point x="87" y="722"/>
      <point x="40" y="722" type="curve"/>
      <point x="40" y="700"/>
      <point x="40" y="722"/>
      <point x="40" y="700" type="curve"/>
      <point x="181" y="700"/>
      <point x="25" y="700"/>
      <point x="167" y="700" type="curve"/>
      <point x="167" y="722"/>
      <point x="167" y="700"/>
    </contour>
    <contour>
      <point x="167" y="22" type="curve"/>
      <point x="25" y="22"/>
      <point x="181" y="22"/>
      <point x="40" y="22" type="curve"/>
      <point x="40" y="0"/>
      <point x="40" y="22"/>
      <point x="40" y="0" type="curve"/>
      <point x="87" y="0"/>
      <point x="119" y="0"/>
      <point x="167" y="0" type="curve"/>
      <point x="167" y="22"/>
      <point x="167" y="0"/>
    </contour>
    <contour>
      <point x="167" y="0" type="curve"/>
      <point x="214" y="0"/>
      <point x="152" y="0"/>
      <point x="294" y="0" type="curve"/>
      <point x="294" y="22"/>
      <point x="294" y="0"/>
      <point x="294" y="22" type="curve"/>
      <point x="152" y="22"/>
      <point x="309" y="22"/>
      <point x="167" y="22" type="curve"/>
      <point x="167" y="0"/>
      <point x="167" y="22"/>
    </contour>
    <contour>
      <point x="333" y="354" type="curve"/>
      <point x="377" y="267"/>
      <point x="499" y="87"/>
      <point x="543" y="0" type="curve"/>
      <point x="572" y="0"/>
      <point x="542" y="0"/>
      <point x="571" y="0" type="curve"/>
      <point x="528" y="87"/>
      <point x="405" y="267"/>
      <point x="361" y="354" type="curve"/>
      <point x="332" y="354"/>
      <point x="362" y="354"/>
    </contour>
    <contour>
      <point x="180" y="0" type="curve"/>
      <point x="180" y="241"/>
      <point x="180" y="481"/>
      <point x="180" y="722" type="curve"/>
      <point x="156" y="722"/>
      <point x="180" y="722"/>
      <point x="156" y="722" type="curve"/>
      <point x="156" y="481"/>
      <point x="156" y="241"/>
      <point x="156" y="0" type="curve"/>
      <point x="180" y="0"/>
      <point x="156" y="0"/>
    </contour>
    <contour>
      <point x="170" y="340" type="curve"/>
      <point x="219" y="340"/>
      <point x="268" y="340"/>
      <point x="318" y="340" type="curve"/>
      <point x="441" y="340"/>
      <point x="511" y="412"/>
      <point x="511" y="537" type="curve"/>
      <point x="511" y="658"/>
      <point x="440" y="722"/>
      <point x="318" y="722" type="curve"/>
      <point x="266" y="722"/>
      <point x="221" y="722"/>
      <point x="170" y="722" type="curve"/>
      <point x="170" y="700"/>
      <point x="170" y="722"/>
      <point x="170" y="700" type="curve"/>
      <point x="220" y="700"/>
      <point x="263" y="700"/>
      <point x="314" y="700" type="curve"/>
      <point x="423" y="700"/>
      <point x="486" y="643"/>
      <point x="486" y="535" type="curve"/>
      <point x="486" y="426"/>
      <point x="428" y="362"/>
      <point x="321" y="362" type="curve"/>
      <point x="271" y="362"/>
      <point x="220" y="362"/>
      <point x="170" y="362" type="curve"/>
      <point x="170" y="340"/>
      <point x="170" y="362"/>
    </contour>
    <contour>
      <point x="380" y="991" type="line"/>
      <point x="274" y="825" type="line"/>
      <point x="307" y="825" type="line"/>
      <point x="405" y="991" type="line"/>
    </contour>
    <contour>
      <point x="166" y="991" type="line"/>
      <point x="264" y="825" type="line"/>
      <point x="298" y="825" type="line"/>
      <point x="191" y="991" type="line"/>
    </contour>
  </outline>
</glyph>
<glyph name="scedilla" format="1">
  <advance width="438"/>
  <unicode hex="015F"/>
  <outline>
    <contour>
      <point x="63" y="50" type="curve"/>
      <point x="116" y="18"/>
      <point x="169" y="-5"/>
      <point x="229" y="-5" type="curve"/>
      <point x="321" y="-5"/>
      <point x="375" y="46"/>
      <point x="375" y="133" type="curve"/>
      <point x="374" y="225"/>
      <point x="311" y="257"/>
      <point x="224" y="288" type="curve" smooth="yes"/>
      <point x="155" y="314"/>
      <point x="111" y="347"/>
      <point x="111" y="419" type="curve"/>
      <point x="111" y="480"/>
      <point x="150" y="516"/>
      <point x="214" y="516" type="curve"/>
      <point x="260" y="516"/>
      <point x="302" y="498"/>
      <point x="336" y="472" type="curve"/>
      <point x="342" y="483"/>
      <point x="341" y="481"/>
      <point x="347" y="491" type="curve"/>
      <point x="310" y="519"/>
      <point x="265" y="538"/>
      <point x="215" y="538" type="curve"/>
      <point x="138" y="538"/>
      <point x="89" y="493"/>
      <point x="89" y="419" type="curve"/>
      <point x="89" y="337"/>
      <point x="138" y="297"/>
      <point x="217" y="267" type="curve" smooth="yes"/>
      <point x="292" y="239"/>
      <point x="352" y="214"/>
      <point x="351" y="133" type="curve"/>
      <point x="351" y="61"/>
      <point x="305" y="17"/>
      <point x="233" y="17" type="curve"/>
      <point x="175" y="17"/>
      <point x="126" y="39"/>
      <point x="75" y="69" type="curve"/>
      <point x="63" y="50"/>
      <point x="76" y="69"/>
    </contour>
    <contour>
      <point x="325" y="491" type="curve"/>
      <point x="325" y="371"/>
      <point x="325" y="499"/>
      <point x="325" y="379" type="curve"/>
      <point x="347" y="379"/>
      <point x="325" y="379"/>
      <point x="347" y="379" type="curve"/>
      <point x="347" y="499"/>
      <point x="347" y="371"/>
      <point x="347" y="491" type="curve"/>
      <point x="335" y="491"/>
      <point x="337" y="491"/>
    </contour>
    <contour>
      <point x="85" y="50" type="curve"/>
      <point x="85" y="170"/>
      <point x="85" y="42"/>
      <point x="85" y="162" type="curve"/>
      <point x="63" y="162"/>
      <point x="85" y="162"/>
      <point x="63" y="162" type="curve"/>
      <point x="63" y="42"/>
      <point x="63" y="170"/>
      <point x="63" y="50" type="curve"/>
      <point x="85" y="50"/>
      <point x="63" y="50"/>
    </contour>
    <contour>
      <point x="209" y="10" type="curve"/>
      <point x="195" y="-17"/>
      <point x="183" y="-44"/>
      <point x="170" y="-70" type="curve"/>
      <point x="187" y="-88"/>
      <point x="170" y="-70"/>
      <point x="187" y="-88" type="curve"/>
      <point x="199" y="-60"/>
      <point x="214" y="-32"/>
      <point x="226" y="-5" type="curve"/>
      <point x="209" y="10"/>
      <point x="226" y="-5"/>
    </contour>
    <contour>
      <point x="187" y="-88" type="curve"/>
      <point x="199" y="-78"/>
      <point x="209" y="-75"/>
      <point x="225" y="-75" type="curve"/>
      <point x="256" y="-75"/>
      <point x="269" y="-99"/>
      <point x="269" y="-132" type="curve"/>
      <point x="269" y="-167"/>
      <point x="249" y="-187"/>
      <point x="214" y="-187" type="curve"/>
      <point x="190" y="-187"/>
      <point x="173" y="-184"/>
      <point x="154" y="-170" type="curve"/>
      <point x="144" y="-187"/>
      <point x="154" y="-170"/>
      <point x="144" y="-187" type="curve"/>
      <point x="166" y="-202"/>
      <point x="186" y="-209"/>
      <point x="213" y="-209" type="curve"/>
      <point x="262" y="-209"/>
      <point x="294" y="-180"/>
      <point x="294" y="-132" type="curve"/>
      <point x="294" y="-86"/>
      <point x="270" y="-53"/>
      <point x="227" y="-53" type="curve"/>
      <point x="205" y="-53"/>
      <point x="190" y="-59"/>
      <point x="170" y="-70" type="curve"/>
      <point x="187" y="-88"/>
      <point x="170" y="-70"/>
    </contour>
  </outline>
</glyph>
<glyph name="Uogonek" format="1">
  <advance width="742"/>
  <unicode hex="0172"/>
  <outline>
    <contour>
      <point x="589" y="700" type="curve"/>
      <point x="723" y="700"/>
      <point x="583" y="700"/>
      <point x="717" y="700" type="curve"/>
      <point x="717" y="722"/>
      <point x="717" y="700"/>
      <point x="717" y="722" type="curve"/>
      <point x="672" y="722"/>
      <point x="634" y="722"/>
      <point x="589" y="722" type="curve"/>
      <point x="589" y="700"/>
      <point x="589" y="722"/>
    </contour>
    <contour>
      <point x="589" y="722" type="curve"/>
      <point x="545" y="722"/>
      <point x="507" y="722"/>
      <point x="462" y="722" type="curve"/>
      <point x="462" y="700"/>
      <point x="462" y="722"/>
      <point x="462" y="700" type="curve"/>
      <point x="596" y="700"/>
      <point x="456" y="700"/>
      <point x="589" y="700" type="curve"/>
      <point x="589" y="722"/>
      <point x="589" y="700"/>
    </contour>
    <contour>
      <point x="153" y="722" type="curve"/>
      <point x="109" y="722"/>
      <point x="71" y="722"/>
      <point x="26" y="722" type="curve"/>
      <point x="26" y="700"/>
      <point x="26" y="722"/>
      <point x="26" y="700" type="curve"/>
      <point x="160" y="700"/>
      <point x="20" y="700"/>
      <point x="153" y="700" type="curve"/>
      <point x="153" y="722"/>
      <point x="153" y="700"/>
    </contour>
    <contour>
      <point x="153" y="700" type="curve"/>
      <point x="287" y="700"/>
      <point x="147" y="700"/>
      <point x="280" y="700" type="curve"/>
      <point x="280" y="722"/>
      <point x="280" y="700"/>
      <point x="280" y="722" type="curve"/>
      <point x="236" y="722"/>
      <point x="198" y="722"/>
      <point x="153" y="722" type="curve"/>
      <point x="153" y="700"/>
      <point x="153" y="722"/>
    </contour>
    <contour>
      <point x="139" y="721" type="curve"/>
      <point x="139" y="563"/>
      <point x="139" y="429"/>
      <point x="139" y="271" type="curve"/>
      <point x="139" y="96"/>
      <point x="205" y="-5"/>
      <point x="372" y="-5" type="curve"/>
      <point x="535" y="-5"/>
      <point x="601" y="93"/>
      <point x="601" y="263" type="curve"/>
      <point x="601" y="424"/>
      <point x="601" y="561"/>
      <point x="601" y="721" type="curve"/>
      <point x="583" y="721"/>
      <point x="597" y="721"/>
      <point x="578" y="721" type="curve"/>
      <point x="578" y="559"/>
      <point x="578" y="421"/>
      <point x="578" y="259" type="curve"/>
      <point x="578" y="108"/>
      <point x="517" y="19"/>
      <point x="374" y="19" type="curve"/>
      <point x="220" y="19"/>
      <point x="162" y="114"/>
      <point x="162" y="275" type="curve"/>
      <point x="162" y="432"/>
      <point x="162" y="565"/>
      <point x="162" y="721" type="curve"/>
      <point x="144" y="721"/>
      <point x="158" y="721"/>
    </contour>
    <contour>
      <point x="380" y="12" type="curve"/>
      <point x="326" y="-13"/>
      <point x="284" y="-43"/>
      <point x="284" y="-102" type="curve"/>
      <point x="284" y="-156"/>
      <point x="314" y="-197"/>
      <point x="366" y="-197" type="curve"/>
      <point x="395" y="-197"/>
      <point x="415" y="-183"/>
      <point x="438" y="-166" type="curve"/>
      <point x="431" y="-158"/>
      <point x="431" y="-160"/>
      <point x="425" y="-152" type="curve"/>
      <point x="406" y="-166"/>
      <point x="391" y="-175"/>
      <point x="368" y="-175" type="curve"/>
      <point x="328" y="-175"/>
      <point x="307" y="-144"/>
      <point x="307" y="-102" type="curve"/>
      <point x="307" y="-51"/>
      <point x="343" y="-26"/>
      <point x="389" y="-3" type="curve"/>
      <point x="385" y="5"/>
      <point x="385" y="5"/>
    </contour>
  </outline>
</glyph>
<glyph name="Scommaaccent" format="1">
  <advance width="515"/>
  <unicode hex="0218"/>
  <outline>
    <contour>
      <point x="395" y="663" type="curve"/>
      <point x="395" y="543"/>
      <point x="395" y="670"/>
      <point x="395" y="550" type="curve"/>
      <point x="417" y="550"/>
      <point x="395" y="550"/>
      <point x="417" y="550" type="curve"/>
      <point x="417" y="670"/>
      <point x="417" y="543"/>
      <point x="417" y="663" type="curve"/>
      <point x="395" y="663"/>
      <point x="417" y="663"/>
    </contour>
    <contour>
      <point x="93" y="58" type="curve"/>
      <point x="93" y="178"/>
      <point x="93" y="51"/>
      <point x="93" y="171" type="curve"/>
      <point x="71" y="171"/>
      <point x="93" y="171"/>
      <point x="71" y="171" type="curve"/>
      <point x="71" y="51"/>
      <point x="71" y="178"/>
      <point x="71" y="58" type="curve"/>
      <point x="93" y="58"/>
      <point x="71" y="58"/>
    </contour>
    <contour>
      <point x="71" y="58" type="curve"/>
      <point x="118" y="23"/>
      <point x="178" y="-5"/>
      <point x="247" y="-5" type="curve"/>
      <point x="366" y="-5"/>
      <point x="442" y="54"/>
      <point x="442" y="169" type="curve"/>
      <point x="442" y="281"/>
      <point x="368" y="330"/>
      <point x="270" y="386" type="curve"/>
      <point x="185" y="434"/>
      <point x="116" y="471"/>
      <point x="116" y="563" type="curve"/>
      <point x="116" y="651"/>
      <point x="170" y="705"/>
      <point x="256" y="705" type="curve"/>
      <point x="315" y="705"/>
      <point x="367" y="676"/>
      <point x="405" y="645" type="curve"/>
      <point x="412" y="655"/>
      <point x="411" y="654"/>
      <point x="417" y="663" type="curve"/>
      <point x="369" y="701"/>
      <point x="323" y="726"/>
      <point x="257" y="726" type="curve"/>
      <point x="155" y="726"/>
      <point x="91" y="664"/>
      <point x="91" y="562" type="curve"/>
      <point x="91" y="460"/>
      <point x="163" y="419"/>
      <point x="254" y="367" type="curve"/>
      <point x="346" y="316"/>
      <point x="418" y="271"/>
      <point x="418" y="169" type="curve"/>
      <point x="418" y="72"/>
      <point x="347" y="18"/>
      <point x="249" y="18" type="curve"/>
      <point x="183" y="18"/>
      <point x="129" y="46"/>
      <point x="84" y="78" type="curve"/>
      <point x="77" y="67"/>
      <point x="78" y="69"/>
    </contour>
    <contour>
      <point x="202" y="-220" type="line"/>
      <point x="228" y="-195"/>
      <point x="250" y="-166"/>
      <point x="250" y="-117" type="curve"/>
      <point x="250" y="-97"/>
      <point x="247" y="-79"/>
      <point x="228" y="-79" type="curve"/>
      <point x="215" y="-79"/>
      <point x="208" y="-85"/>
      <point x="208" y="-97" type="curve"/>
      <point x="208" y="-107"/>
      <point x="212" y="-113"/>
      <point x="223" y="-118" type="curve"/>
      <point x="223" y="-141"/>
      <point x="212" y="-178"/>
      <point x="186" y="-202" type="curve"/>
    </contour>
  </outline>
</glyph>
<glyph name="ogonek" format="1">
  <advance width="275"/>
  <unicode hex="02DB"/>
  <outline>
    <contour>
      <point x="128" y="-2" type="move" name="_bottom"/>
    </contour>
    <contour>
      <point x="119" y="13" type="curve"/>
      <point x="64" y="-12"/>
      <point x="23" y="-42"/>
      <point x="23" y="-101" type="curve"/>
      <point x="23" y="-156"/>
      <point x="53" y="-196"/>
      <point x="105" y="-196" type="curve"/>
      <point x="134" y="-196"/>
      <point x="154" y="-182"/>
      <point x="176" y="-165" type="curve"/>
      <point x="170" y="-157"/>
      <point x="170" y="-159"/>
      <point x="163" y="-151" type="curve"/>
      <point x="145" y="-165"/>
      <point x="129" y="-174"/>
      <point x="107" y="-174" type="curve"/>
      <point x="67" y="-174"/>
      <point x="46" y="-143"/>
      <point x="46" y="-101" type="curve"/>
      <point x="46" y="-50"/>
      <point x="82" y="-25"/>
      <point x="128" y="-2" type="curve"/>
      <point x="123" y="6"/>
      <point x="124" y="6"/>
    </contour>
  </outline>
</glyph>
<glyph name="tilde" format="1">
  <advance width="462"/>
  <unicode hex="02DC"/>
  <outline>
    <contour>
      <point x="170" y="606" type="move" name="_top"/>
    </contour>
    <contour>
      <point x="315" y="730" type="curve"/>
      <point x="304" y="678"/>
      <point x="294" y="627"/>
      <point x="253" y="627" type="curve"/>
      <point x="218" y="627"/>
      <point x="199" y="647"/>
      <point x="177" y="676" type="curve"/>
      <point x="153" y="707"/>
      <point x="133" y="731"/>
      <point x="94" y="731" type="curve"/>
      <point x="33" y="731"/>
      <point x="16" y="678"/>
      <point x="4" y="612" type="curve"/>
      <point x="24" y="606"/>
      <point x="4" y="612"/>
      <point x="24" y="606" type="curve"/>
      <point x="34" y="662"/>
      <point x="46" y="709"/>
      <point x="94" y="709" type="curve"/>
      <point x="126" y="709"/>
      <point x="140" y="688"/>
      <point x="160" y="662" type="curve"/>
      <point x="186" y="629"/>
      <point x="209" y="606"/>
      <point x="251" y="606" type="curve"/>
      <point x="311" y="606"/>
      <point x="322" y="663"/>
      <point x="336" y="726" type="curve"/>
      <point x="315" y="730"/>
      <point x="336" y="726"/>
    </contour>
  </outline>
</glyph>
<glyph name="pi" format="1">
  <advance width="559"/>
  <unicode hex="03C0"/>
  <outline>
    <contour>
      <point x="18" y="566" type="curve"/>
      <point x="538" y="566" type="line"/>
      <point x="538" y="590"/>
      <point x="538" y="566"/>
      <point x="538" y="590" type="curve"/>
      <point x="18" y="590" type="line"/>
      <point x="18" y="566"/>
      <point x="18" y="590"/>
    </contour>
    <contour>
      <point x="161" y="18" type="curve"/>
      <point x="161" y="588" type="line"/>
      <point x="137" y="588"/>
      <point x="161" y="588"/>
      <point x="137" y="588" type="curve"/>
      <point x="137" y="18" type="line"/>
      <point x="161" y="18"/>
      <point x="137" y="18"/>
    </contour>
    <contour>
      <point x="428" y="18" type="curve"/>
      <point x="428" y="588" type="line"/>
      <point x="404" y="588"/>
      <point x="428" y="588"/>
      <point x="404" y="588" type="curve"/>
      <point x="404" y="18" type="line"/>
      <point x="428" y="18"/>
      <point x="404" y="18"/>
    </contour>
  </outline>
</glyph>
<glyph name="dvAnusvara" format="1">
  <advance width="0"/>
  <unicode hex="0902"/>
  <outline>
    <contour>
      <point x="-94" y="740" type="move" name="_abvm.e"/>
    </contour>
    <contour>
      <point x="-96" y="892" type="curve"/>
      <point x="-96" y="901"/>
      <point x="-102" y="907"/>
      <point x="-111" y="907" type="curve"/>
      <point x="-121" y="907"/>
      <point x="-127" y="900"/>
      <point x="-127" y="892" type="curve"/>
      <point x="-96" y="892"/>
      <point x="-127" y="892"/>
      <point x="-96" y="892" type="curve"/>
      <point x="-96" y="882"/>
      <point x="-102" y="877"/>
      <point x="-111" y="877" type="curve"/>
      <point x="-121" y="877"/>
      <point x="-127" y="883"/>
      <point x="-127" y="892" type="curve"/>
      <point x="-96" y="892"/>
      <point x="-127" y="892"/>
    </contour>
  </outline>
</glyph>
<glyph name="dvA" format="1">
  <advance width="713"/>
  <unicode hex="0905"/>
  <outline>
    <contour>
      <point x="563" y="453" type="line"/>
      <point x="528" y="406"/>
      <point x="483" y="389"/>
      <point x="424" y="388" type="curve" smooth="yes"/>
      <point x="362" y="388"/>
      <point x="313" y="396"/>
      <point x="259" y="426" type="curve"/>
      <point x="251" y="409" type="line"/>
      <point x="307" y="377"/>
      <point x="359" y="367"/>
      <point x="424" y="368" type="curve" smooth="yes"/>
      <point x="490" y="369"/>
      <point x="543" y="388"/>
      <point x="579" y="443" type="curve"/>
    </contour>
    <component base="dvA_base"/>
    <component base="dvStem" xOffset="392"/>
  </outline>
</glyph>
<glyph name="dvU" format="1">
  <advance width="507"/>
  <unicode hex="0909"/>
  <outline>
    <contour>
      <point x="74" y="160" type="curve"/>
      <point x="116" y="105"/>
      <point x="173" y="70"/>
      <point x="244" y="70" type="curve"/>
      <point x="351" y="65"/>
      <point x="420" y="137"/>
      <point x="418" y="248" type="curve"/>
      <point x="417" y="363"/>
      <point x="323" y="417"/>
      <point x="203" y="417" type="curve"/>
      <point x="203" y="402"/>
      <point x="203" y="414"/>
      <point x="203" y="399" type="curve"/>
      <point x="311" y="399"/>
      <point x="393" y="350"/>
      <point x="394" y="246" type="curve"/>
      <point x="396" y="151"/>
      <point x="338" y="87"/>
      <point x="246" y="91" type="curve"/>
      <point x="181" y="91"/>
      <point x="131" y="124"/>
      <point x="91" y="174" type="curve"/>
      <point x="77" y="162"/>
      <point x="88" y="172"/>
    </contour>
    <contour>
      <point x="240" y="701" type="line"/>
      <point x="330" y="701"/>
      <point x="380" y="649"/>
      <point x="379" y="565" type="curve"/>
      <point x="379" y="469"/>
      <point x="305" y="422"/>
      <point x="203" y="422" type="curve"/>
      <point x="203" y="405"/>
      <point x="203" y="419"/>
      <point x="203" y="402" type="curve"/>
      <point x="320" y="402"/>
      <point x="404" y="458"/>
      <point x="404" y="568" type="curve"/>
      <point x="403" y="664"/>
      <point x="345" y="721"/>
      <point x="243" y="721" type="curve"/>
    </contour>
    <component base="dvTopbar" xScale="0.803745246962" xOffset="-12"/>
  </outline>
</glyph>
<glyph name="dvUU" format="1">
  <advance width="780"/>
  <unicode hex="090A"/>
  <outline>
    <contour>
      <point x="585" y="116" type="curve"/>
      <point x="586" y="94" type="line"/>
      <point x="675" y="94"/>
      <point x="737" y="152"/>
      <point x="737" y="241" type="curve"/>
      <point x="737" y="327"/>
      <point x="666" y="373"/>
      <point x="573" y="373" type="curve"/>
      <point x="470" y="373"/>
      <point x="410" y="297"/>
      <point x="392" y="191" type="curve"/>
      <point x="412" y="185" type="line"/>
      <point x="430" y="281"/>
      <point x="480" y="352"/>
      <point x="573" y="352" type="curve"/>
      <point x="651" y="352"/>
      <point x="712" y="314"/>
      <point x="712" y="241" type="curve"/>
      <point x="712" y="165"/>
      <point x="660" y="116"/>
    </contour>
    <component base="dvU"/>
    <component base="dvTopbar" xScale="0.853891303355" xOffset="228"/>
  </outline>
</glyph>
<glyph name="dvvR" format="1">
  <advance width="803"/>
  <unicode hex="090B"/>
  <outline>
    <contour>
      <point x="696" y="575" type="line"/>
      <point x="696" y="489"/>
      <point x="655" y="428"/>
      <point x="570" y="428" type="curve"/>
      <point x="525" y="428"/>
      <point x="484" y="428"/>
      <point x="438" y="428" type="curve"/>
      <point x="438" y="416"/>
      <point x="438" y="417"/>
      <point x="438" y="406" type="curve"/>
      <point x="484" y="406"/>
      <point x="526" y="406"/>
      <point x="571" y="406" type="curve"/>
      <point x="668" y="406"/>
      <point x="720" y="475"/>
      <point x="720" y="575" type="curve"/>
    </contour>
    <contour>
      <point x="453" y="0" type="curve"/>
      <point x="453" y="240"/>
      <point x="453" y="479"/>
      <point x="453" y="719" type="curve"/>
      <point x="430" y="719"/>
      <point x="453" y="719"/>
      <point x="430" y="719" type="curve"/>
      <point x="430" y="479"/>
      <point x="430" y="240"/>
      <point x="430" y="0" type="curve"/>
      <point x="453" y="0"/>
      <point x="430" y="0"/>
    </contour>
    <component base="dvmE" xScale="0.939816076243" yScale="0.939816076243" xOffset="804" yOffset="-252"/>
    <component base="dvTopbar" xScale="1.25219577786" xOffset="-10"/>
    <component base="dvStroke_down" yScale="1.16743511218" xOffset="305" yOffset="232"/>
    <component base="dvmvR" xOffset="802" yOffset="213"/>
    <component base="dvRaker" xOffset="115" yOffset="53"/>
  </outline>
</glyph>
<glyph name="dvDDA" format="1">
  <advance width="493"/>
  <unicode hex="0921"/>
  <outline>
    <contour>
      <point x="316" y="-67" type="move" name="blwm.virama"/>
    </contour>
    <contour>
      <point x="346" y="720" type="move" name="abvm.e"/>
    </contour>
    <contour>
      <point x="335" y="-155" type="move" name="blwm.u"/>
    </contour>
    <component base="dvTopbar" xScale="0.779829447717" xOffset="-10"/>
    <component base="dvDDA_base" xOffset="-9"/>
  </outline>
</glyph>
<glyph name="dvmUU" format="1">
  <advance width="0"/>
  <unicode hex="0942"/>
  <outline>
    <contour>
      <point x="-38" y="40" type="move" name="_blwm.u"/>
    </contour>
    <contour>
      <point x="-86" y="-231" type="line"/>
      <point x="-162" y="-231"/>
      <point x="-209" y="-177"/>
      <point x="-209" y="-100" type="curve"/>
      <point x="-209" y="-22"/>
      <point x="-158" y="31"/>
      <point x="-81" y="31" type="curve"/>
      <point x="41" y="31"/>
      <point x="81" y="-101"/>
      <point x="93" y="-247" type="curve"/>
      <point x="117" y="-242" type="line"/>
      <point x="101" y="-87"/>
      <point x="62" y="52"/>
      <point x="-81" y="52" type="curve"/>
      <point x="-172" y="52"/>
      <point x="-234" y="-9"/>
      <point x="-234" y="-100" type="curve"/>
      <point x="-234" y="-191"/>
      <point x="-176" y="-253"/>
      <point x="-87" y="-253" type="curve"/>
    </contour>
  </outline>
</glyph>
<glyph name="dvmvR" format="1">
  <advance width="0"/>
  <unicode hex="0943"/>
  <outline>
    <contour>
      <point x="-67" y="32" type="move" name="_blwm.u"/>
    </contour>
    <contour>
      <point x="-49" y="-236" type="line"/>
      <point x="-142" y="-236"/>
      <point x="-217" y="-194"/>
      <point x="-217" y="-107" type="curve"/>
      <point x="-217" y="-24"/>
      <point x="-163" y="32"/>
      <point x="-82" y="32" type="curve"/>
      <point x="-82" y="53" type="line"/>
      <point x="-177" y="53"/>
      <point x="-241" y="-11"/>
      <point x="-241" y="-106" type="curve"/>
      <point x="-241" y="-205"/>
      <point x="-155" y="-257"/>
      <point x="-49" y="-257" type="curve"/>
    </contour>
  </outline>
</glyph>
<glyph name="dvmvRR" format="1">
  <advance width="0"/>
  <unicode hex="0944"/>
  <outline>
    <contour>
      <point x="-91" y="15" type="move" name="_blwm.u"/>
    </contour>
    <contour>
      <point x="-104" y="-179" type="line"/>
      <point x="-171" y="-179"/>
      <point x="-222" y="-146"/>
      <point x="-222" y="-83" type="curve"/>
      <point x="-222" y="-21"/>
      <point x="-171" y="12"/>
      <point x="-105" y="12" type="curve"/>
      <point x="-106" y="34" type="line"/>
      <point x="-185" y="34"/>
      <point x="-245" y="-7"/>
      <point x="-245" y="-82" type="curve"/>
      <point x="-245" y="-159"/>
      <point x="-184" y="-200"/>
      <point x="-104" y="-200" type="curve"/>
    </contour>
    <contour>
      <point x="-104" y="-186" type="line"/>
      <point x="-183" y="-186"/>
      <point x="-243" y="-228"/>
      <point x="-243" y="-303" type="curve"/>
      <point x="-243" y="-375"/>
      <point x="-190" y="-420"/>
      <point x="-115" y="-420" type="curve"/>
      <point x="-87" y="-420"/>
      <point x="-65" y="-410"/>
      <point x="-44" y="-392" type="curve"/>
      <point x="-56" y="-377" type="line"/>
      <point x="-73" y="-391"/>
      <point x="-92" y="-399"/>
      <point x="-115" y="-399" type="curve"/>
      <point x="-176" y="-399"/>
      <point x="-220" y="-362"/>
      <point x="-220" y="-303" type="curve"/>
      <point x="-220" y="-241"/>
      <point x="-170" y="-207"/>
      <point x="-104" y="-207" type="curve"/>
    </contour>
  </outline>
</glyph>
<glyph name="dvmEcandra" format="1">
  <advance width="0"/>
  <unicode hex="0945"/>
  <outline>
    <contour>
      <point x="-98" y="741" type="move" name="_abvm.e"/>
    </contour>
    <contour>
      <point x="0" y="975" type="curve"/>
      <point x="0" y="904"/>
      <point x="-42" y="860"/>
      <point x="-113" y="860" type="curve"/>
      <point x="-183" y="860"/>
      <point x="-222" y="905"/>
      <point x="-222" y="976" type="curve"/>
      <point x="-246" y="976"/>
      <point x="-222" y="976"/>
      <point x="-246" y="976" type="curve"/>
      <point x="-246" y="891"/>
      <point x="-198" y="839"/>
      <point x="-115" y="839" type="curve"/>
      <point x="-29" y="839"/>
      <point x="23" y="889"/>
      <point x="23" y="975" type="curve"/>
      <point x="0" y="975"/>
      <point x="23" y="975"/>
    </contour>
  </outline>
</glyph>
<glyph name="dvVirama" format="1">
  <advance width="0"/>
  <unicode hex="094D"/>
  <outline>
    <contour>
      <point x="-108" y="0" type="move" name="_blwm.virama"/>
    </contour>
    <contour>
      <point x="5" y="-219" type="line"/>
      <point x="-110" y="-62" type="line"/>
      <point x="-137" y="-62" type="line"/>
      <point x="-28" y="-219" type="line"/>
    </contour>
  </outline>
</glyph>
<glyph name="dvDDxA" format="1">
  <advance width="488"/>
  <unicode hex="095C"/>
  <outline>
    <contour>
      <point x="348" y="-216" type="move" name="blwm.virama"/>
    </contour>
    <contour>
      <point x="347" y="718" type="move" name="abvm.e"/>
    </contour>
    <contour>
      <point x="333" y="-299" type="move" name="blwm.u"/>
    </contour>
    <component base="dvDDA" xOffset="1"/>
    <component base="dvAnusvara" xOffset="371" yOffset="-1003"/>
  </outline>
</glyph>
<glyph name="dvmvLL" format="1">
  <advance width="0"/>
  <unicode hex="0963"/>
  <outline>
    <contour>
      <point x="470" y="0" type="move" name="_blwm.u"/>
    </contour>
    <contour>
      <point x="293" y="-254" type="line"/>
      <point x="219" y="-254"/>
      <point x="183" y="-192"/>
      <point x="183" y="-113" type="curve"/>
      <point x="183" y="-56"/>
      <point x="208" y="-10"/>
      <point x="261" y="-10" type="curve"/>
      <point x="329" y="-10"/>
      <point x="336" y="-83"/>
      <point x="336" y="-161" type="curve"/>
      <point x="358" y="-161" type="line"/>
      <point x="358" y="-70"/>
      <point x="340" y="11"/>
      <point x="261" y="11" type="curve"/>
      <point x="194" y="11"/>
      <point x="158" y="-42"/>
      <point x="158" y="-113" type="curve"/>
      <point x="158" y="-205"/>
      <point x="205" y="-276"/>
      <point x="292" y="-276" type="curve"/>
    </contour>
    <contour>
      <point x="537" y="-140" type="line"/>
      <point x="537" y="-59"/>
      <point x="513" y="11"/>
      <point x="441" y="11" type="curve"/>
      <point x="361" y="11"/>
      <point x="343" y="-70"/>
      <point x="343" y="-161" type="curve"/>
      <point x="365" y="-161" type="line"/>
      <point x="365" y="-83"/>
      <point x="372" y="-10"/>
      <point x="441" y="-10" type="curve"/>
      <point x="501" y="-10"/>
      <point x="511" y="-72"/>
      <point x="511" y="-140" type="curve"/>
    </contour>
    <contour>
      <point x="533" y="-224" type="line"/>
      <point x="493" y="-224"/>
      <point x="454" y="-227"/>
      <point x="454" y="-192" type="curve"/>
      <point x="454" y="-157"/>
      <point x="493" y="-153"/>
      <point x="535" y="-153" type="curve"/>
      <point x="534" y="-131" type="line"/>
      <point x="479" y="-131"/>
      <point x="431" y="-144"/>
      <point x="431" y="-192" type="curve"/>
      <point x="431" y="-238"/>
      <point x="480" y="-245"/>
      <point x="533" y="-245" type="curve"/>
    </contour>
    <contour>
      <point x="533" y="-252" type="curve"/>
      <point x="533" y="-231" type="line"/>
      <point x="480" y="-231"/>
      <point x="432" y="-243"/>
      <point x="432" y="-289" type="curve"/>
      <point x="432" y="-329"/>
      <point x="462" y="-352"/>
      <point x="503" y="-352" type="curve"/>
      <point x="527" y="-352"/>
      <point x="546" y="-348"/>
      <point x="562" y="-330" type="curve"/>
      <point x="549" y="-315" type="line"/>
      <point x="537" y="-329"/>
      <point x="522" y="-331"/>
      <point x="503" y="-331" type="curve"/>
      <point x="476" y="-331"/>
      <point x="455" y="-316"/>
      <point x="455" y="-290" type="curve"/>
      <point x="455" y="-256"/>
      <point x="493" y="-252"/>
    </contour>
  </outline>
</glyph>
<glyph name="dvTwo" format="1">
  <advance width="505"/>
  <unicode hex="0968"/>
  <outline>
    <contour>
      <point x="431" y="22" type="curve"/>
      <point x="431" y="142"/>
      <point x="431" y="22"/>
      <point x="431" y="142" type="curve"/>
      <point x="410" y="142"/>
      <point x="431" y="142"/>
      <point x="410" y="142" type="curve"/>
      <point x="410" y="22"/>
      <point x="410" y="142"/>
      <point x="410" y="22" type="curve"/>
      <point x="431" y="22"/>
      <point x="410" y="22"/>
    </contour>
    <contour>
      <point x="51" y="0" type="curve"/>
      <point x="189" y="0"/>
      <point x="300" y="0"/>
      <point x="431" y="0" type="curve"/>
      <point x="431" y="22"/>
      <point x="431" y="0"/>
      <point x="431" y="22" type="curve"/>
      <point x="296" y="22"/>
      <point x="185" y="22"/>
      <point x="51" y="22" type="curve"/>
      <point x="51" y="0"/>
      <point x="51" y="22"/>
    </contour>
    <contour>
      <point x="88" y="563" type="curve"/>
      <point x="126" y="642"/>
      <point x="166" y="703"/>
      <point x="251" y="703" type="curve"/>
      <point x="349" y="703"/>
      <point x="395" y="633"/>
      <point x="395" y="526" type="curve"/>
      <point x="395" y="402"/>
      <point x="310" y="298"/>
      <point x="249" y="237" type="curve"/>
      <point x="183" y="165"/>
      <point x="117" y="93"/>
      <point x="51" y="22" type="curve"/>
      <point x="62" y="0"/>
      <point x="51" y="22"/>
      <point x="62" y="0" type="curve"/>
      <point x="129" y="73"/>
      <point x="197" y="146"/>
      <point x="264" y="220" type="curve"/>
      <point x="331" y="286"/>
      <point x="419" y="392"/>
      <point x="419" y="527" type="curve"/>
      <point x="419" y="648"/>
      <point x="365" y="727"/>
      <point x="252" y="727" type="curve"/>
      <point x="158" y="727"/>
      <point x="105" y="662"/>
      <point x="67" y="574" type="curve"/>
      <point x="88" y="563"/>
      <point x="67" y="574"/>
    </contour>
  </outline>
</glyph>
<glyph name="dvThree" format="1">
  <advance width="484"/>
  <unicode hex="0969"/>
  <outline>
    <contour>
      <point x="61" y="56" type="curve"/>
      <point x="113" y="19"/>
      <point x="156" y="-5"/>
      <point x="221" y="-5" type="curve"/>
      <point x="347" y="-5"/>
      <point x="419" y="64"/>
      <point x="419" y="195" type="curve"/>
      <point x="419" y="325"/>
      <point x="304" y="390"/>
      <point x="144" y="390" type="curve"/>
      <point x="144" y="380"/>
      <point x="144" y="382"/>
      <point x="144" y="371" type="curve"/>
      <point x="282" y="371"/>
      <point x="395" y="312"/>
      <point x="395" y="194" type="curve"/>
      <point x="395" y="78"/>
      <point x="320" y="19"/>
      <point x="222" y="19" type="curve"/>
      <point x="163" y="19"/>
      <point x="125" y="40"/>
      <point x="74" y="73" type="curve"/>
      <point x="61" y="56"/>
      <point x="74" y="73"/>
    </contour>
    <contour>
      <point x="84" y="627" type="curve"/>
      <point x="111" y="664"/>
      <point x="158" y="703"/>
      <point x="219" y="703" type="curve"/>
      <point x="313" y="703"/>
      <point x="366" y="648"/>
      <point x="366" y="552" type="curve"/>
      <point x="366" y="449"/>
      <point x="267" y="394"/>
      <point x="144" y="394" type="curve"/>
      <point x="144" y="384"/>
      <point x="144" y="385"/>
      <point x="144" y="375" type="curve"/>
      <point x="284" y="375"/>
      <point x="390" y="434"/>
      <point x="390" y="553" type="curve"/>
      <point x="390" y="662"/>
      <point x="329" y="727"/>
      <point x="221" y="727" type="curve"/>
      <point x="152" y="727"/>
      <point x="97" y="682"/>
      <point x="67" y="640" type="curve"/>
      <point x="84" y="627"/>
      <point x="67" y="640"/>
    </contour>
  </outline>
</glyph>
<glyph name="dvSeven" format="1">
  <advance width="488"/>
  <unicode hex="096D"/>
  <outline>
    <contour>
      <point x="73" y="596" type="line"/>
      <point x="73" y="716" type="line"/>
      <point x="52" y="716" type="line"/>
      <point x="52" y="596" type="line"/>
    </contour>
    <contour>
      <point x="52" y="700" type="line"/>
      <point x="469" y="700" type="line"/>
      <point x="469" y="722" type="line"/>
      <point x="52" y="722" type="line"/>
    </contour>
    <contour>
      <point x="453" y="722" type="line"/>
      <point x="91" y="0" type="line"/>
      <point x="119" y="0" type="line"/>
      <point x="469" y="700" type="line"/>
    </contour>
  </outline>
</glyph>
<glyph name="emdash" format="1">
  <advance width="756"/>
  <unicode hex="2014"/>
  <outline>
    <contour>
      <point x="87" y="260" type="curve"/>
      <point x="281" y="260"/>
      <point x="475" y="260"/>
      <point x="668" y="260" type="curve"/>
      <point x="668" y="284"/>
      <point x="668" y="260"/>
      <point x="668" y="284" type="curve"/>
      <point x="475" y="284"/>
      <point x="281" y="284"/>
      <point x="87" y="284" type="curve"/>
      <point x="87" y="260"/>
      <point x="87" y="284"/>
    </contour>
  </outline>
</glyph>
<glyph name="quotedblleft" format="1">
  <advance width="251"/>
  <unicode hex="201C"/>
  <outline>
    <contour>
      <point x="219" y="731" type="line"/>
      <point x="193" y="707"/>
      <point x="171" y="678"/>
      <point x="171" y="628" type="curve"/>
      <point x="171" y="608"/>
      <point x="174" y="591"/>
      <point x="192" y="591" type="curve"/>
      <point x="205" y="591"/>
      <point x="212" y="597"/>
      <point x="212" y="609" type="curve"/>
      <point x="212" y="619"/>
      <point x="208" y="625"/>
      <point x="197" y="630" type="curve"/>
      <point x="197" y="652"/>
      <point x="208" y="689"/>
      <point x="234" y="714" type="curve"/>
    </contour>
    <contour>
      <point x="99" y="731" type="line"/>
      <point x="72" y="707"/>
      <point x="51" y="678"/>
      <point x="51" y="628" type="curve"/>
      <point x="51" y="608"/>
      <point x="54" y="591"/>
      <point x="72" y="591" type="curve"/>
      <point x="85" y="591"/>
      <point x="92" y="597"/>
      <point x="92" y="609" type="curve"/>
      <point x="92" y="619"/>
      <point x="88" y="625"/>
      <point x="77" y="630" type="curve"/>
      <point x="77" y="652"/>
      <point x="88" y="689"/>
      <point x="114" y="714" type="curve"/>
    </contour>
  </outline>
</glyph>
<glyph name="dagger" format="1">
  <advance width="589"/>
  <unicode hex="2020"/>
  <outline>
    <contour>
      <point x="35" y="452" type="curve"/>
      <point x="554" y="452" type="line"/>
      <point x="554" y="476"/>
      <point x="554" y="452"/>
      <point x="554" y="476" type="curve"/>
      <point x="35" y="476" type="line"/>
      <point x="35" y="452"/>
      <point x="35" y="476"/>
    </contour>
    <contour>
      <point x="305" y="-299" type="curve"/>
      <point x="305" y="743" type="line"/>
      <point x="281" y="743"/>
      <point x="305" y="743"/>
      <point x="281" y="743" type="curve"/>
      <point x="281" y="-299" type="line"/>
      <point x="305" y="-299"/>
      <point x="281" y="-299"/>
    </contour>
  </outline>
</glyph>
<glyph name="perthousand" format="1">
  <advance width="1241"/>
  <unicode hex="2030"/>
  <outline>
    <contour>
      <point x="280" y="-93" type="line"/>
      <point x="653" y="757" type="line"/>
      <point x="625" y="757" type="line"/>
      <point x="253" y="-93" type="line"/>
    </contour>
    <contour>
      <point x="65" y="556" type="curve"/>
      <point x="65" y="661"/>
      <point x="95" y="742"/>
      <point x="191" y="742" type="curve"/>
      <point x="286" y="743"/>
      <point x="317" y="662"/>
      <point x="317" y="557" type="curve"/>
      <point x="317" y="451"/>
      <point x="288" y="369"/>
      <point x="193" y="369" type="curve"/>
      <point x="96" y="369"/>
      <point x="65" y="449"/>
      <point x="65" y="556" type="curve"/>
      <point x="56" y="556"/>
      <point x="51" y="556"/>
      <point x="42" y="556" type="curve"/>
      <point x="42" y="437"/>
      <point x="83" y="348"/>
      <point x="192" y="348" type="curve"/>
      <point x="301" y="348"/>
      <point x="341" y="438"/>
      <point x="341" y="558" type="curve"/>
      <point x="341" y="675"/>
      <point x="300" y="764"/>
      <point x="192" y="764" type="curve"/>
      <point x="83" y="764"/>
      <point x="42" y="674"/>
      <point x="42" y="556" type="curve"/>
      <point x="51" y="556"/>
      <point x="56" y="556"/>
    </contour>
    <contour>
      <point x="563" y="109" type="curve"/>
      <point x="563" y="214"/>
      <point x="594" y="295"/>
      <point x="690" y="295" type="curve"/>
      <point x="785" y="296"/>
      <point x="816" y="215"/>
      <point x="816" y="110" type="curve"/>
      <point x="816" y="4"/>
      <point x="787" y="-78"/>
      <point x="692" y="-78" type="curve"/>
      <point x="595" y="-78"/>
      <point x="563" y="2"/>
      <point x="563" y="109" type="curve"/>
      <point x="554" y="109"/>
      <point x="549" y="109"/>
      <point x="540" y="109" type="curve"/>
      <point x="540" y="-10"/>
      <point x="581" y="-99"/>
      <point x="691" y="-99" type="curve"/>
      <point x="799" y="-99"/>
      <point x="840" y="-9"/>
      <point x="840" y="111" type="curve"/>
      <point x="840" y="228"/>
      <point x="799" y="317"/>
      <point x="691" y="317" type="curve"/>
      <point x="581" y="317"/>
      <point x="540" y="227"/>
      <point x="540" y="109" type="curve"/>
      <point x="549" y="109"/>
      <point x="554" y="109"/>
    </contour>
    <contour>
      <point x="925" y="109" type="curve"/>
      <point x="925" y="214"/>
      <point x="956" y="295"/>
      <point x="1052" y="295" type="curve"/>
      <point x="1147" y="296"/>
      <point x="1178" y="215"/>
      <point x="1178" y="110" type="curve"/>
      <point x="1178" y="4"/>
      <point x="1149" y="-78"/>
      <point x="1054" y="-78" type="curve"/>
      <point x="957" y="-78"/>
      <point x="925" y="2"/>
      <point x="925" y="109" type="curve"/>
      <point x="916" y="109"/>
      <point x="911" y="109"/>
      <point x="902" y="109" type="curve"/>
      <point x="902" y="-10"/>
      <point x="944" y="-99"/>
      <point x="1053" y="-99" type="curve"/>
      <point x="1161" y="-99"/>
      <point x="1202" y="-9"/>
      <point x="1202" y="111" type="curve"/>
      <point x="1202" y="228"/>
      <point x="1161" y="317"/>
      <point x="1053" y="317" type="curve"/>
      <point x="944" y="317"/>
      <point x="902" y="227"/>
      <point x="902" y="109" type="curve"/>
      <point x="911" y="109"/>
      <point x="916" y="109"/>
    </contour>
  </outline>
</glyph>
<glyph name="guilsinglleft" format="1">
  <advance width="399"/>
  <unicode hex="2039"/>
  <outline>
    <contour>
      <point x="302" y="399" type="curve"/>
      <point x="76" y="288" type="line"/>
      <point x="76" y="264"/>
      <point x="76" y="288"/>
      <point x="76" y="264" type="curve"/>
      <point x="302" y="375" type="line"/>
      <point x="302" y="399"/>
      <point x="302" y="375"/>
    </contour>
    <contour>
      <point x="303" y="177" type="curve"/>
      <point x="76" y="288" type="line"/>
      <point x="76" y="264"/>
      <point x="76" y="288"/>
      <point x="76" y="264" type="curve"/>
      <point x="303" y="154" type="line"/>
      <point x="303" y="177"/>
      <point x="303" y="154"/>
    </contour>
  </outline>
</glyph>
<glyph name="guilsinglright" format="1">
  <advance width="399"/>
  <unicode hex="203A"/>
  <outline>
    <contour>
      <point x="97" y="399" type="curve"/>
      <point x="323" y="288" type="line"/>
      <point x="323" y="264"/>
      <point x="323" y="288"/>
      <point x="323" y="264" type="curve"/>
      <point x="97" y="375" type="line"/>
      <point x="97" y="399"/>
      <point x="97" y="375"/>
    </contour>
    <contour>
      <point x="96" y="177" type="curve"/>
      <point x="323" y="288" type="line"/>
      <point x="323" y="264"/>
      <point x="323" y="288"/>
      <point x="323" y="264" type="curve"/>
      <point x="96" y="154" type="line"/>
      <point x="96" y="177"/>
      <point x="96" y="154"/>
    </contour>
  </outline>
</glyph>
<glyph name="fraction" format="1">
  <advance width="333"/>
  <unicode hex="2044"/>
  <outline>
    <contour>
      <point x="-184" y="759" type="move" name="top"/>
    </contour>
    <contour>
      <point x="369" y="-95" type="move" name="bottom"/>
    </contour>
    <contour>
      <point x="-52" y="-93" type="line"/>
      <point x="320" y="757" type="line"/>
      <point x="292" y="757" type="line"/>
      <point x="-79" y="-93" type="line"/>
    </contour>
  </outline>
</glyph>
<glyph name="foursuperior" format="1">
  <advance width="453"/>
  <unicode hex="2074"/>
  <outline>
    <contour>
      <point x="251" y="704" type="move" name="_top"/>
    </contour>
    <contour>
      <point x="253" y="286" type="move" name="_bottom"/>
    </contour>
    <contour>
      <point x="385" y="422" type="line"/>
      <point x="54" y="422" type="line"/>
      <point x="54" y="402" type="line"/>
      <point x="385" y="402" type="line"/>
    </contour>
    <contour>
      <point x="68" y="403" type="line"/>
      <point x="285" y="708" type="line"/>
      <point x="262" y="717" type="line"/>
      <point x="54" y="422" type="line"/>
    </contour>
    <contour>
      <point x="285" y="285" type="line"/>
      <point x="285" y="717" type="line"/>
      <point x="262" y="717" type="line"/>
      <point x="262" y="285" type="line"/>
    </contour>
    <contour>
      <point x="273" y="305" type="line"/>
      <point x="186" y="305" type="line"/>
      <point x="186" y="284" type="line"/>
      <point x="273" y="284" type="line"/>
    </contour>
    <contour>
      <point x="273" y="284" type="line"/>
      <point x="360" y="284" type="line"/>
      <point x="360" y="305" type="line"/>
      <point x="273" y="305" type="line"/>
    </contour>
  </outline>
</glyph>
<glyph name="trademark" format="1">
  <advance width="867"/>
  <unicode hex="2122"/>
  <outline>
    <contour>
      <point x="78" y="681" type="curve"/>
      <point x="78" y="651"/>
      <point x="78" y="622"/>
      <point x="78" y="593" type="curve"/>
      <point x="100" y="593"/>
      <point x="78" y="593"/>
      <point x="100" y="593" type="curve"/>
      <point x="100" y="615"/>
      <point x="100" y="637"/>
      <point x="100" y="660" type="curve"/>
      <point x="78" y="681"/>
      <point x="100" y="660"/>
    </contour>
    <contour>
      <point x="348" y="660" type="curve"/>
      <point x="348" y="637"/>
      <point x="348" y="615"/>
      <point x="348" y="593" type="curve"/>
      <point x="370" y="593"/>
      <point x="348" y="593"/>
      <point x="370" y="593" type="curve"/>
      <point x="370" y="622"/>
      <point x="370" y="651"/>
      <point x="370" y="681" type="curve"/>
      <point x="348" y="660"/>
      <point x="370" y="681"/>
    </contour>
    <contour>
      <point x="217" y="276" type="curve"/>
      <point x="243" y="276"/>
      <point x="268" y="276"/>
      <point x="294" y="276" type="curve"/>
      <point x="294" y="298"/>
      <point x="294" y="276"/>
      <point x="294" y="298" type="curve"/>
      <point x="276" y="298"/>
      <point x="259" y="298"/>
      <point x="240" y="298" type="curve"/>
      <point x="217" y="276"/>
      <point x="240" y="298"/>
    </contour>
    <contour>
      <point x="240" y="298" type="curve"/>
      <point x="214" y="298"/>
      <point x="188" y="298"/>
      <point x="161" y="298" type="curve"/>
      <point x="161" y="276"/>
      <point x="161" y="298"/>
      <point x="161" y="276" type="curve"/>
      <point x="180" y="276"/>
      <point x="198" y="276"/>
      <point x="217" y="276" type="curve"/>
      <point x="240" y="298"/>
      <point x="217" y="276"/>
    </contour>
    <contour>
      <point x="240" y="298" type="curve"/>
      <point x="240" y="426"/>
      <point x="240" y="553"/>
      <point x="240" y="681" type="curve"/>
      <point x="217" y="660"/>
      <point x="240" y="681"/>
      <point x="217" y="660" type="curve"/>
      <point x="217" y="533"/>
      <point x="217" y="404"/>
      <point x="217" y="276" type="curve"/>
      <point x="240" y="298"/>
      <point x="217" y="276"/>
    </contour>
    <contour>
      <point x="100" y="660" type="curve"/>
      <point x="183" y="660"/>
      <point x="265" y="660"/>
      <point x="348" y="660" type="curve"/>
      <point x="370" y="681"/>
      <point x="348" y="660"/>
      <point x="370" y="681" type="curve"/>
      <point x="273" y="681"/>
      <point x="176" y="681"/>
      <point x="78" y="681" type="curve"/>
      <point x="100" y="660"/>
      <point x="78" y="681"/>
    </contour>
    <contour>
      <point x="704" y="276" type="curve"/>
      <point x="731" y="276"/>
      <point x="757" y="276"/>
      <point x="782" y="276" type="curve"/>
      <point x="782" y="298"/>
      <point x="782" y="276"/>
      <point x="782" y="298" type="curve"/>
      <point x="763" y="298"/>
      <point x="745" y="298"/>
      <point x="725" y="298" type="curve"/>
      <point x="704" y="276"/>
      <point x="725" y="298"/>
    </contour>
    <contour>
      <point x="725" y="298" type="curve"/>
      <point x="700" y="298"/>
      <point x="676" y="298"/>
      <point x="651" y="298" type="curve"/>
      <point x="651" y="276"/>
      <point x="651" y="298"/>
      <point x="651" y="276" type="curve"/>
      <point x="669" y="276"/>
      <point x="686" y="276"/>
      <point x="705" y="276" type="curve"/>
      <point x="725" y="298"/>
      <point x="705" y="276"/>
    </contour>
    <contour>
      <point x="433" y="298" type="curve"/>
      <point x="414" y="298"/>
      <point x="396" y="298"/>
      <point x="377" y="298" type="curve"/>
      <point x="377" y="276"/>
      <point x="377" y="298"/>
      <point x="377" y="276" type="curve"/>
      <point x="403" y="276"/>
      <point x="428" y="276"/>
      <point x="453" y="276" type="curve"/>
      <point x="433" y="298"/>
      <point x="453" y="276"/>
    </contour>
    <contour>
      <point x="505" y="681" type="curve"/>
      <point x="476" y="681"/>
      <point x="448" y="681"/>
      <point x="420" y="681" type="curve"/>
      <point x="420" y="660"/>
      <point x="420" y="681"/>
      <point x="420" y="660" type="curve"/>
      <point x="443" y="660"/>
      <point x="465" y="660"/>
      <point x="487" y="660" type="curve"/>
      <point x="505" y="681"/>
      <point x="487" y="660"/>
    </contour>
    <contour>
      <point x="667" y="660" type="curve"/>
      <point x="692" y="660"/>
      <point x="715" y="660"/>
      <point x="740" y="660" type="curve"/>
      <point x="740" y="681"/>
      <point x="740" y="660"/>
      <point x="740" y="681" type="curve"/>
      <point x="710" y="681"/>
      <point x="681" y="681"/>
      <point x="650" y="681" type="curve"/>
      <point x="667" y="660"/>
      <point x="650" y="681"/>
    </contour>
    <contour>
      <point x="453" y="276" type="curve"/>
      <point x="472" y="276"/>
      <point x="490" y="276"/>
      <point x="509" y="276" type="curve"/>
      <point x="509" y="298"/>
      <point x="509" y="276"/>
      <point x="509" y="298" type="curve"/>
      <point x="483" y="298"/>
      <point x="458" y="298"/>
      <point x="433" y="298" type="curve"/>
      <point x="453" y="276"/>
      <point x="433" y="298"/>
    </contour>
    <contour>
      <point x="725" y="298" type="curve"/>
      <point x="676" y="669" type="line"/>
      <point x="655" y="669"/>
      <point x="676" y="669"/>
      <point x="655" y="669" type="curve"/>
      <point x="671" y="539"/>
      <point x="688" y="407"/>
      <point x="705" y="276" type="curve"/>
      <point x="725" y="298"/>
      <point x="705" y="276"/>
    </contour>
    <contour>
      <point x="454" y="276" type="curve"/>
      <point x="470" y="407"/>
      <point x="486" y="538"/>
      <point x="501" y="669" type="curve"/>
      <point x="479" y="669"/>
      <point x="501" y="669"/>
      <point x="479" y="669" type="curve"/>
      <point x="464" y="546"/>
      <point x="449" y="422"/>
      <point x="433" y="298" type="curve"/>
      <point x="454" y="276"/>
      <point x="433" y="298"/>
    </contour>
    <contour>
      <point x="587" y="277" type="curve"/>
      <point x="559" y="412"/>
      <point x="532" y="546"/>
      <point x="505" y="681" type="curve"/>
      <point x="487" y="660"/>
      <point x="505" y="681"/>
      <point x="487" y="660" type="curve"/>
      <point x="512" y="532"/>
      <point x="538" y="405"/>
      <point x="563" y="277" type="curve"/>
      <point x="587" y="277"/>
      <point x="563" y="277"/>
    </contour>
    <contour>
      <point x="595" y="277" type="curve"/>
      <point x="619" y="405"/>
      <point x="643" y="532"/>
      <point x="667" y="660" type="curve"/>
      <point x="650" y="681"/>
      <point x="667" y="660"/>
      <point x="650" y="681" type="curve"/>
      <point x="624" y="546"/>
      <point x="597" y="412"/>
      <point x="570" y="277" type="curve"/>
      <point x="595" y="277"/>
      <point x="570" y="277"/>
    </contour>
  </outline>
</glyph>
<glyph name="estimated" format="1">
  <advance width="680"/>
  <unicode hex="212E"/>
  <outline>
    <contour>
      <point x="593" y="118" type="curve"/>
      <point x="533" y="50"/>
      <point x="461" y="17"/>
      <point x="372" y="17" type="curve"/>
      <point x="178" y="17"/>
      <point x="94" y="171"/>
      <point x="94" y="381" type="curve"/>
      <point x="94" y="567"/>
      <point x="169" y="703"/>
      <point x="343" y="703" type="curve"/>
      <point x="511" y="703"/>
      <point x="588" y="578"/>
      <point x="588" y="405" type="curve"/>
      <point x="588" y="394"/>
      <point x="588" y="386"/>
      <point x="588" y="376" type="curve"/>
      <point x="591" y="379"/>
      <point x="594" y="381"/>
      <point x="597" y="385" type="curve"/>
      <point x="601" y="388"/>
      <point x="604" y="391"/>
      <point x="607" y="395" type="curve"/>
      <point x="419" y="395"/>
      <point x="270" y="395"/>
      <point x="82" y="395" type="curve"/>
      <point x="82" y="383"/>
      <point x="82" y="384"/>
      <point x="82" y="373" type="curve"/>
      <point x="270" y="373"/>
      <point x="419" y="373"/>
      <point x="607" y="373" type="curve"/>
      <point x="608" y="373"/>
      <point x="609" y="373"/>
      <point x="611" y="373" type="curve"/>
      <point x="611" y="374"/>
      <point x="611" y="374"/>
      <point x="611" y="376" type="curve"/>
      <point x="611" y="385"/>
      <point x="611" y="393"/>
      <point x="611" y="403" type="curve"/>
      <point x="611" y="590"/>
      <point x="526" y="725"/>
      <point x="345" y="725" type="curve"/>
      <point x="157" y="725"/>
      <point x="69" y="581"/>
      <point x="69" y="381" type="curve"/>
      <point x="69" y="157"/>
      <point x="163" y="-5"/>
      <point x="372" y="-5" type="curve"/>
      <point x="468" y="-5"/>
      <point x="547" y="30"/>
      <point x="610" y="104" type="curve"/>
      <point x="601" y="112"/>
      <point x="602" y="110"/>
    </contour>
    <contour>
      <point x="130" y="144" type="line"/>
      <point x="130" y="602" type="line"/>
      <point x="96" y="525" type="line"/>
      <point x="84" y="364" type="line"/>
      <point x="91" y="240" type="line"/>
    </contour>
    <contour>
      <point x="599" y="378" type="line"/>
      <point x="584" y="536" type="line"/>
      <point x="552" y="614" type="line"/>
      <point x="552" y="381" type="line"/>
    </contour>
  </outline>
</glyph>
<glyph name="summation" format="1">
  <advance width="465"/>
  <unicode hex="2211"/>
  <outline>
    <contour>
      <point x="373" y="700" type="line"/>
      <point x="373" y="607" type="line"/>
      <point x="394" y="607" type="line"/>
      <point x="394" y="722" type="line"/>
    </contour>
    <contour>
      <point x="395" y="0" type="line"/>
      <point x="395" y="116" type="line"/>
      <point x="373" y="116" type="line"/>
      <point x="373" y="21" type="line"/>
    </contour>
    <contour>
      <point x="394" y="722" type="line"/>
      <point x="49" y="722" type="line"/>
      <point x="49" y="700" type="line"/>
      <point x="373" y="700" type="line"/>
    </contour>
    <contour>
      <point x="48" y="0" type="line"/>
      <point x="395" y="0" type="line"/>
      <point x="373" y="21" type="line"/>
      <point x="48" y="21" type="line"/>
    </contour>
    <contour>
      <point x="327" y="386" type="line"/>
      <point x="48" y="21" type="line"/>
      <point x="58" y="0" type="line"/>
      <point x="356" y="386" type="line"/>
    </contour>
    <contour>
      <point x="356" y="386" type="line"/>
      <point x="59" y="719" type="line"/>
      <point x="49" y="700" type="line"/>
      <point x="327" y="386" type="line"/>
    </contour>
  </outline>
</glyph>
<glyph name="divisionslash" format="1">
  <advance width="402"/>
  <unicode hex="2215"/>
  <outline>
    <contour>
      <point x="29" y="-93" type="line"/>
      <point x="401" y="757" type="line"/>
      <point x="373" y="757" type="line"/>
      <point x="2" y="-93" type="line"/>
    </contour>
  </outline>
</glyph>
<glyph name="infinity" format="1">
  <advance width="775"/>
  <unicode hex="221E"/>
  <outline>
    <contour>
      <point x="221" y="234" type="curve"/>
      <point x="308" y="234"/>
      <point x="352" y="319"/>
      <point x="388" y="400" type="curve"/>
      <point x="421" y="475"/>
      <point x="473" y="547"/>
      <point x="547" y="547" type="curve"/>
      <point x="626" y="547"/>
      <point x="673" y="490"/>
      <point x="673" y="404" type="curve"/>
      <point x="673" y="316"/>
      <point x="628" y="257"/>
      <point x="547" y="257" type="curve"/>
      <point x="467" y="257"/>
      <point x="424" y="339"/>
      <point x="388" y="416" type="curve"/>
      <point x="352" y="494"/>
      <point x="307" y="569"/>
      <point x="222" y="569" type="curve"/>
      <point x="132" y="569"/>
      <point x="77" y="502"/>
      <point x="77" y="405" type="curve"/>
      <point x="77" y="305"/>
      <point x="129" y="234"/>
      <point x="221" y="234" type="curve"/>
      <point x="221" y="245"/>
      <point x="221" y="244"/>
      <point x="221" y="256" type="curve"/>
      <point x="142" y="256"/>
      <point x="102" y="319"/>
      <point x="102" y="405" type="curve"/>
      <point x="102" y="490"/>
      <point x="148" y="548"/>
      <point x="222" y="548" type="curve"/>
      <point x="295" y="548"/>
      <point x="340" y="474"/>
      <point x="371" y="400" type="curve"/>
      <point x="409" y="318"/>
      <point x="457" y="235"/>
      <point x="547" y="235" type="curve"/>
      <point x="641" y="235"/>
      <point x="698" y="303"/>
      <point x="698" y="404" type="curve"/>
      <point x="698" y="503"/>
      <point x="640" y="568"/>
      <point x="547" y="568" type="curve"/>
      <point x="461" y="568"/>
      <point x="408" y="495"/>
      <point x="371" y="416" type="curve"/>
      <point x="336" y="340"/>
      <point x="296" y="256"/>
      <point x="221" y="256" type="curve"/>
      <point x="221" y="244"/>
      <point x="221" y="245"/>
    </contour>
  </outline>
</glyph>
<glyph name="approxequal" format="1">
  <advance width="623"/>
  <unicode hex="2248"/>
  <outline>
    <contour>
      <point x="512" y="344" type="curve"/>
      <point x="497" y="296"/>
      <point x="480" y="241"/>
      <point x="423" y="241" type="curve"/>
      <point x="380" y="241"/>
      <point x="353" y="259"/>
      <point x="322" y="290" type="curve"/>
      <point x="288" y="323"/>
      <point x="260" y="345"/>
      <point x="213" y="345" type="curve"/>
      <point x="138" y="345"/>
      <point x="112" y="296"/>
      <point x="96" y="225" type="curve"/>
      <point x="115" y="219"/>
      <point x="96" y="225"/>
      <point x="115" y="219" type="curve"/>
      <point x="129" y="275"/>
      <point x="149" y="323"/>
      <point x="211" y="323" type="curve"/>
      <point x="250" y="323"/>
      <point x="273" y="306"/>
      <point x="300" y="279" type="curve"/>
      <point x="338" y="243"/>
      <point x="369" y="220"/>
      <point x="421" y="220" type="curve"/>
      <point x="493" y="220"/>
      <point x="514" y="274"/>
      <point x="532" y="339" type="curve"/>
      <point x="512" y="344"/>
      <point x="532" y="339"/>
    </contour>
    <contour>
      <point x="511" y="512" type="curve"/>
      <point x="496" y="465"/>
      <point x="479" y="409"/>
      <point x="422" y="409" type="curve"/>
      <point x="379" y="409"/>
      <point x="352" y="428"/>
      <point x="321" y="458" type="curve"/>
      <point x="287" y="491"/>
      <point x="259" y="513"/>
      <point x="212" y="513" type="curve"/>
      <point x="137" y="513"/>
      <point x="111" y="464"/>
      <point x="94" y="393" type="curve"/>
      <point x="114" y="387"/>
      <point x="94" y="393"/>
      <point x="114" y="387" type="curve"/>
      <point x="128" y="443"/>
      <point x="148" y="492"/>
      <point x="210" y="492" type="curve"/>
      <point x="249" y="492"/>
      <point x="272" y="474"/>
      <point x="299" y="447" type="curve"/>
      <point x="337" y="412"/>
      <point x="368" y="389"/>
      <point x="420" y="388" type="curve"/>
      <point x="492" y="388"/>
      <point x="513" y="443"/>
      <point x="531" y="508" type="curve"/>
      <point x="511" y="512"/>
      <point x="531" y="508"/>
    </contour>
  </outline>
</glyph>
<glyph name="notequal" format="1">
  <advance width="705"/>
  <unicode hex="2260"/>
  <outline>
    <contour>
      <point x="79" y="206" type="curve"/>
      <point x="261" y="206"/>
      <point x="444" y="206"/>
      <point x="627" y="206" type="curve"/>
      <point x="627" y="229"/>
      <point x="627" y="206"/>
      <point x="627" y="229" type="curve"/>
      <point x="444" y="229"/>
      <point x="261" y="229"/>
      <point x="79" y="229" type="curve"/>
      <point x="79" y="206"/>
      <point x="79" y="229"/>
    </contour>
    <contour>
      <point x="79" y="428" type="curve"/>
      <point x="261" y="428"/>
      <point x="444" y="428"/>
      <point x="627" y="428" type="curve"/>
      <point x="627" y="451"/>
      <point x="627" y="428"/>
      <point x="627" y="451" type="curve"/>
      <point x="444" y="451"/>
      <point x="261" y="451"/>
      <point x="79" y="451" type="curve"/>
      <point x="79" y="428"/>
      <point x="79" y="451"/>
    </contour>
    <contour>
      <point x="193" y="-91" type="line"/>
      <point x="565" y="759" type="line"/>
      <point x="537" y="759" type="line"/>
      <point x="166" y="-91" type="line"/>
    </contour>
  </outline>
</glyph>
<glyph name="lessequal" format="1">
  <advance width="694"/>
  <unicode hex="2264"/>
  <outline>
    <contour>
      <point x="613" y="678" type="curve"/>
      <point x="433" y="590"/>
      <point x="252" y="503"/>
      <point x="73" y="415" type="curve"/>
      <point x="73" y="391"/>
      <point x="73" y="413"/>
      <point x="73" y="389" type="curve"/>
      <point x="252" y="477"/>
      <point x="433" y="565"/>
      <point x="613" y="652" type="curve"/>
      <point x="613" y="676"/>
      <point x="613" y="654"/>
    </contour>
    <contour>
      <point x="613" y="149" type="curve"/>
      <point x="433" y="237"/>
      <point x="252" y="325"/>
      <point x="73" y="413" type="curve"/>
      <point x="73" y="389"/>
      <point x="73" y="411"/>
      <point x="73" y="387" type="curve"/>
      <point x="252" y="299"/>
      <point x="433" y="211"/>
      <point x="613" y="124" type="curve"/>
      <point x="613" y="147"/>
      <point x="613" y="126"/>
    </contour>
    <contour>
      <point x="73" y="0" type="curve"/>
      <point x="252" y="0"/>
      <point x="433" y="0"/>
      <point x="613" y="0" type="curve"/>
      <point x="613" y="23"/>
      <point x="613" y="0"/>
      <point x="613" y="23" type="curve"/>
      <point x="433" y="23"/>
      <point x="252" y="23"/>
      <point x="73" y="23" type="curve"/>
      <point x="73" y="0"/>
      <point x="73" y="23"/>
    </contour>
  </outline>
</glyph>
<glyph name="fl" format="1">
  <advance width="658"/>
  <unicode hex="FB02"/>
  <outline>
    <contour>
      <point x="190" y="0" type="curve"/>
      <point x="234" y="0"/>
      <point x="273" y="0"/>
      <point x="317" y="0" type="curve"/>
      <point x="317" y="22"/>
      <point x="317" y="0"/>
      <point x="317" y="22" type="curve"/>
      <point x="183" y="22"/>
      <point x="324" y="22"/>
      <point x="190" y="22" type="curve"/>
      <point x="190" y="0"/>
      <point x="190" y="22"/>
    </contour>
    <contour>
      <point x="190" y="22" type="curve"/>
      <point x="56" y="22"/>
      <point x="197" y="22"/>
      <point x="63" y="22" type="curve"/>
      <point x="63" y="0"/>
      <point x="63" y="22"/>
      <point x="63" y="0" type="curve"/>
      <point x="107" y="0"/>
      <point x="146" y="0"/>
      <point x="190" y="0" type="curve"/>
      <point x="190" y="22"/>
      <point x="190" y="0"/>
    </contour>
    <contour>
      <point x="28" y="511" type="curve"/>
      <point x="371" y="511" type="line"/>
      <point x="371" y="533"/>
      <point x="371" y="511"/>
      <point x="371" y="533" type="curve"/>
      <point x="28" y="533" type="line"/>
      <point x="28" y="511"/>
      <point x="28" y="533"/>
    </contour>
    <contour>
      <point x="202" y="0" type="curve"/>
      <point x="202" y="637" type="line"/>
      <point x="202" y="722"/>
      <point x="257" y="784"/>
      <point x="383" y="784" type="curve"/>
      <point x="429" y="784"/>
      <point x="471" y="777"/>
      <point x="508" y="759" type="curve"/>
      <point x="518" y="776"/>
      <point x="508" y="759"/>
      <point x="518" y="776" type="curve"/>
      <point x="479" y="797"/>
      <point x="430" y="805"/>
      <point x="383" y="805" type="curve"/>
      <point x="243" y="805"/>
      <point x="177" y="734"/>
      <point x="178" y="637" type="curve"/>
      <point x="178" y="0" type="line"/>
      <point x="202" y="0"/>
      <point x="178" y="0"/>
    </contour>
    <contour>
      <point x="507" y="22" type="curve"/>
      <point x="372" y="22"/>
      <point x="507" y="22"/>
      <point x="372" y="22" type="curve"/>
      <point x="372" y="0"/>
      <point x="372" y="22"/>
      <point x="372" y="0" type="curve"/>
      <point x="417" y="0"/>
      <point x="462" y="0"/>
      <point x="507" y="0" type="curve"/>
      <point x="507" y="22"/>
      <point x="507" y="0"/>
    </contour>
    <contour>
      <point x="507" y="0" type="curve"/>
      <point x="552" y="0"/>
      <point x="596" y="0"/>
      <point x="641" y="0" type="curve"/>
      <point x="641" y="22"/>
      <point x="641" y="0"/>
      <point x="641" y="22" type="curve"/>
      <point x="507" y="22"/>
      <point x="641" y="22"/>
      <point x="507" y="22" type="curve"/>
      <point x="507" y="0"/>
      <point x="507" y="22"/>
    </contour>
    <contour>
      <point x="518" y="0" type="curve"/>
      <point x="518" y="259"/>
      <point x="518" y="517"/>
      <point x="518" y="776" type="curve"/>
      <point x="494" y="776"/>
      <point x="518" y="776"/>
      <point x="494" y="776" type="curve"/>
      <point x="494" y="517"/>
      <point x="494" y="259"/>
      <point x="494" y="0" type="curve"/>
      <point x="518" y="0"/>
      <point x="494" y="0"/>
    </contour>
  </outline>
</glyph>
<glyph name="Tcedilla" format="1">
  <advance width="638"/>
  <outline>
    <contour>
      <point x="49" y="710" type="curve"/>
      <point x="49" y="590"/>
      <point x="49" y="718"/>
      <point x="49" y="598" type="curve"/>
      <point x="71" y="598"/>
      <point x="49" y="598"/>
      <point x="71" y="598" type="curve"/>
      <point x="71" y="718"/>
      <point x="71" y="590"/>
      <point x="71" y="710" type="curve"/>
      <point x="49" y="710"/>
      <point x="71" y="710"/>
    </contour>
    <contour>
      <point x="568" y="710" type="curve"/>
      <point x="568" y="590"/>
      <point x="568" y="718"/>
      <point x="568" y="598" type="curve"/>
      <point x="590" y="598"/>
      <point x="568" y="598"/>
      <point x="590" y="598" type="curve"/>
      <point x="590" y="718"/>
      <point x="590" y="590"/>
      <point x="590" y="710" type="curve"/>
      <point x="568" y="710"/>
      <point x="590" y="710"/>
    </contour>
    <contour>
      <point x="319" y="0" type="curve"/>
      <point x="364" y="0"/>
      <point x="402" y="0"/>
      <point x="446" y="0" type="curve"/>
      <point x="446" y="22"/>
      <point x="446" y="0"/>
      <point x="446" y="22" type="curve"/>
      <point x="312" y="22"/>
      <point x="453" y="22"/>
      <point x="319" y="22" type="curve"/>
      <point x="319" y="0"/>
      <point x="319" y="22"/>
    </contour>
    <contour>
      <point x="319" y="22" type="curve"/>
      <point x="184" y="22"/>
      <point x="325" y="22"/>
      <point x="191" y="22" type="curve"/>
      <point x="191" y="0"/>
      <point x="191" y="22"/>
      <point x="191" y="0" type="curve"/>
      <point x="236" y="0"/>
      <point x="274" y="0"/>
      <point x="319" y="0" type="curve"/>
      <point x="319" y="22"/>
      <point x="319" y="0"/>
    </contour>
    <contour>
      <point x="331" y="0" type="curve"/>
      <point x="331" y="237"/>
      <point x="331" y="473"/>
      <point x="331" y="710" type="curve"/>
      <point x="307" y="710"/>
      <point x="331" y="710"/>
      <point x="307" y="710" type="curve"/>
      <point x="307" y="473"/>
      <point x="307" y="237"/>
      <point x="307" y="0" type="curve"/>
      <point x="331" y="0"/>
      <point x="307" y="0"/>
    </contour>
    <contour>
      <point x="49" y="698" type="curve"/>
      <point x="229" y="698"/>
      <point x="410" y="698"/>
      <point x="590" y="698" type="curve"/>
      <point x="590" y="722"/>
      <point x="590" y="698"/>
      <point x="590" y="722" type="curve"/>
      <point x="410" y="722"/>
      <point x="229" y="722"/>
      <point x="49" y="722" type="curve"/>
      <point x="49" y="698"/>
      <point x="49" y="722"/>
    </contour>
    <contour>
      <point x="314" y="13" type="curve"/>
      <point x="301" y="-14"/>
      <point x="288" y="-40"/>
      <point x="276" y="-67" type="curve"/>
      <point x="292" y="-84"/>
      <point x="276" y="-67"/>
      <point x="292" y="-84" type="curve"/>
      <point x="305" y="-56"/>
      <point x="319" y="-29"/>
      <point x="332" y="-1" type="curve"/>
      <point x="314" y="13"/>
      <point x="332" y="-1"/>
    </contour>
    <contour>
      <point x="292" y="-85" type="curve"/>
      <point x="305" y="-75"/>
      <point x="315" y="-72"/>
      <point x="331" y="-72" type="curve"/>
      <point x="362" y="-72"/>
      <point x="375" y="-95"/>
      <point x="375" y="-129" type="curve"/>
      <point x="375" y="-164"/>
      <point x="354" y="-184"/>
      <point x="320" y="-184" type="curve"/>
      <point x="296" y="-184"/>
      <point x="279" y="-180"/>
      <point x="260" y="-167" type="curve"/>
      <point x="250" y="-184"/>
      <point x="260" y="-167"/>
      <point x="250" y="-184" type="curve"/>
      <point x="272" y="-199"/>
      <point x="291" y="-205"/>
      <point x="319" y="-205" type="curve"/>
      <point x="368" y="-205"/>
      <point x="400" y="-177"/>
      <point x="400" y="-129" type="curve"/>
      <point x="400" y="-82"/>
      <point x="376" y="-50"/>
      <point x="333" y="-50" type="curve"/>
      <point x="311" y="-50"/>
      <point x="295" y="-56"/>
      <point x="276" y="-67" type="curve"/>
      <point x="292" y="-85"/>
      <point x="276" y="-67"/>
    </contour>
  </outline>
</glyph>
<glyph name="dvA_base" format="1">
  <advance width="500"/>
  <outline>
    <contour>
      <point x="95" y="641" type="curve"/>
      <point x="135" y="677"/>
      <point x="175" y="705"/>
      <point x="233" y="705" type="curve"/>
      <point x="322" y="705"/>
      <point x="373" y="649"/>
      <point x="372" y="565" type="curve"/>
      <point x="371" y="469"/>
      <point x="298" y="422"/>
      <point x="196" y="422" type="curve"/>
      <point x="196" y="405"/>
      <point x="196" y="419"/>
      <point x="196" y="402" type="curve"/>
      <point x="312" y="402"/>
      <point x="396" y="458"/>
      <point x="396" y="568" type="curve"/>
      <point x="396" y="664"/>
      <point x="338" y="727"/>
      <point x="236" y="727" type="curve"/>
      <point x="172" y="727"/>
      <point x="125" y="700"/>
      <point x="81" y="659" type="curve"/>
      <point x="93" y="644"/>
      <point x="84" y="656"/>
    </contour>
    <contour>
      <point x="67" y="160" type="curve"/>
      <point x="109" y="105"/>
      <point x="166" y="70"/>
      <point x="237" y="70" type="curve"/>
      <point x="344" y="65"/>
      <point x="413" y="137"/>
      <point x="411" y="248" type="curve"/>
      <point x="409" y="363"/>
      <point x="316" y="417"/>
      <point x="196" y="417" type="curve"/>
      <point x="196" y="402"/>
      <point x="196" y="414"/>
      <point x="196" y="399" type="curve"/>
      <point x="304" y="399"/>
      <point x="386" y="350"/>
      <point x="387" y="246" type="curve"/>
      <point x="389" y="151"/>
      <point x="331" y="87"/>
      <point x="239" y="91" type="curve"/>
      <point x="174" y="91"/>
      <point x="124" y="124"/>
      <point x="83" y="174" type="curve"/>
      <point x="69" y="162"/>
      <point x="81" y="172"/>
    </contour>
  </outline>
</glyph>
<glyph name="dvBH" format="1">
  <advance width="435"/>
  <outline>
    <contour>
      <point x="136" y="545" type="line"/>
      <point x="144" y="633"/>
      <point x="167" y="706"/>
      <point x="247" y="706" type="curve"/>
      <point x="325" y="706"/>
      <point x="352" y="634"/>
      <point x="352" y="547" type="curve"/>
      <point x="352" y="459"/>
      <point x="352" y="394"/>
      <point x="352" y="305" type="curve"/>
      <point x="352" y="211"/>
      <point x="320" y="132"/>
      <point x="239" y="132" type="curve"/>
      <point x="158" y="132"/>
      <point x="113" y="194"/>
      <point x="113" y="280" type="curve"/>
      <point x="113" y="362"/>
      <point x="173" y="411"/>
      <point x="263" y="411" type="curve"/>
      <point x="364" y="411"/>
      <point x="438" y="411"/>
      <point x="539" y="411" type="curve"/>
      <point x="539" y="419"/>
      <point x="539" y="425"/>
      <point x="539" y="433" type="curve"/>
      <point x="438" y="433"/>
      <point x="365" y="433"/>
      <point x="264" y="433" type="curve"/>
      <point x="159" y="433"/>
      <point x="88" y="375"/>
      <point x="88" y="279" type="curve"/>
      <point x="88" y="181"/>
      <point x="143" y="111"/>
      <point x="238" y="111" type="curve"/>
      <point x="337" y="111"/>
      <point x="376" y="198"/>
      <point x="376" y="305" type="curve"/>
      <point x="376" y="394"/>
      <point x="376" y="459"/>
      <point x="376" y="547" type="curve"/>
      <point x="376" y="647"/>
      <point x="339" y="728"/>
      <point x="248" y="728" type="curve"/>
      <point x="156" y="728"/>
      <point x="123" y="654"/>
      <point x="114" y="548" type="curve"/>
    </contour>
  </outline>
</glyph>
